<svg width="334" height="82" viewBox="0 0 334 82" fill="none" xmlns="http://www.w3.org/2000/svg">
<rect x="0.5" y="0.5" width="333" height="81" rx="4.5" fill="white" stroke="#4E6424"/>
<rect x="249.961" width="84.0387" height="82" rx="5" fill="#4E6424"/>
<path d="M65.0311 39.1448C65.9751 39.3208 66.7511 39.7928 67.3591 40.5608C67.9671 41.3288 68.2711 42.2088 68.2711 43.2008C68.2711 44.0968 68.0471 44.8888 67.5991 45.5768C67.1671 46.2488 66.5351 46.7768 65.7031 47.1608C64.8711 47.5448 63.8871 47.7368 62.7511 47.7368H55.5271V30.9848H62.4391C63.5751 30.9848 64.5511 31.1688 65.3671 31.5368C66.1991 31.9048 66.8231 32.4168 67.2391 33.0728C67.6711 33.7288 67.8871 34.4728 67.8871 35.3048C67.8871 36.2808 67.6231 37.0968 67.0951 37.7528C66.5831 38.4088 65.8951 38.8728 65.0311 39.1448ZM58.8871 37.8968H61.9591C62.7591 37.8968 63.3751 37.7208 63.8071 37.3688C64.2391 37.0008 64.4551 36.4808 64.4551 35.8088C64.4551 35.1368 64.2391 34.6168 63.8071 34.2488C63.3751 33.8808 62.7591 33.6968 61.9591 33.6968H58.8871V37.8968ZM62.2711 45.0008C63.0871 45.0008 63.7191 44.8088 64.1671 44.4248C64.6311 44.0408 64.8631 43.4968 64.8631 42.7928C64.8631 42.0728 64.6231 41.5128 64.1431 41.1128C63.6631 40.6968 63.0151 40.4888 62.1991 40.4888H58.8871V45.0008H62.2711ZM70.085 41.0408C70.085 39.6968 70.349 38.5048 70.877 37.4648C71.421 36.4248 72.149 35.6248 73.061 35.0648C73.989 34.5048 75.021 34.2248 76.157 34.2248C77.149 34.2248 78.013 34.4248 78.749 34.8248C79.501 35.2248 80.101 35.7288 80.549 36.3368V34.4408H83.933V47.7368H80.549V45.7928C80.117 46.4168 79.517 46.9368 78.749 47.3528C77.997 47.7528 77.125 47.9528 76.133 47.9528C75.013 47.9528 73.989 47.6648 73.061 47.0888C72.149 46.5128 71.421 45.7048 70.877 44.6648C70.349 43.6088 70.085 42.4008 70.085 41.0408ZM80.549 41.0888C80.549 40.2728 80.389 39.5768 80.069 39.0008C79.749 38.4088 79.317 37.9608 78.773 37.6568C78.229 37.3368 77.645 37.1768 77.021 37.1768C76.397 37.1768 75.821 37.3288 75.293 37.6328C74.765 37.9368 74.333 38.3848 73.997 38.9768C73.677 39.5528 73.517 40.2408 73.517 41.0408C73.517 41.8408 73.677 42.5448 73.997 43.1528C74.333 43.7448 74.765 44.2008 75.293 44.5208C75.837 44.8408 76.413 45.0008 77.021 45.0008C77.645 45.0008 78.229 44.8488 78.773 44.5448C79.317 44.2248 79.749 43.7768 80.069 43.2008C80.389 42.6088 80.549 41.9048 80.549 41.0888ZM88.9186 32.8568C88.3266 32.8568 87.8306 32.6728 87.4306 32.3048C87.0466 31.9208 86.8546 31.4488 86.8546 30.8888C86.8546 30.3288 87.0466 29.8648 87.4306 29.4968C87.8306 29.1128 88.3266 28.9208 88.9186 28.9208C89.5106 28.9208 89.9986 29.1128 90.3826 29.4968C90.7826 29.8648 90.9826 30.3288 90.9826 30.8888C90.9826 31.4488 90.7826 31.9208 90.3826 32.3048C89.9986 32.6728 89.5106 32.8568 88.9186 32.8568ZM90.5746 34.4408V47.7368H87.2146V34.4408H90.5746ZM101.238 47.7368L98.5023 43.6088L96.0783 47.7368H92.4783L96.8223 41.0648L92.4303 34.4408H96.2223L98.9343 38.5448L101.382 34.4408H104.982L100.614 41.0648L105.03 47.7368H101.238ZM105.991 41.0408C105.991 39.6968 106.255 38.5048 106.783 37.4648C107.327 36.4248 108.055 35.6248 108.967 35.0648C109.895 34.5048 110.927 34.2248 112.063 34.2248C113.055 34.2248 113.919 34.4248 114.655 34.8248C115.407 35.2248 116.007 35.7288 116.455 36.3368V34.4408H119.839V47.7368H116.455V45.7928C116.023 46.4168 115.423 46.9368 114.655 47.3528C113.903 47.7528 113.031 47.9528 112.039 47.9528C110.919 47.9528 109.895 47.6648 108.967 47.0888C108.055 46.5128 107.327 45.7048 106.783 44.6648C106.255 43.6088 105.991 42.4008 105.991 41.0408ZM116.455 41.0888C116.455 40.2728 116.295 39.5768 115.975 39.0008C115.655 38.4088 115.223 37.9608 114.679 37.6568C114.135 37.3368 113.551 37.1768 112.927 37.1768C112.303 37.1768 111.727 37.3288 111.199 37.6328C110.671 37.9368 110.239 38.3848 109.903 38.9768C109.583 39.5528 109.423 40.2408 109.423 41.0408C109.423 41.8408 109.583 42.5448 109.903 43.1528C110.239 43.7448 110.671 44.2008 111.199 44.5208C111.743 44.8408 112.319 45.0008 112.927 45.0008C113.551 45.0008 114.135 44.8488 114.679 44.5448C115.223 44.2248 115.655 43.7768 115.975 43.2008C116.295 42.6088 116.455 41.9048 116.455 41.0888ZM126.481 36.5048C126.913 35.8008 127.473 35.2488 128.161 34.8488C128.865 34.4488 129.665 34.2488 130.561 34.2488V37.7768H129.673C128.617 37.7768 127.817 38.0248 127.273 38.5208C126.745 39.0168 126.481 39.8808 126.481 41.1128V47.7368H123.121V34.4408H126.481V36.5048ZM148.815 44.5448H142.143L141.039 47.7368H137.511L143.535 30.9608H147.447L153.471 47.7368H149.919L148.815 44.5448ZM147.903 41.8568L145.479 34.8488L143.055 41.8568H147.903ZM167.938 36.1688C167.938 37.0648 167.722 37.9048 167.29 38.6888C166.874 39.4728 166.21 40.1048 165.298 40.5848C164.402 41.0648 163.266 41.3048 161.89 41.3048H159.082V47.7368H155.722V30.9848H161.89C163.186 30.9848 164.29 31.2088 165.202 31.6568C166.114 32.1048 166.794 32.7208 167.242 33.5048C167.706 34.2888 167.938 35.1768 167.938 36.1688ZM161.746 38.5928C162.674 38.5928 163.362 38.3848 163.81 37.9688C164.258 37.5368 164.482 36.9368 164.482 36.1688C164.482 34.5368 163.57 33.7208 161.746 33.7208H159.082V38.5928H161.746ZM179.78 47.7368L173.684 40.2728V47.7368H170.324V30.9848H173.684V38.4968L179.78 30.9848H183.836L176.924 39.2888L184.028 47.7368H179.78Z" fill="#4E6424"/>
<path d="M275.112 40.2929C274.722 40.6834 274.722 41.3166 275.112 41.7071L281.476 48.0711C281.867 48.4616 282.5 48.4616 282.891 48.0711C283.281 47.6805 283.281 47.0474 282.891 46.6569L277.234 41L282.891 35.3431C283.281 34.9526 283.281 34.3195 282.891 33.9289C282.5 33.5384 281.867 33.5384 281.476 33.9289L275.112 40.2929ZM308.142 40L275.82 40V42L308.142 42V40Z" fill="white"/>
</svg>
