<svg width="125" height="29" viewBox="0 0 125 29" fill="none" xmlns="http://www.w3.org/2000/svg">
<rect x="0.5" y="0.5" width="124" height="28" rx="4.5" fill="white" stroke="#4E6424"/>
<rect x="93.5483" width="31.4516" height="29" rx="5" fill="#4E6424"/>
<path d="M24.3461 14.1727C24.7001 14.2387 24.9911 14.4157 25.2191 14.7037C25.4471 14.9917 25.5611 15.3217 25.5611 15.6937C25.5611 16.0297 25.4771 16.3267 25.3091 16.5847C25.1471 16.8367 24.9101 17.0347 24.5981 17.1787C24.2861 17.3227 23.9171 17.3947 23.4911 17.3947H20.7821V11.1127H23.3741C23.8001 11.1127 24.1661 11.1817 24.4721 11.3197C24.7841 11.4577 25.0181 11.6497 25.1741 11.8957C25.3361 12.1417 25.4171 12.4207 25.4171 12.7327C25.4171 13.0987 25.3181 13.4047 25.1201 13.6507C24.9281 13.8967 24.6701 14.0707 24.3461 14.1727ZM22.0421 13.7047H23.1941C23.4941 13.7047 23.7251 13.6387 23.8871 13.5067C24.0491 13.3687 24.1301 13.1737 24.1301 12.9217C24.1301 12.6697 24.0491 12.4747 23.8871 12.3367C23.7251 12.1987 23.4941 12.1297 23.1941 12.1297H22.0421V13.7047ZM23.3111 16.3687C23.6171 16.3687 23.8541 16.2967 24.0221 16.1527C24.1961 16.0087 24.2831 15.8047 24.2831 15.5407C24.2831 15.2707 24.1931 15.0607 24.0131 14.9107C23.8331 14.7547 23.5901 14.6767 23.2841 14.6767H22.0421V16.3687H23.3111ZM26.2413 14.8837C26.2413 14.3797 26.3403 13.9327 26.5383 13.5427C26.7423 13.1527 27.0153 12.8527 27.3573 12.6427C27.7053 12.4327 28.0923 12.3277 28.5183 12.3277C28.8903 12.3277 29.2143 12.4027 29.4903 12.5527C29.7723 12.7027 29.9973 12.8917 30.1653 13.1197V12.4087H31.4343V17.3947H30.1653V16.6657C30.0033 16.8997 29.7783 17.0947 29.4903 17.2507C29.2083 17.4007 28.8813 17.4757 28.5093 17.4757C28.0893 17.4757 27.7053 17.3677 27.3573 17.1517C27.0153 16.9357 26.7423 16.6327 26.5383 16.2427C26.3403 15.8467 26.2413 15.3937 26.2413 14.8837ZM30.1653 14.9017C30.1653 14.5957 30.1053 14.3347 29.9853 14.1187C29.8653 13.8967 29.7033 13.7287 29.4993 13.6147C29.2953 13.4947 29.0763 13.4347 28.8423 13.4347C28.6083 13.4347 28.3923 13.4917 28.1943 13.6057C27.9963 13.7197 27.8343 13.8877 27.7083 14.1097C27.5883 14.3257 27.5283 14.5837 27.5283 14.8837C27.5283 15.1837 27.5883 15.4477 27.7083 15.6757C27.8343 15.8977 27.9963 16.0687 28.1943 16.1887C28.3983 16.3087 28.6143 16.3687 28.8423 16.3687C29.0763 16.3687 29.2953 16.3117 29.4993 16.1977C29.7033 16.0777 29.8653 15.9097 29.9853 15.6937C30.1053 15.4717 30.1653 15.2077 30.1653 14.9017ZM33.3039 11.8147C33.0819 11.8147 32.8959 11.7457 32.7459 11.6077C32.6019 11.4637 32.5299 11.2867 32.5299 11.0767C32.5299 10.8667 32.6019 10.6927 32.7459 10.5547C32.8959 10.4107 33.0819 10.3387 33.3039 10.3387C33.5259 10.3387 33.7089 10.4107 33.8529 10.5547C34.0029 10.6927 34.0779 10.8667 34.0779 11.0767C34.0779 11.2867 34.0029 11.4637 33.8529 11.6077C33.7089 11.7457 33.5259 11.8147 33.3039 11.8147ZM33.9249 12.4087V17.3947H32.6649V12.4087H33.9249ZM37.9238 17.3947L36.8978 15.8467L35.9888 17.3947H34.6388L36.2678 14.8927L34.6208 12.4087H36.0428L37.0598 13.9477L37.9778 12.4087H39.3278L37.6898 14.8927L39.3458 17.3947H37.9238ZM39.7062 14.8837C39.7062 14.3797 39.8052 13.9327 40.0032 13.5427C40.2072 13.1527 40.4802 12.8527 40.8222 12.6427C41.1702 12.4327 41.5572 12.3277 41.9832 12.3277C42.3552 12.3277 42.6792 12.4027 42.9552 12.5527C43.2372 12.7027 43.4622 12.8917 43.6302 13.1197V12.4087H44.8992V17.3947H43.6302V16.6657C43.4682 16.8997 43.2432 17.0947 42.9552 17.2507C42.6732 17.4007 42.3462 17.4757 41.9742 17.4757C41.5542 17.4757 41.1702 17.3677 40.8222 17.1517C40.4802 16.9357 40.2072 16.6327 40.0032 16.2427C39.8052 15.8467 39.7062 15.3937 39.7062 14.8837ZM43.6302 14.9017C43.6302 14.5957 43.5702 14.3347 43.4502 14.1187C43.3302 13.8967 43.1682 13.7287 42.9642 13.6147C42.7602 13.4947 42.5412 13.4347 42.3072 13.4347C42.0732 13.4347 41.8572 13.4917 41.6592 13.6057C41.4612 13.7197 41.2992 13.8877 41.1732 14.1097C41.0532 14.3257 40.9932 14.5837 40.9932 14.8837C40.9932 15.1837 41.0532 15.4477 41.1732 15.6757C41.2992 15.8977 41.4612 16.0687 41.6592 16.1887C41.8632 16.3087 42.0792 16.3687 42.3072 16.3687C42.5412 16.3687 42.7602 16.3117 42.9642 16.1977C43.1682 16.0777 43.3302 15.9097 43.4502 15.6937C43.5702 15.4717 43.6302 15.2077 43.6302 14.9017ZM47.3898 13.1827C47.5518 12.9187 47.7618 12.7117 48.0198 12.5617C48.2838 12.4117 48.5838 12.3367 48.9198 12.3367V13.6597H48.5868C48.1908 13.6597 47.8908 13.7527 47.6868 13.9387C47.4888 14.1247 47.3898 14.4487 47.3898 14.9107V17.3947H46.1298V12.4087H47.3898V13.1827ZM55.765 16.1977H53.263L52.849 17.3947H51.526L53.785 11.1037H55.252L57.511 17.3947H56.179L55.765 16.1977ZM55.423 15.1897L54.514 12.5617L53.605 15.1897H55.423ZM62.9364 13.0567C62.9364 13.3927 62.8554 13.7077 62.6934 14.0017C62.5374 14.2957 62.2884 14.5327 61.9464 14.7127C61.6104 14.8927 61.1844 14.9827 60.6684 14.9827H59.6154V17.3947H58.3554V11.1127H60.6684C61.1544 11.1127 61.5684 11.1967 61.9104 11.3647C62.2524 11.5327 62.5074 11.7637 62.6754 12.0577C62.8494 12.3517 62.9364 12.6847 62.9364 13.0567ZM60.6144 13.9657C60.9624 13.9657 61.2204 13.8877 61.3884 13.7317C61.5564 13.5697 61.6404 13.3447 61.6404 13.0567C61.6404 12.4447 61.2984 12.1387 60.6144 12.1387H59.6154V13.9657H60.6144ZM67.377 17.3947L65.091 14.5957V17.3947H63.831V11.1127H65.091V13.9297L67.377 11.1127H68.898L66.306 14.2267L68.97 17.3947H67.377Z" fill="#4E6424"/>
<path d="M102.696 13.9697C102.403 14.2626 102.403 14.7374 102.696 15.0303L107.469 19.8033C107.762 20.0962 108.236 20.0962 108.529 19.8033C108.822 19.5104 108.822 19.0355 108.529 18.7426L104.287 14.5L108.529 10.2574C108.822 9.96447 108.822 9.48959 108.529 9.1967C108.236 8.90381 107.762 8.90381 107.469 9.1967L102.696 13.9697ZM115.323 13.75L103.226 13.75V15.25L115.323 15.25V13.75Z" fill="white"/>
</svg>
