<svg width="190" height="44" viewBox="0 0 190 44" fill="none" xmlns="http://www.w3.org/2000/svg">
<rect x="0.5" y="0.5" width="189" height="43" rx="4.5" fill="white" stroke="#4E6424"/>
<rect x="142.193" width="47.8064" height="44" rx="5" fill="#4E6424"/>
<path d="M37.155 21.7248C37.7057 21.8275 38.1584 22.1028 38.513 22.5508C38.8677 22.9988 39.045 23.5122 39.045 24.0908C39.045 24.6135 38.9144 25.0755 38.653 25.4768C38.401 25.8688 38.0324 26.1768 37.547 26.4008C37.0617 26.6248 36.4877 26.7368 35.825 26.7368H31.611V16.9648H35.643C36.3057 16.9648 36.875 17.0722 37.351 17.2868C37.8364 17.5015 38.2004 17.8002 38.443 18.1828C38.695 18.5655 38.821 18.9995 38.821 19.4848C38.821 20.0542 38.667 20.5302 38.359 20.9128C38.0604 21.2955 37.659 21.5662 37.155 21.7248ZM33.571 20.9968H35.363C35.8297 20.9968 36.189 20.8942 36.441 20.6888C36.693 20.4742 36.819 20.1708 36.819 19.7788C36.819 19.3868 36.693 19.0835 36.441 18.8688C36.189 18.6542 35.8297 18.5468 35.363 18.5468H33.571V20.9968ZM35.545 25.1408C36.021 25.1408 36.3897 25.0288 36.651 24.8048C36.9217 24.5808 37.057 24.2635 37.057 23.8528C37.057 23.4328 36.917 23.1062 36.637 22.8728C36.357 22.6302 35.979 22.5088 35.503 22.5088H33.571V25.1408H35.545ZM40.1031 22.8308C40.1031 22.0468 40.2571 21.3515 40.5651 20.7448C40.8824 20.1382 41.3071 19.6715 41.8391 19.3448C42.3804 19.0182 42.9824 18.8548 43.6451 18.8548C44.2238 18.8548 44.7278 18.9715 45.1571 19.2048C45.5958 19.4382 45.9458 19.7322 46.2071 20.0868V18.9808H48.1811V26.7368H46.2071V25.6028C45.9551 25.9668 45.6051 26.2702 45.1571 26.5128C44.7184 26.7462 44.2098 26.8628 43.6311 26.8628C42.9778 26.8628 42.3804 26.6948 41.8391 26.3588C41.3071 26.0228 40.8824 25.5515 40.5651 24.9448C40.2571 24.3288 40.1031 23.6242 40.1031 22.8308ZM46.2071 22.8588C46.2071 22.3828 46.1138 21.9768 45.9271 21.6408C45.7404 21.2955 45.4884 21.0342 45.1711 20.8568C44.8538 20.6702 44.5131 20.5768 44.1491 20.5768C43.7851 20.5768 43.4491 20.6655 43.1411 20.8428C42.8331 21.0202 42.5811 21.2815 42.3851 21.6268C42.1984 21.9628 42.1051 22.3642 42.1051 22.8308C42.1051 23.2975 42.1984 23.7082 42.3851 24.0628C42.5811 24.4082 42.8331 24.6742 43.1411 24.8608C43.4584 25.0475 43.7944 25.1408 44.1491 25.1408C44.5131 25.1408 44.8538 25.0522 45.1711 24.8748C45.4884 24.6882 45.7404 24.4268 45.9271 24.0908C46.1138 23.7455 46.2071 23.3348 46.2071 22.8588ZM51.0894 18.0568C50.7441 18.0568 50.4547 17.9495 50.2214 17.7348C49.9974 17.5108 49.8854 17.2355 49.8854 16.9088C49.8854 16.5822 49.9974 16.3115 50.2214 16.0968C50.4547 15.8728 50.7441 15.7608 51.0894 15.7608C51.4347 15.7608 51.7194 15.8728 51.9434 16.0968C52.1767 16.3115 52.2934 16.5822 52.2934 16.9088C52.2934 17.2355 52.1767 17.5108 51.9434 17.7348C51.7194 17.9495 51.4347 18.0568 51.0894 18.0568ZM52.0554 18.9808V26.7368H50.0954V18.9808H52.0554ZM58.2759 26.7368L56.6799 24.3288L55.2659 26.7368H53.1659L55.6999 22.8448L53.1379 18.9808H55.3499L56.9319 21.3748L58.3599 18.9808H60.4599L57.9119 22.8448L60.4879 26.7368H58.2759ZM61.0484 22.8308C61.0484 22.0468 61.2024 21.3515 61.5104 20.7448C61.8278 20.1382 62.2524 19.6715 62.7844 19.3448C63.3258 19.0182 63.9278 18.8548 64.5904 18.8548C65.1691 18.8548 65.6731 18.9715 66.1024 19.2048C66.5411 19.4382 66.8911 19.7322 67.1524 20.0868V18.9808H69.1264V26.7368H67.1524V25.6028C66.9004 25.9668 66.5504 26.2702 66.1024 26.5128C65.6638 26.7462 65.1551 26.8628 64.5764 26.8628C63.9231 26.8628 63.3258 26.6948 62.7844 26.3588C62.2524 26.0228 61.8278 25.5515 61.5104 24.9448C61.2024 24.3288 61.0484 23.6242 61.0484 22.8308ZM67.1524 22.8588C67.1524 22.3828 67.0591 21.9768 66.8724 21.6408C66.6858 21.2955 66.4338 21.0342 66.1164 20.8568C65.7991 20.6702 65.4584 20.5768 65.0944 20.5768C64.7304 20.5768 64.3944 20.6655 64.0864 20.8428C63.7784 21.0202 63.5264 21.2815 63.3304 21.6268C63.1438 21.9628 63.0504 22.3642 63.0504 22.8308C63.0504 23.2975 63.1438 23.7082 63.3304 24.0628C63.5264 24.4082 63.7784 24.6742 64.0864 24.8608C64.4038 25.0475 64.7398 25.1408 65.0944 25.1408C65.4584 25.1408 65.7991 25.0522 66.1164 24.8748C66.4338 24.6882 66.6858 24.4268 66.8724 24.0908C67.0591 23.7455 67.1524 23.3348 67.1524 22.8588ZM73.0007 20.1848C73.2527 19.7742 73.5794 19.4522 73.9807 19.2188C74.3914 18.9855 74.858 18.8688 75.3807 18.8688V20.9268H74.8627C74.2467 20.9268 73.78 21.0715 73.4627 21.3608C73.1547 21.6502 73.0007 22.1542 73.0007 22.8728V26.7368H71.0407V18.9808H73.0007V20.1848ZM86.0288 24.8748H82.1368L81.4928 26.7368H79.4348L82.9488 16.9508H85.2308L88.7448 26.7368H86.6728L86.0288 24.8748ZM85.4968 23.3068L84.0828 19.2188L82.6688 23.3068H85.4968ZM97.1843 19.9888C97.1843 20.5115 97.0583 21.0015 96.8063 21.4588C96.5636 21.9162 96.1763 22.2848 95.6443 22.5648C95.1216 22.8448 94.459 22.9848 93.6563 22.9848H92.0183V26.7368H90.0583V16.9648H93.6563C94.4123 16.9648 95.0563 17.0955 95.5883 17.3568C96.1203 17.6182 96.517 17.9775 96.7783 18.4348C97.049 18.8922 97.1843 19.4102 97.1843 19.9888ZM93.5723 21.4028C94.1136 21.4028 94.515 21.2815 94.7763 21.0388C95.0376 20.7868 95.1683 20.4368 95.1683 19.9888C95.1683 19.0368 94.6363 18.5608 93.5723 18.5608H92.0183V21.4028H93.5723ZM104.092 26.7368L100.536 22.3828V26.7368H98.5759V16.9648H100.536V21.3468L104.092 16.9648H106.458L102.426 21.8088L106.57 26.7368H104.092Z" fill="#4E6424"/>
<path d="M156.373 21.4697C156.08 21.7626 156.08 22.2374 156.373 22.5303L161.146 27.3033C161.439 27.5962 161.914 27.5962 162.207 27.3033C162.5 27.0104 162.5 26.5355 162.207 26.2426L157.964 22L162.207 17.7574C162.5 17.4645 162.5 16.9896 162.207 16.6967C161.914 16.4038 161.439 16.4038 161.146 16.6967L156.373 21.4697ZM175.291 21.25L156.903 21.25V22.75L175.291 22.75V21.25Z" fill="white"/>
</svg>
