<svg width="527" height="122" viewBox="0 0 527 122" fill="none" xmlns="http://www.w3.org/2000/svg">
<rect x="0.5" y="0.5" width="526" height="121" rx="4.5" fill="white" stroke="#4E6424"/>
<rect x="394.4" width="132.6" height="122" rx="5" fill="#4E6424"/>
<path d="M103.6 60.9958C105.173 61.2891 106.467 62.0758 107.48 63.3558C108.493 64.6358 109 66.1025 109 67.7558C109 69.2491 108.627 70.5691 107.88 71.7158C107.16 72.8358 106.107 73.7158 104.72 74.3558C103.333 74.9958 101.693 75.3158 99.8 75.3158H87.76V47.3958H99.28C101.173 47.3958 102.8 47.7025 104.16 48.3158C105.547 48.9291 106.587 49.7825 107.28 50.8758C108 51.9691 108.36 53.2091 108.36 54.5958C108.36 56.2225 107.92 57.5825 107.04 58.6758C106.187 59.7691 105.04 60.5425 103.6 60.9958ZM93.36 58.9158H98.48C99.8133 58.9158 100.84 58.6225 101.56 58.0358C102.28 57.4225 102.64 56.5558 102.64 55.4358C102.64 54.3158 102.28 53.4491 101.56 52.8358C100.84 52.2225 99.8133 51.9158 98.48 51.9158H93.36V58.9158ZM99 70.7558C100.36 70.7558 101.413 70.4358 102.16 69.7958C102.933 69.1558 103.32 68.2491 103.32 67.0758C103.32 65.8758 102.92 64.9425 102.12 64.2758C101.32 63.5825 100.24 63.2358 98.88 63.2358H93.36V70.7558H99ZM112.023 64.1558C112.023 61.9158 112.463 59.9291 113.343 58.1958C114.25 56.4625 115.463 55.1291 116.983 54.1958C118.53 53.2625 120.25 52.7958 122.143 52.7958C123.796 52.7958 125.236 53.1291 126.463 53.7958C127.716 54.4625 128.716 55.3025 129.463 56.3158V53.1558H135.103V75.3158H129.463V72.0758C128.743 73.1158 127.743 73.9825 126.463 74.6758C125.21 75.3425 123.756 75.6758 122.103 75.6758C120.236 75.6758 118.53 75.1958 116.983 74.2358C115.463 73.2758 114.25 71.9291 113.343 70.1958C112.463 68.4358 112.023 66.4225 112.023 64.1558ZM129.463 64.2358C129.463 62.8758 129.196 61.7158 128.663 60.7558C128.13 59.7691 127.41 59.0225 126.503 58.5158C125.596 57.9825 124.623 57.7158 123.583 57.7158C122.543 57.7158 121.583 57.9691 120.703 58.4758C119.823 58.9825 119.103 59.7291 118.543 60.7158C118.01 61.6758 117.743 62.8225 117.743 64.1558C117.743 65.4891 118.01 66.6625 118.543 67.6758C119.103 68.6625 119.823 69.4225 120.703 69.9558C121.61 70.4891 122.57 70.7558 123.583 70.7558C124.623 70.7558 125.596 70.5025 126.503 69.9958C127.41 69.4625 128.13 68.7158 128.663 67.7558C129.196 66.7691 129.463 65.5958 129.463 64.2358ZM143.413 50.5158C142.426 50.5158 141.599 50.2091 140.933 49.5958C140.293 48.9558 139.973 48.1691 139.973 47.2358C139.973 46.3025 140.293 45.5291 140.933 44.9158C141.599 44.2758 142.426 43.9558 143.413 43.9558C144.399 43.9558 145.213 44.2758 145.853 44.9158C146.519 45.5291 146.853 46.3025 146.853 47.2358C146.853 48.1691 146.519 48.9558 145.853 49.5958C145.213 50.2091 144.399 50.5158 143.413 50.5158ZM146.173 53.1558V75.3158H140.573V53.1558H146.173ZM163.945 75.3158L159.385 68.4358L155.345 75.3158H149.345L156.585 64.1958L149.265 53.1558H155.585L160.105 59.9958L164.185 53.1558H170.185L162.905 64.1958L170.265 75.3158H163.945ZM171.867 64.1558C171.867 61.9158 172.307 59.9291 173.187 58.1958C174.094 56.4625 175.307 55.1291 176.827 54.1958C178.374 53.2625 180.094 52.7958 181.987 52.7958C183.64 52.7958 185.08 53.1291 186.307 53.7958C187.56 54.4625 188.56 55.3025 189.307 56.3158V53.1558H194.947V75.3158H189.307V72.0758C188.587 73.1158 187.587 73.9825 186.307 74.6758C185.054 75.3425 183.6 75.6758 181.947 75.6758C180.08 75.6758 178.374 75.1958 176.827 74.2358C175.307 73.2758 174.094 71.9291 173.187 70.1958C172.307 68.4358 171.867 66.4225 171.867 64.1558ZM189.307 64.2358C189.307 62.8758 189.04 61.7158 188.507 60.7558C187.974 59.7691 187.254 59.0225 186.347 58.5158C185.44 57.9825 184.467 57.7158 183.427 57.7158C182.387 57.7158 181.427 57.9691 180.547 58.4758C179.667 58.9825 178.947 59.7291 178.387 60.7158C177.854 61.6758 177.587 62.8225 177.587 64.1558C177.587 65.4891 177.854 66.6625 178.387 67.6758C178.947 68.6625 179.667 69.4225 180.547 69.9558C181.454 70.4891 182.414 70.7558 183.427 70.7558C184.467 70.7558 185.44 70.5025 186.347 69.9958C187.254 69.4625 187.974 68.7158 188.507 67.7558C189.04 66.7691 189.307 65.5958 189.307 64.2358ZM206.016 56.5958C206.736 55.4225 207.67 54.5025 208.816 53.8358C209.99 53.1691 211.323 52.8358 212.816 52.8358V58.7158H211.336C209.576 58.7158 208.243 59.1291 207.336 59.9558C206.456 60.7825 206.016 62.2225 206.016 64.2758V75.3158H200.416V53.1558H206.016V56.5958ZM243.239 69.9958H232.119L230.279 75.3158H224.399L234.439 47.3558H240.959L250.999 75.3158H245.079L243.239 69.9958ZM241.719 65.5158L237.679 53.8358L233.639 65.5158H241.719ZM275.112 56.0358C275.112 57.5291 274.752 58.9291 274.032 60.2358C273.339 61.5425 272.232 62.5958 270.712 63.3958C269.219 64.1958 267.326 64.5958 265.032 64.5958H260.352V75.3158H254.752V47.3958H265.032C267.192 47.3958 269.032 47.7691 270.552 48.5158C272.072 49.2625 273.206 50.2891 273.952 51.5958C274.726 52.9025 275.112 54.3825 275.112 56.0358ZM264.792 60.0758C266.339 60.0758 267.486 59.7291 268.232 59.0358C268.979 58.3158 269.352 57.3158 269.352 56.0358C269.352 53.3158 267.832 51.9558 264.792 51.9558H260.352V60.0758H264.792ZM294.848 75.3158L284.688 62.8758V75.3158H279.088V47.3958H284.688V59.9158L294.848 47.3958H301.608L290.088 61.2358L301.928 75.3158H294.848Z" fill="#4E6424"/>
<path d="M433.432 59.2322C432.456 60.2085 432.456 61.7915 433.432 62.7678L449.342 78.6777C450.319 79.654 451.902 79.654 452.878 78.6777C453.854 77.7014 453.854 76.1184 452.878 75.1421L438.736 61L452.878 46.8579C453.854 45.8816 453.854 44.2986 452.878 43.3223C451.902 42.346 450.319 42.346 449.342 43.3223L433.432 59.2322ZM486.2 58.5H435.2V63.5H486.2V58.5Z" fill="white"/>
</svg>
