<svg width="84" height="119" viewBox="0 0 84 119" fill="none" xmlns="http://www.w3.org/2000/svg">
<circle cx="35.0291" cy="83.5694" r="35.0291" fill="url(#paint0_linear_932_1413)"/>
<path d="M63.2699 19.5061C63.3597 19.6032 63.4527 19.6975 63.5485 19.7888C63.6525 19.7069 63.7539 19.6218 63.8525 19.5335C64.0701 17.4065 64.7708 15.4329 65.8389 13.7177C65.5956 12.396 64.9356 11.2122 63.9947 10.3156C62.9736 11.1198 62.2053 12.2363 61.8388 13.5293C62.7411 15.3373 63.2531 17.368 63.2699 19.5061Z" fill="#D5682B"/>
<path d="M63.4798 21.2471C63.5815 21.2366 63.6825 21.2236 63.7828 21.2082C63.7771 20.9056 63.7813 20.6008 63.7958 20.2941C63.8 20.2043 63.8051 20.1147 63.811 20.0253C63.7213 19.9489 63.6337 19.8701 63.5485 19.7888C63.456 19.8617 63.3615 19.932 63.2649 19.9996C63.2624 20.0891 63.2591 20.1788 63.2549 20.2686C63.2404 20.5753 63.216 20.8792 63.1819 21.1799C63.2802 21.2046 63.3796 21.2271 63.4798 21.2471Z" fill="#D5682B"/>
<path d="M63.8525 19.5335C63.7539 19.6218 63.6525 19.7069 63.5485 19.7888C63.6337 19.8701 63.7213 19.9489 63.811 20.0253C63.822 19.8605 63.8358 19.6966 63.8525 19.5335Z" fill="#D5682B"/>
<path d="M63.5485 19.7888C63.4527 19.6975 63.3597 19.6032 63.2699 19.5061C63.2711 19.67 63.2695 19.8345 63.2649 19.9996C63.3615 19.932 63.456 19.8617 63.5485 19.7888Z" fill="#D5682B"/>
<path d="M63.4255 22.4001C63.571 22.4069 63.7159 22.416 63.86 22.4273C63.8198 22.0556 63.7945 21.6797 63.7848 21.3004C63.6823 21.285 63.5806 21.2673 63.4798 21.2471C63.3776 21.2577 63.2747 21.2659 63.1712 21.2714C63.1259 21.6483 63.0654 22.0201 62.9904 22.3863C63.135 22.3886 63.2801 22.3932 63.4255 22.4001Z" fill="#D5682B"/>
<path d="M63.7828 21.2082C63.6825 21.2236 63.5815 21.2366 63.4798 21.2471C63.5806 21.2673 63.6823 21.285 63.7848 21.3004C63.7841 21.2697 63.7834 21.2389 63.7828 21.2082Z" fill="#D5682B"/>
<path d="M63.4798 21.2471C63.3796 21.2271 63.2802 21.2046 63.1819 21.1799C63.1784 21.2104 63.1748 21.241 63.1712 21.2714C63.2747 21.2659 63.3776 21.2577 63.4798 21.2471Z" fill="#D5682B"/>
<path d="M58.8483 19.998C59.0481 20.1524 59.2576 20.2949 59.4758 20.4244C59.7051 20.1428 59.9109 19.8405 60.0899 19.5204C58.902 18.3119 58.201 16.6219 58.2875 14.7846C58.3259 13.9688 58.5162 13.1964 58.8295 12.4942C58.4661 12.0386 58.0743 11.6068 57.6566 11.2016C56.9267 12.1789 56.4702 13.381 56.4082 14.6961C56.3865 15.1565 56.4143 15.6075 56.4868 16.0441C56.5962 16.2727 56.6924 16.5088 56.7742 16.7513C57.6091 17.7247 58.3096 18.8171 58.8483 19.998Z" fill="#243664"/>
<path d="M60.887 16.7212C60.8976 16.4965 60.8964 16.274 60.8839 16.0543C60.3775 14.7616 59.6817 13.5626 58.8295 12.4942C58.5162 13.1964 58.3259 13.9688 58.2875 14.7846C58.201 16.6219 58.902 18.3119 60.0899 19.5204C60.5546 18.6896 60.839 17.7393 60.887 16.7212Z" fill="#243664"/>
<path d="M61.7302 20.7183C61.7621 20.7058 61.7939 20.6931 61.8256 20.6801C61.7781 19.0555 61.4489 17.4966 60.8839 16.0543C60.8964 16.274 60.8976 16.4965 60.887 16.7212C60.839 17.7393 60.5546 18.6896 60.0899 19.5204C60.5651 20.0039 61.1183 20.4103 61.7302 20.7183Z" fill="#243664"/>
<path d="M60.0899 19.5204C59.9109 19.8405 59.7051 20.1428 59.4758 20.4244C59.881 20.6649 60.3162 20.8606 60.7749 21.0043C61.1032 20.9345 61.4224 20.8385 61.7302 20.7183C61.1183 20.4103 60.5651 20.0039 60.0899 19.5204Z" fill="#243664"/>
<path d="M59.4758 20.4244C59.3788 20.5435 59.2777 20.6589 59.1725 20.7703C59.2191 20.8913 59.2639 21.0132 59.3071 21.1358C59.8104 21.1508 60.3021 21.1048 60.7749 21.0043C60.3162 20.8606 59.881 20.6649 59.4758 20.4244Z" fill="#243664"/>
<path d="M61.8308 21.2354C61.8324 21.0785 61.8314 20.9221 61.8278 20.7664C61.7951 20.7507 61.7626 20.7346 61.7302 20.7183C61.4224 20.8385 61.1032 20.9345 60.7749 21.0043C61.1148 21.1108 61.4676 21.1888 61.8308 21.2354Z" fill="#243664"/>
<path d="M61.769 22.4178C61.7897 22.198 61.8054 21.9766 61.8159 21.7537C61.8241 21.5803 61.829 21.4075 61.8308 21.2354C61.4676 21.1888 61.1148 21.1108 60.7749 21.0043C60.3021 21.1048 59.8104 21.1508 59.3071 21.1358C59.4851 21.6411 59.6345 22.1597 59.7534 22.6894C60.4101 22.5499 61.0832 22.4581 61.769 22.4178Z" fill="#243664"/>
<path d="M59.4758 20.4244C59.2576 20.2949 59.0481 20.1524 58.8483 19.998C58.9639 20.2515 59.0721 20.509 59.1725 20.7703C59.2777 20.6589 59.3788 20.5435 59.4758 20.4244Z" fill="#243664"/>
<path d="M67.9258 20.629C67.7124 20.7628 67.4905 20.8839 67.2612 20.9913C67.0592 20.6918 66.8827 20.3739 66.7344 20.0411C68.0302 18.9587 68.8863 17.3554 68.9721 15.5328C69.0103 14.7234 68.8931 13.9428 68.647 13.22C69.0514 12.8041 69.4819 12.4143 69.9356 12.0532C70.5708 13.0868 70.9129 14.3167 70.8514 15.6213C70.8299 16.0779 70.7601 16.5208 70.6471 16.9452C70.5167 17.1607 70.3988 17.3848 70.2947 17.6167C69.3724 18.4999 68.5727 19.5132 67.9258 20.629Z" fill="#243664"/>
<path d="M66.2029 17.202C66.2134 16.9791 66.2354 16.7595 66.2683 16.5437C66.8935 15.3144 67.6985 14.1954 68.647 13.22C68.8931 13.9428 69.0103 14.7234 68.9721 15.5328C68.8863 17.3554 68.0302 18.9587 66.7344 20.0411C66.3495 19.1771 66.1553 18.2119 66.2029 17.202Z" fill="#243664"/>
<path d="M64.9892 21.0706C64.9586 21.0553 64.9281 21.0397 64.8978 21.0239C65.0972 19.4239 65.5708 17.9151 66.2683 16.5437C66.2354 16.7595 66.2134 16.9791 66.2029 17.202C66.1553 18.2119 66.3495 19.1771 66.7344 20.0411C66.216 20.4741 65.6272 20.8237 64.9892 21.0706Z" fill="#243664"/>
<path d="M66.7344 20.0411C66.8827 20.3739 67.0592 20.6918 67.2612 20.9913C66.8352 21.1909 66.3836 21.3434 65.9135 21.4424C65.5932 21.3428 65.2844 21.218 64.9892 21.0706C65.6272 20.8237 66.216 20.4741 66.7344 20.0411Z" fill="#243664"/>
<path d="M67.2612 20.9913C67.3466 21.118 67.4365 21.2414 67.5307 21.3613C67.4731 21.4765 67.417 21.5926 67.3625 21.7097C66.86 21.6774 66.3748 21.586 65.9135 21.4424C66.3836 21.3434 66.8352 21.1909 67.2612 20.9913Z" fill="#243664"/>
<path d="M64.8406 21.5718C64.8537 21.4167 64.8693 21.2624 64.8875 21.1089C64.9215 21.0964 64.9555 21.0836 64.9892 21.0706C65.2844 21.218 65.5932 21.3428 65.9135 21.4424C65.5651 21.5158 65.2066 21.5597 64.8406 21.5718Z" fill="#243664"/>
<path d="M64.7915 22.7453C64.7914 22.5263 64.7965 22.3062 64.8069 22.0851C64.815 21.9131 64.8263 21.742 64.8406 21.5718C65.2066 21.5597 65.5651 21.5158 65.9135 21.4424C66.3748 21.586 66.86 21.6774 67.3625 21.7097C67.138 22.1921 66.9408 22.6902 66.7728 23.2022C66.1321 23.003 65.4704 22.8493 64.7915 22.7453Z" fill="#243664"/>
<path d="M67.2612 20.9913C67.4905 20.8839 67.7124 20.7628 67.9258 20.629C67.787 20.8685 67.6552 21.1127 67.5307 21.3613C67.4365 21.2414 67.3466 21.118 67.2612 20.9913Z" fill="#243664"/>
<path d="M56.9542 27.7207C56.6078 28.5269 56.4294 29.3631 56.4036 30.1902C57.8397 30.287 59.2841 30.6247 60.6817 31.2251C60.7057 31.2354 60.7296 31.2458 60.7535 31.2562L69.9771 30.9941C70.2249 28.1507 68.6511 25.3457 65.8855 24.1575C62.4352 22.6751 58.4365 24.2704 56.9542 27.7207Z" fill="#FDC3AB"/>
<path d="M66.5988 36.295C67.8274 35.5877 68.846 34.4915 69.4487 33.0887C69.7428 32.4041 69.9158 31.698 69.9771 30.9941L60.7535 31.2562C63.259 32.3501 65.2502 34.1369 66.5988 36.295Z" fill="#FDC3AB"/>
<path d="M60.7535 31.2562L56.471 31.3779C56.8004 33.6403 58.2629 35.6834 60.5174 36.652C62.5649 37.5316 64.8055 37.3275 66.5988 36.295C65.2502 34.1369 63.259 32.3501 60.7535 31.2562Z" fill="#FDC3AB"/>
<path d="M60.6817 31.2251C59.2841 30.6247 57.8397 30.287 56.4036 30.1902C56.3911 30.5897 56.4141 30.9871 56.471 31.3779L60.7535 31.2562C60.7296 31.2458 60.7057 31.2354 60.6817 31.2251Z" fill="#FDC3AB"/>
<path d="M55.258 36.4383C55.6504 36.732 56.0115 37.0574 56.3392 37.4093C57.2389 38.1305 58.2498 38.7436 59.3608 39.221C59.7299 39.3795 60.1022 39.5197 60.4767 39.642C62.8361 39.0209 65.3839 39.0538 67.8353 39.8543C67.9321 39.8289 68.0286 39.8023 68.1248 39.7746C67.7878 38.5486 67.2738 37.3753 66.5988 36.295C64.8055 37.3275 62.5649 37.5316 60.5174 36.652C58.2629 35.6834 56.8004 33.6403 56.471 31.3779L52.1752 31.5C52.8142 33.3401 53.8612 35.0347 55.258 36.4383Z" fill="#DB9F47"/>
<path d="M43.151 39.0338C45.1654 35.3822 49.6616 33.7852 53.5737 35.466C54.1849 35.7286 54.7479 36.0566 55.258 36.4383C53.8612 35.0347 52.8142 33.3401 52.1752 31.5C52.0803 31.2269 51.9945 30.9505 51.9178 30.6715C48.2833 31.7177 45.1303 34.3256 43.5209 38.0716C43.384 38.3901 43.2608 38.7111 43.151 39.0338Z" fill="#DB9F47"/>
<path d="M56.471 31.3779C56.4141 30.9871 56.3911 30.5897 56.4036 30.1902C54.8768 30.0873 53.3594 30.2565 51.9178 30.6715C51.9945 30.9505 52.0803 31.2269 52.1752 31.5L56.471 31.3779Z" fill="#DB9F47"/>
<path d="M60.4767 39.642C62.8361 39.0209 65.3839 39.0538 67.8353 39.8543C65.476 40.4754 62.9281 40.4425 60.4767 39.642Z" fill="#DB9F47"/>
<path d="M59.3608 39.221C58.2498 38.7436 57.2389 38.1305 56.3392 37.4093C57.1669 38.2983 57.7814 39.3561 58.1484 40.4971C58.8953 40.1395 59.6751 39.853 60.4767 39.642C60.1022 39.5197 59.7299 39.3795 59.3608 39.221Z" fill="#DB9F47"/>
<path d="M51.4082 48.1206C51.5211 47.7856 51.6484 47.4524 51.7904 47.1219C53.0898 44.0974 55.3955 41.8148 58.1484 40.4971C57.7814 39.3561 57.1669 38.2983 56.3392 37.4093C55.9586 37.1043 55.5979 36.7799 55.258 36.4383C54.7479 36.0566 54.1849 35.7286 53.5737 35.466C49.6616 33.7852 45.1654 35.3822 43.151 39.0338C42.5605 40.7695 42.3572 42.5567 42.5008 44.2937L51.4082 48.1206Z" fill="#D5682B"/>
<path d="M55.5396 49.3552C56.5254 48.5481 57.3373 47.4988 57.875 46.2473C58.6896 44.3514 58.7343 42.3183 58.1484 40.4971C55.3955 41.8148 53.0898 44.0974 51.7904 47.1219C51.6484 47.4524 51.5211 47.7856 51.4082 48.1206L54.1987 49.3195C54.634 49.2335 55.0913 49.2413 55.5396 49.3552Z" fill="#D5682B"/>
<path d="M42.8378 46.3511C43.6486 48.17 45.1196 49.7005 47.0937 50.5486C48.2937 51.0642 49.5486 51.2714 50.7701 51.2054C50.8553 50.1733 51.0652 49.1383 51.4082 48.1206L42.5008 44.2937C42.5583 44.9897 42.6715 45.6777 42.8378 46.3511Z" fill="#D5682B"/>
<path d="M44.0145 49.4107L50.7261 52.2942C50.7255 51.9323 50.74 51.569 50.7701 51.2054C49.5486 51.2714 48.2937 51.0642 47.0937 50.5486C45.1196 49.7005 43.6486 48.17 42.8378 46.3511C43.1007 47.4161 43.4964 48.4446 44.0145 49.4107Z" fill="#4E6424"/>
<path d="M51.7575 52.7374C51.6839 52.2042 51.7502 51.6448 51.9781 51.1142C51.9884 51.0903 51.999 51.0665 52.0098 51.0429C51.6028 51.1282 51.1884 51.1828 50.7701 51.2054C50.74 51.569 50.7255 51.9323 50.7261 52.2942L51.7575 52.7374Z" fill="#4E6424"/>
<path d="M54.1987 49.3195L51.4082 48.1206C51.0652 49.1383 50.8553 50.1733 50.7701 51.2054C51.1884 51.1828 51.6028 51.1282 52.0098 51.0429C52.4344 50.119 53.2659 49.5039 54.1987 49.3195Z" fill="#D5682B"/>
<path d="M55.0861 49.7008L54.1987 49.3195C53.2659 49.5039 52.4344 50.119 52.0098 51.0429C53.1141 50.8116 54.1632 50.3548 55.0861 49.7008Z" fill="#D5682B"/>
<path d="M56.5751 54.8072C57.0125 54.4935 57.3727 54.0604 57.6006 53.5298C58.0146 52.5663 57.8952 51.5077 57.3739 50.6837L55.0861 49.7008C54.1632 50.3548 53.1141 50.8116 52.0098 51.0429C51.999 51.0665 51.9884 51.0903 51.9781 51.1142C51.7502 51.6448 51.6839 52.2042 51.7575 52.7374L56.5751 54.8072Z" fill="#4E6424"/>
<path d="M55.5396 49.3552C55.0913 49.2413 54.634 49.2335 54.1987 49.3195L55.0861 49.7008C55.2409 49.5911 55.3922 49.4759 55.5396 49.3552Z" fill="#D5682B"/>
<path d="M76.5217 32.3745C76.7491 31.8452 76.9388 31.3091 77.092 30.7694L69.9771 30.9941C69.9158 31.698 69.7428 32.4041 69.4487 33.0887C68.846 34.4915 67.8274 35.5877 66.5988 36.295C67.2738 37.3753 67.7878 38.5486 68.1248 39.7746C71.7592 38.7284 74.9123 36.1204 76.5217 32.3745Z" fill="#DB9F47"/>
<path d="M55.258 36.4383C55.6504 36.732 56.0115 37.0574 56.3392 37.4093C55.9586 37.1043 55.5979 36.7799 55.258 36.4383Z" fill="#D5682B"/>
<path d="M77.6197 31.049C77.4821 31.3694 77.1108 31.5175 76.7904 31.3799C76.47 31.2422 76.3219 30.8709 76.4595 30.5505C76.5972 30.2301 76.9685 30.082 77.2889 30.2196C77.6092 30.3573 77.7574 30.7286 77.6197 31.049Z" fill="#4E6424"/>
<defs>
<linearGradient id="paint0_linear_932_1413" x1="14.0116" y1="64.0532" x2="52.5437" y2="118.599" gradientUnits="userSpaceOnUse">
<stop stop-color="#D5682B"/>
<stop offset="1" stop-color="#883E14"/>
</linearGradient>
</defs>
</svg>
