<svg width="1025" height="115" viewBox="0 0 1025 115" fill="none" xmlns="http://www.w3.org/2000/svg">
<mask id="mask0_756_1268" style="mask-type:luminance" maskUnits="userSpaceOnUse" x="0" y="0" width="1025" height="115">
<path d="M1024.11 115H0.113281V0.933678H1024.11V115Z" fill="white"/>
</mask>
<g mask="url(#mask0_756_1268)">
<path d="M1024.11 115H0.112305V0.933495H1024.11V115Z" fill="#FFF9E4"/>
<path d="M877.979 108.498L872.594 113.352C871.907 113.971 870.795 113.971 870.108 113.352L809.601 58.8073C808.915 58.1886 808.915 57.1855 809.601 56.5668L814.986 51.7125C815.672 51.0938 816.785 51.0938 817.472 51.7125L877.979 106.257C878.665 106.876 878.665 107.879 877.979 108.498Z" fill="#243664"/>
<path d="M814.993 63.6365L809.608 58.7822C808.922 58.1635 808.922 57.1604 809.608 56.5417L870.109 2.00258C870.795 1.38389 871.908 1.38389 872.594 2.00258L877.979 6.85694C878.666 7.47563 878.666 8.47872 877.979 9.09741L817.478 63.6365C816.792 64.2552 815.679 64.2552 814.993 63.6365Z" fill="#243664"/>
<path d="M847.106 108.498L841.721 113.352C841.035 113.971 839.922 113.971 839.236 113.352L778.729 58.8073C778.042 58.1886 778.042 57.1855 778.729 56.5668L784.114 51.7125C784.8 51.0938 785.913 51.0938 786.599 51.7125L847.106 106.257C847.793 106.876 847.793 107.879 847.106 108.498Z" fill="#4E6424"/>
<path d="M784.119 63.6365L778.734 58.7822C778.048 58.1635 778.048 57.1604 778.734 56.5417L839.235 2.00258C839.921 1.38389 841.034 1.38389 841.72 2.00258L847.105 6.85694C847.792 7.47563 847.792 8.47872 847.105 9.09741L786.604 63.6365C785.918 64.2552 784.805 64.2552 784.119 63.6365Z" fill="#4E6424"/>
<path d="M824.811 -12.1858L830.196 -7.33142C830.882 -6.71273 830.882 -5.70963 830.196 -5.09094L769.689 49.4538C769.002 50.0725 767.889 50.0725 767.203 49.4538L761.818 44.5994C761.132 43.9807 761.132 42.9776 761.818 42.3589L822.325 -12.1858C823.012 -12.8045 824.124 -12.8045 824.811 -12.1858Z" fill="#DB9F47"/>
<path d="M775.047 44.5946L769.662 49.4489C768.975 50.0676 767.863 50.0676 767.176 49.4489L706.675 -5.09019C705.989 -5.70889 705.989 -6.71198 706.675 -7.33067L712.06 -12.185C712.747 -12.8037 713.859 -12.8037 714.546 -12.185L775.047 42.3541C775.733 42.9728 775.733 43.9759 775.047 44.5946Z" fill="#DB9F47"/>
<path d="M824.811 -39.1183L830.196 -34.2639C830.882 -33.6452 830.882 -32.6421 830.196 -32.0234L769.689 22.5213C769.002 23.14 767.889 23.14 767.203 22.5213L761.818 17.6669C761.132 17.0482 761.132 16.0451 761.818 15.4264L822.325 -39.1183C823.012 -39.737 824.124 -39.737 824.811 -39.1183Z" fill="#D5682B"/>
<path d="M775.047 17.6616L769.662 22.516C768.975 23.1347 767.863 23.1347 767.176 22.516L706.675 -32.0231C705.989 -32.6418 705.989 -33.6449 706.675 -34.2636L712.06 -39.1179C712.747 -39.7366 713.859 -39.7366 714.546 -39.1179L775.047 15.4212C775.733 16.0398 775.733 17.0429 775.047 17.6616Z" fill="#D5682B"/>
<path d="M658.643 6.39928L664.028 1.54492C664.714 0.92623 665.827 0.92623 666.513 1.54492L727.02 56.0896C727.707 56.7083 727.707 57.7114 727.02 58.3301L721.635 63.1845C720.949 63.8032 719.836 63.8032 719.15 63.1845L658.643 8.63975C657.956 8.02106 657.956 7.01797 658.643 6.39928Z" fill="#243664"/>
<path d="M721.628 51.2576L727.013 56.112C727.699 56.7307 727.699 57.7338 727.013 58.3525L666.512 112.892C665.826 113.51 664.713 113.51 664.027 112.892L658.642 108.037C657.955 107.419 657.955 106.415 658.642 105.797L719.143 51.2576C719.829 50.639 720.942 50.639 721.628 51.2576Z" fill="#243664"/>
<path d="M689.514 6.39928L694.899 1.54492C695.585 0.92623 696.698 0.92623 697.384 1.54492L757.892 56.0896C758.578 56.7083 758.578 57.7114 757.892 58.3301L752.507 63.1845C751.82 63.8032 750.707 63.8032 750.021 63.1845L689.514 8.63975C688.828 8.02106 688.828 7.01797 689.514 6.39928Z" fill="#4E6424"/>
<path d="M752.501 51.2576L757.886 56.112C758.573 56.7307 758.573 57.7338 757.886 58.3525L697.385 112.892C696.699 113.51 695.586 113.51 694.9 112.892L689.515 108.037C688.828 107.419 688.828 106.415 689.515 105.797L750.016 51.2576C750.702 50.639 751.815 50.639 752.501 51.2576Z" fill="#4E6424"/>
<path d="M711.805 127.082L706.42 122.227C705.734 121.609 705.734 120.606 706.42 119.987L766.928 65.4422C767.614 64.8235 768.727 64.8236 769.413 65.4422L774.798 70.2966C775.484 70.9153 775.484 71.9184 774.798 72.5371L714.291 127.082C713.605 127.7 712.492 127.7 711.805 127.082Z" fill="#DB9F47"/>
<path d="M761.572 70.3036L766.957 65.4493C767.643 64.8306 768.756 64.8306 769.442 65.4493L829.943 119.988C830.629 120.607 830.629 121.61 829.943 122.229L824.558 127.083C823.872 127.702 822.759 127.702 822.073 127.083L761.572 72.5441C760.885 71.9254 760.885 70.9223 761.572 70.3036Z" fill="#DB9F47"/>
<path d="M711.805 154.015L706.42 149.16C705.734 148.542 705.734 147.538 706.42 146.92L766.928 92.375C767.614 91.7564 768.727 91.7564 769.413 92.375L774.798 97.2294C775.484 97.8481 775.484 98.8512 774.798 99.4699L714.291 154.015C713.605 154.633 712.492 154.633 711.805 154.015Z" fill="#D5682B"/>
<path d="M761.572 97.234L766.957 92.3796C767.643 91.7609 768.756 91.7609 769.442 92.3796L829.943 146.919C830.629 147.537 830.629 148.541 829.943 149.159L824.558 154.014C823.872 154.632 822.759 154.632 822.073 154.014L761.572 99.4745C760.885 98.8558 760.885 97.8527 761.572 97.234Z" fill="#D5682B"/>
<path d="M621.978 108.498L616.593 113.352C615.907 113.971 614.794 113.971 614.108 113.352L553.601 58.8073C552.914 58.1886 552.914 57.1855 553.601 56.5668L558.986 51.7125C559.672 51.0938 560.785 51.0938 561.471 51.7125L621.978 106.257C622.665 106.876 622.665 107.879 621.978 108.498Z" fill="#243664"/>
<path d="M558.994 63.6365L553.609 58.7821C552.923 58.1634 552.923 57.1603 553.609 56.5416L614.11 2.00252C614.796 1.38383 615.909 1.38383 616.595 2.00252L621.98 6.85688C622.667 7.47557 622.667 8.47866 621.98 9.09735L561.479 63.6365C560.793 64.2552 559.68 64.2552 558.994 63.6365Z" fill="#243664"/>
<path d="M591.107 108.498L585.722 113.352C585.036 113.971 583.923 113.971 583.237 113.352L522.73 58.8073C522.043 58.1886 522.043 57.1855 522.73 56.5668L528.115 51.7125C528.801 51.0938 529.914 51.0938 530.6 51.7125L591.107 106.257C591.794 106.876 591.794 107.879 591.107 108.498Z" fill="#4E6424"/>
<path d="M528.118 63.6365L522.733 58.7821C522.047 58.1634 522.047 57.1603 522.733 56.5416L583.234 2.00252C583.92 1.38383 585.033 1.38383 585.719 2.00252L591.104 6.85688C591.791 7.47557 591.791 8.47866 591.104 9.09735L530.603 63.6365C529.917 64.2552 528.804 64.2552 528.118 63.6365Z" fill="#4E6424"/>
<path d="M568.81 -12.1858L574.195 -7.33142C574.881 -6.71273 574.881 -5.70963 574.195 -5.09094L513.688 49.4538C513.001 50.0725 511.888 50.0725 511.202 49.4538L505.817 44.5994C505.131 43.9807 505.131 42.9776 505.817 42.3589L566.324 -12.1858C567.011 -12.8045 568.123 -12.8045 568.81 -12.1858Z" fill="#DB9F47"/>
<path d="M519.047 44.5946L513.662 49.4489C512.975 50.0676 511.863 50.0676 511.176 49.4489L450.675 -5.09019C449.989 -5.70889 449.989 -6.71198 450.675 -7.33067L456.06 -12.185C456.747 -12.8037 457.859 -12.8037 458.546 -12.185L519.047 42.3541C519.733 42.9728 519.733 43.9759 519.047 44.5946Z" fill="#DB9F47"/>
<path d="M568.81 -39.1183L574.195 -34.2639C574.881 -33.6452 574.881 -32.6421 574.195 -32.0234L513.688 22.5213C513.001 23.14 511.888 23.14 511.202 22.5213L505.817 17.6669C505.131 17.0482 505.131 16.0451 505.817 15.4264L566.324 -39.1183C567.011 -39.737 568.123 -39.737 568.81 -39.1183Z" fill="#D5682B"/>
<path d="M519.047 17.6616L513.662 22.516C512.975 23.1347 511.863 23.1347 511.176 22.516L450.675 -32.0231C449.989 -32.6418 449.989 -33.6449 450.675 -34.2636L456.06 -39.1179C456.747 -39.7366 457.859 -39.7366 458.546 -39.1179L519.047 15.4212C519.733 16.0398 519.733 17.0429 519.047 17.6616Z" fill="#D5682B"/>
<path d="M402.634 6.39922L408.019 1.54486C408.705 0.926169 409.818 0.926169 410.504 1.54486L471.012 56.0896C471.698 56.7083 471.698 57.7114 471.012 58.3301L465.627 63.1844C464.94 63.8031 463.828 63.8031 463.141 63.1844L402.634 8.63969C401.948 8.021 401.948 7.01791 402.634 6.39922Z" fill="#243664"/>
<path d="M465.624 51.2576L471.009 56.112C471.696 56.7307 471.696 57.7338 471.009 58.3525L410.508 112.892C409.822 113.51 408.709 113.51 408.023 112.892L402.638 108.037C401.951 107.419 401.951 106.415 402.638 105.797L463.139 51.2576C463.825 50.639 464.938 50.639 465.624 51.2576Z" fill="#243664"/>
<path d="M433.51 6.39922L438.895 1.54486C439.581 0.926169 440.694 0.926169 441.38 1.54486L501.888 56.0896C502.574 56.7083 502.574 57.7114 501.888 58.3301L496.503 63.1844C495.816 63.8031 494.704 63.8031 494.017 63.1844L433.51 8.63969C432.824 8.021 432.824 7.01791 433.51 6.39922Z" fill="#4E6424"/>
<path d="M496.497 51.2576L501.882 56.112C502.569 56.7307 502.569 57.7338 501.882 58.3525L441.381 112.892C440.695 113.51 439.582 113.51 438.896 112.892L433.511 108.037C432.825 107.419 432.825 106.415 433.511 105.797L494.012 51.2576C494.698 50.639 495.811 50.639 496.497 51.2576Z" fill="#4E6424"/>
<path d="M455.807 127.082L450.422 122.227C449.736 121.609 449.736 120.606 450.422 119.987L510.93 65.4422C511.616 64.8235 512.729 64.8236 513.415 65.4422L518.8 70.2966C519.486 70.9153 519.486 71.9184 518.8 72.5371L458.293 127.082C457.606 127.7 456.494 127.7 455.807 127.082Z" fill="#DB9F47"/>
<path d="M505.572 70.3036L510.957 65.4493C511.643 64.8306 512.756 64.8306 513.442 65.4493L573.943 119.988C574.629 120.607 574.629 121.61 573.943 122.229L568.558 127.083C567.872 127.702 566.759 127.702 566.073 127.083L505.572 72.5441C504.885 71.9254 504.885 70.9223 505.572 70.3036Z" fill="#DB9F47"/>
<path d="M455.807 154.015L450.422 149.16C449.736 148.542 449.736 147.538 450.422 146.92L510.93 92.375C511.616 91.7564 512.729 91.7564 513.415 92.375L518.8 97.2294C519.486 97.8481 519.486 98.8512 518.8 99.4699L458.293 154.015C457.606 154.633 456.494 154.633 455.807 154.015Z" fill="#D5682B"/>
<path d="M505.572 97.234L510.957 92.3796C511.643 91.7609 512.756 91.7609 513.442 92.3796L573.943 146.919C574.629 147.537 574.629 148.541 573.943 149.159L568.558 154.014C567.872 154.632 566.759 154.632 566.073 154.014L505.572 99.4745C504.885 98.8558 504.885 97.8527 505.572 97.234Z" fill="#D5682B"/>
<path d="M365.979 108.498L360.594 113.352C359.908 113.971 358.795 113.971 358.109 113.352L297.602 58.8073C296.915 58.1886 296.915 57.1855 297.602 56.5668L302.987 51.7125C303.673 51.0938 304.786 51.0938 305.472 51.7125L365.979 106.257C366.666 106.876 366.666 107.879 365.979 108.498Z" fill="#243664"/>
<path d="M302.993 63.6365L297.608 58.7821C296.922 58.1634 296.922 57.1603 297.608 56.5416L358.109 2.00252C358.795 1.38383 359.908 1.38383 360.594 2.00252L365.979 6.85687C366.666 7.47556 366.666 8.47865 365.979 9.09734L305.478 63.6365C304.792 64.2551 303.679 64.2551 302.993 63.6365Z" fill="#243664"/>
<path d="M335.107 108.498L329.722 113.352C329.036 113.971 327.923 113.971 327.237 113.352L266.73 58.8073C266.043 58.1886 266.043 57.1855 266.73 56.5668L272.115 51.7125C272.801 51.0938 273.914 51.0938 274.6 51.7125L335.107 106.257C335.794 106.876 335.794 107.879 335.107 108.498Z" fill="#4E6424"/>
<path d="M272.118 63.6365L266.733 58.7821C266.047 58.1634 266.047 57.1603 266.733 56.5416L327.234 2.00252C327.92 1.38383 329.033 1.38383 329.719 2.00252L335.104 6.85688C335.791 7.47557 335.791 8.47866 335.104 9.09735L274.603 63.6365C273.917 64.2552 272.804 64.2552 272.118 63.6365Z" fill="#4E6424"/>
<path d="M312.811 -12.1858L318.196 -7.33142C318.882 -6.71273 318.882 -5.70963 318.196 -5.09094L257.689 49.4538C257.002 50.0725 255.889 50.0725 255.203 49.4538L249.818 44.5994C249.132 43.9807 249.132 42.9776 249.818 42.3589L310.325 -12.1858C311.012 -12.8045 312.124 -12.8045 312.811 -12.1858Z" fill="#DB9F47"/>
<path d="M263.046 44.5946L257.661 49.4489C256.974 50.0676 255.862 50.0676 255.175 49.4489L194.674 -5.09019C193.988 -5.70889 193.988 -6.71198 194.674 -7.33067L200.059 -12.185C200.746 -12.8037 201.858 -12.8037 202.545 -12.185L263.046 42.3541C263.732 42.9728 263.732 43.9759 263.046 44.5946Z" fill="#DB9F47"/>
<path d="M312.811 -39.1183L318.196 -34.2639C318.882 -33.6452 318.882 -32.6421 318.196 -32.0234L257.689 22.5213C257.002 23.14 255.889 23.14 255.203 22.5213L249.818 17.6669C249.132 17.0482 249.132 16.0451 249.818 15.4264L310.325 -39.1183C311.012 -39.737 312.124 -39.737 312.811 -39.1183Z" fill="#D5682B"/>
<path d="M263.046 17.6616L257.661 22.516C256.974 23.1347 255.862 23.1347 255.175 22.516L194.674 -32.0231C193.988 -32.6418 193.988 -33.6449 194.674 -34.2636L200.059 -39.1179C200.746 -39.7366 201.858 -39.7366 202.545 -39.1179L263.046 15.4212C263.732 16.0398 263.732 17.0429 263.046 17.6616Z" fill="#D5682B"/>
<path d="M146.635 6.39922L152.02 1.54486C152.706 0.926169 153.819 0.926169 154.505 1.54486L215.013 56.0896C215.699 56.7083 215.699 57.7114 215.013 58.3301L209.628 63.1844C208.941 63.8031 207.829 63.8031 207.142 63.1844L146.635 8.63969C145.949 8.021 145.949 7.01791 146.635 6.39922Z" fill="#243664"/>
<path d="M209.623 51.2576L215.008 56.112C215.695 56.7307 215.695 57.7338 215.008 58.3525L154.507 112.892C153.821 113.51 152.708 113.51 152.022 112.892L146.637 108.037C145.951 107.419 145.951 106.415 146.637 105.797L207.138 51.2576C207.824 50.639 208.937 50.639 209.623 51.2576Z" fill="#243664"/>
<path d="M177.509 6.39922L182.894 1.54486C183.58 0.926169 184.693 0.926169 185.379 1.54486L245.887 56.0896C246.573 56.7083 246.573 57.7114 245.887 58.3301L240.502 63.1844C239.815 63.8031 238.703 63.8031 238.016 63.1844L177.509 8.63969C176.823 8.021 176.823 7.01791 177.509 6.39922Z" fill="#4E6424"/>
<path d="M240.497 51.2576L245.882 56.112C246.569 56.7307 246.569 57.7338 245.882 58.3525L185.381 112.892C184.695 113.51 183.582 113.51 182.896 112.892L177.511 108.037C176.825 107.419 176.825 106.415 177.511 105.797L238.012 51.2576C238.698 50.639 239.811 50.639 240.497 51.2576Z" fill="#4E6424"/>
<path d="M199.807 127.082L194.422 122.227C193.736 121.609 193.736 120.606 194.422 119.987L254.93 65.4422C255.616 64.8235 256.729 64.8236 257.415 65.4422L262.8 70.2966C263.486 70.9153 263.486 71.9184 262.8 72.5371L202.293 127.082C201.606 127.7 200.494 127.7 199.807 127.082Z" fill="#DB9F47"/>
<path d="M249.572 70.3036L254.958 65.4493C255.644 64.8306 256.757 64.8306 257.443 65.4493L317.944 119.988C318.63 120.607 318.63 121.61 317.944 122.229L312.559 127.083C311.873 127.702 310.76 127.702 310.074 127.083L249.572 72.5441C248.886 71.9254 248.886 70.9223 249.572 70.3036Z" fill="#DB9F47"/>
<path d="M199.807 154.015L194.422 149.16C193.736 148.542 193.736 147.538 194.422 146.92L254.93 92.375C255.616 91.7564 256.729 91.7564 257.415 92.375L262.8 97.2294C263.486 97.8481 263.486 98.8512 262.8 99.4699L202.293 154.015C201.606 154.633 200.494 154.633 199.807 154.015Z" fill="#D5682B"/>
<path d="M249.572 97.234L254.958 92.3796C255.644 91.7609 256.757 91.7609 257.443 92.3796L317.944 146.919C318.63 147.537 318.63 148.541 317.944 149.159L312.559 154.014C311.873 154.632 310.76 154.632 310.074 154.014L249.572 99.4745C248.886 98.8558 248.886 97.8527 249.572 97.234Z" fill="#D5682B"/>
<path d="M109.98 108.498L104.595 113.352C103.909 113.971 102.796 113.971 102.11 113.352L41.6026 58.8073C40.9163 58.1886 40.9163 57.1855 41.6026 56.5668L46.9876 51.7125C47.6739 51.0938 48.7867 51.0938 49.473 51.7125L109.98 106.257C110.667 106.876 110.667 107.879 109.98 108.498Z" fill="#243664"/>
<path d="M46.9959 63.6365L41.6109 58.7821C40.9245 58.1634 40.9245 57.1603 41.6109 56.5416L102.112 2.00252C102.798 1.38383 103.911 1.38383 104.597 2.00252L109.982 6.85688C110.669 7.47557 110.669 8.47866 109.982 9.09735L49.4813 63.6365C48.7949 64.2552 47.6822 64.2552 46.9959 63.6365Z" fill="#243664"/>
<path d="M79.1082 108.498L73.7232 113.352C73.0368 113.971 71.9241 113.971 71.2378 113.352L10.7305 58.8073C10.0442 58.1886 10.0442 57.1855 10.7305 56.5668L16.1156 51.7125C16.8019 51.0938 17.9146 51.0938 18.6009 51.7125L79.1082 106.257C79.7945 106.876 79.7945 107.879 79.1082 108.498Z" fill="#4E6424"/>
<path d="M16.1189 63.6365L10.7339 58.7821C10.0476 58.1634 10.0476 57.1603 10.7339 56.5416L71.2349 2.00252C71.9213 1.38383 73.034 1.38383 73.7203 2.00252L79.1053 6.85688C79.7917 7.47557 79.7917 8.47866 79.1053 9.09735L18.6043 63.6365C17.918 64.2552 16.8052 64.2552 16.1189 63.6365Z" fill="#4E6424"/>
<path d="M56.8098 -12.1858L62.1948 -7.33142C62.8811 -6.71273 62.8811 -5.70963 62.1948 -5.09094L1.68755 49.4538C1.00123 50.0725 -0.111521 50.0725 -0.797842 49.4538L-6.18285 44.5994C-6.86918 43.9807 -6.86918 42.9776 -6.18285 42.3589L54.3244 -12.1858C55.0107 -12.8045 56.1235 -12.8045 56.8098 -12.1858Z" fill="#DB9F47"/>
<path d="M7.0447 44.5946L1.65969 49.4489C0.973366 50.0676 -0.139381 50.0676 -0.825703 49.4489L-61.3267 -5.09019C-62.0131 -5.70889 -62.0131 -6.71198 -61.3267 -7.33067L-55.9417 -12.185C-55.2554 -12.8037 -54.1427 -12.8037 -53.4563 -12.185L7.0447 42.3541C7.73102 42.9728 7.73102 43.9759 7.0447 44.5946Z" fill="#DB9F47"/>
<path d="M56.8098 -39.1183L62.1948 -34.2639C62.8811 -33.6452 62.8811 -32.6421 62.1948 -32.0234L1.68755 22.5213C1.00123 23.14 -0.111521 23.14 -0.797842 22.5213L-6.18285 17.6669C-6.86918 17.0482 -6.86918 16.0451 -6.18285 15.4264L54.3244 -39.1183C55.0107 -39.737 56.1235 -39.737 56.8098 -39.1183Z" fill="#D5682B"/>
<path d="M7.0447 17.6616L1.65969 22.516C0.973366 23.1347 -0.139381 23.1347 -0.825703 22.516L-61.3267 -32.0231C-62.0131 -32.6418 -62.0131 -33.6449 -61.3267 -34.2636L-55.9417 -39.1179C-55.2554 -39.7366 -54.1427 -39.7366 -53.4563 -39.1179L7.0447 15.4212C7.73102 16.0398 7.73102 17.0429 7.0447 17.6616Z" fill="#D5682B"/>
<path d="M-56.1936 127.082L-61.5786 122.227C-62.2649 121.609 -62.2649 120.606 -61.5786 119.987L-1.07136 65.4422C-0.385034 64.8235 0.727709 64.8236 1.41403 65.4422L6.79904 70.2966C7.48536 70.9153 7.48537 71.9184 6.79904 72.5371L-53.7082 127.082C-54.3945 127.7 -55.5073 127.7 -56.1936 127.082Z" fill="#DB9F47"/>
<path d="M-6.42849 70.3036L-1.04348 65.4493C-0.357155 64.8306 0.755592 64.8306 1.44191 65.4493L61.9429 119.988C62.6293 120.607 62.6293 121.61 61.9429 122.229L56.5579 127.083C55.8716 127.702 54.7589 127.702 54.0725 127.083L-6.42849 72.5441C-7.11481 71.9254 -7.11481 70.9223 -6.42849 70.3036Z" fill="#DB9F47"/>
<path d="M-56.1936 154.015L-61.5786 149.16C-62.2649 148.542 -62.2649 147.538 -61.5786 146.92L-1.07136 92.375C-0.385034 91.7564 0.727709 91.7564 1.41403 92.375L6.79904 97.2294C7.48536 97.8481 7.48537 98.8512 6.79904 99.4699L-53.7082 154.015C-54.3945 154.633 -55.5073 154.633 -56.1936 154.015Z" fill="#D5682B"/>
<path d="M-6.42849 97.234L-1.04348 92.3796C-0.357155 91.7609 0.755592 91.7609 1.44191 92.3796L61.9429 146.919C62.6293 147.537 62.6293 148.541 61.9429 149.159L56.5579 154.014C55.8716 154.632 54.7589 154.632 54.0725 154.014L-6.42849 99.4745C-7.11481 98.8558 -7.11481 97.8527 -6.42849 97.234Z" fill="#D5682B"/>
<path d="M1080.81 -12.1858L1086.2 -7.33142C1086.88 -6.71273 1086.88 -5.70963 1086.2 -5.09094L1025.69 49.4538C1025 50.0725 1023.89 50.0725 1023.2 49.4538L1017.82 44.5994C1017.13 43.9807 1017.13 42.9776 1017.82 42.3589L1078.33 -12.1858C1079.01 -12.8045 1080.12 -12.8045 1080.81 -12.1858Z" fill="#DB9F47"/>
<path d="M1031.05 44.5946L1025.66 49.4489C1024.97 50.0676 1023.86 50.0676 1023.18 49.4489L962.674 -5.09019C961.988 -5.70889 961.988 -6.71198 962.674 -7.33067L968.059 -12.185C968.746 -12.8037 969.858 -12.8037 970.545 -12.185L1031.05 42.3541C1031.73 42.9728 1031.73 43.9759 1031.05 44.5946Z" fill="#DB9F47"/>
<path d="M1080.81 -39.1183L1086.2 -34.2639C1086.88 -33.6452 1086.88 -32.6421 1086.2 -32.0234L1025.69 22.5213C1025 23.14 1023.89 23.14 1023.2 22.5213L1017.82 17.6669C1017.13 17.0482 1017.13 16.0451 1017.82 15.4264L1078.33 -39.1183C1079.01 -39.737 1080.12 -39.737 1080.81 -39.1183Z" fill="#D5682B"/>
<path d="M1031.05 17.6616L1025.66 22.516C1024.97 23.1347 1023.86 23.1347 1023.18 22.516L962.674 -32.0231C961.988 -32.6418 961.988 -33.6449 962.674 -34.2636L968.059 -39.1179C968.746 -39.7366 969.858 -39.7366 970.545 -39.1179L1031.05 15.4212C1031.73 16.0398 1031.73 17.0429 1031.05 17.6616Z" fill="#D5682B"/>
<path d="M914.634 6.39928L920.019 1.54492C920.705 0.92623 921.818 0.92623 922.504 1.54492L983.012 56.0896C983.698 56.7083 983.698 57.7114 983.012 58.3301L977.627 63.1845C976.94 63.8032 975.828 63.8032 975.141 63.1845L914.634 8.63975C913.948 8.02106 913.948 7.01797 914.634 6.39928Z" fill="#243664"/>
<path d="M977.628 51.2576L983.013 56.112C983.699 56.7307 983.699 57.7338 983.013 58.3525L922.512 112.892C921.826 113.51 920.713 113.51 920.027 112.892L914.642 108.037C913.955 107.419 913.955 106.415 914.642 105.797L975.143 51.2576C975.829 50.639 976.942 50.639 977.628 51.2576Z" fill="#243664"/>
<path d="M945.512 6.39928L950.897 1.54492C951.584 0.92623 952.697 0.92623 953.383 1.54492L1013.89 56.0896C1014.58 56.7083 1014.58 57.7114 1013.89 58.3301L1008.51 63.1845C1007.82 63.8032 1006.71 63.8032 1006.02 63.1845L945.512 8.63975C944.826 8.02106 944.826 7.01797 945.512 6.39928Z" fill="#4E6424"/>
<path d="M1008.5 51.2576L1013.89 56.112C1014.57 56.7307 1014.57 57.7338 1013.89 58.3525L953.384 112.892C952.698 113.51 951.585 113.51 950.899 112.892L945.514 108.037C944.827 107.419 944.827 106.415 945.514 105.797L1006.01 51.2576C1006.7 50.639 1007.81 50.639 1008.5 51.2576Z" fill="#4E6424"/>
<path d="M967.807 127.082L962.422 122.227C961.736 121.609 961.736 120.606 962.422 119.987L1022.93 65.4422C1023.62 64.8235 1024.73 64.8236 1025.41 65.4422L1030.8 70.2966C1031.49 70.9153 1031.49 71.9184 1030.8 72.5371L970.292 127.082C969.606 127.7 968.493 127.7 967.807 127.082Z" fill="#DB9F47"/>
<path d="M1017.57 70.3036L1022.96 65.4493C1023.64 64.8306 1024.76 64.8306 1025.44 65.4493L1085.94 119.988C1086.63 120.607 1086.63 121.61 1085.94 122.229L1080.56 127.083C1079.87 127.702 1078.76 127.702 1078.07 127.083L1017.57 72.5441C1016.89 71.9254 1016.89 70.9223 1017.57 70.3036Z" fill="#DB9F47"/>
<path d="M967.807 154.015L962.422 149.16C961.736 148.542 961.736 147.538 962.422 146.92L1022.93 92.375C1023.62 91.7564 1024.73 91.7564 1025.41 92.375L1030.8 97.2294C1031.49 97.8481 1031.49 98.8512 1030.8 99.4699L970.292 154.015C969.606 154.633 968.493 154.633 967.807 154.015Z" fill="#D5682B"/>
<path d="M1017.57 97.234L1022.96 92.3796C1023.64 91.7609 1024.76 91.7609 1025.44 92.3796L1085.94 146.919C1086.63 147.537 1086.63 148.541 1085.94 149.159L1080.56 154.014C1079.87 154.632 1078.76 154.632 1078.07 154.014L1017.57 99.4745C1016.89 98.8558 1016.89 97.8527 1017.57 97.234Z" fill="#D5682B"/>
<path d="M1086.8 117.717H-95.374V107.683H1086.8V117.717Z" fill="#243664"/>
<path d="M1086.8 10.9675H-95.374V0.93392H1086.8V10.9675Z" fill="#243664"/>
</g>
</svg>
