<svg width="3418" height="367" viewBox="0 0 3418 367" fill="none" xmlns="http://www.w3.org/2000/svg">
<mask id="mask0_1572_1544" style="mask-type:luminance" maskUnits="userSpaceOnUse" x="0" y="0" width="3418" height="367">
<path d="M3417.5 0H0V367H3417.5V0Z" fill="white"/>
</mask>
<g mask="url(#mask0_1572_1544)">
<path d="M3417.5 0H0V367H3417.5V0Z" fill="#FFF9E4"/>
<path d="M2929.79 20.9191L2911.82 5.30057C2909.53 3.30998 2905.81 3.30998 2903.52 5.30057L2701.58 180.794C2699.29 182.785 2699.29 186.012 2701.58 188.003L2719.56 203.621C2721.85 205.612 2725.56 205.612 2727.85 203.621L2929.79 28.1277C2932.08 26.1371 2932.08 22.9097 2929.79 20.9191Z" fill="#243664"/>
<path d="M2719.58 165.256L2701.61 180.875C2699.32 182.865 2699.32 186.093 2701.61 188.083L2903.52 363.559C2905.81 365.549 2909.53 365.549 2911.82 363.559L2929.79 347.94C2932.08 345.95 2932.08 342.722 2929.79 340.732L2727.87 165.256C2725.58 163.266 2721.87 163.266 2719.58 165.256Z" fill="#243664"/>
<path d="M2826.76 20.9191L2808.78 5.30057C2806.49 3.30998 2802.78 3.30998 2800.49 5.30057L2598.55 180.794C2596.26 182.785 2596.26 186.012 2598.55 188.003L2616.52 203.621C2618.81 205.612 2622.53 205.612 2624.82 203.621L2826.76 28.1277C2829.05 26.1371 2829.05 22.9097 2826.76 20.9191Z" fill="#4E6424"/>
<path d="M2616.54 165.256L2598.57 180.875C2596.28 182.865 2596.28 186.093 2598.57 188.083L2800.48 363.559C2802.77 365.549 2806.49 365.549 2808.78 363.559L2826.75 347.94C2829.04 345.95 2829.04 342.722 2826.75 340.732L2624.83 165.256C2622.54 163.266 2618.83 163.266 2616.54 165.256Z" fill="#4E6424"/>
<path d="M2752.34 409.209L2770.31 393.59C2772.6 391.6 2772.6 388.372 2770.31 386.382L2568.38 210.888C2566.09 208.897 2562.37 208.897 2560.08 210.888L2542.11 226.507C2539.82 228.497 2539.82 231.724 2542.11 233.715L2744.05 409.209C2746.34 411.199 2750.05 411.199 2752.34 409.209Z" fill="#DB9F47"/>
<path d="M2586.26 226.523L2568.29 210.904C2566 208.913 2562.28 208.913 2559.99 210.904L2358.08 386.38C2355.79 388.37 2355.79 391.598 2358.08 393.588L2376.05 409.207C2378.34 411.197 2382.05 411.197 2384.34 409.207L2586.26 233.731C2588.55 231.741 2588.55 228.513 2586.26 226.523Z" fill="#DB9F47"/>
<path d="M2752.34 495.861L2770.31 480.242C2772.6 478.251 2772.6 475.024 2770.31 473.033L2568.38 297.54C2566.09 295.549 2562.37 295.549 2560.08 297.54L2542.11 313.158C2539.82 315.149 2539.82 318.376 2542.11 320.367L2744.05 495.861C2746.34 497.851 2750.05 497.851 2752.34 495.861Z" fill="#D5682B"/>
<path d="M2586.26 313.177L2568.29 297.559C2566 295.568 2562.28 295.568 2559.99 297.559L2358.08 473.034C2355.79 475.025 2355.79 478.252 2358.08 480.243L2376.05 495.862C2378.34 497.852 2382.05 497.852 2384.34 495.862L2586.26 320.386C2588.55 318.395 2588.55 315.168 2586.26 313.177Z" fill="#D5682B"/>
<path d="M2197.78 349.412L2215.75 365.03C2218.04 367.021 2221.76 367.021 2224.05 365.03L2425.99 189.537C2428.28 187.546 2428.28 184.319 2425.99 182.328L2408.01 166.71C2405.72 164.719 2402.01 164.719 2399.72 166.71L2197.78 342.203C2195.49 344.194 2195.49 347.421 2197.78 349.412Z" fill="#243664"/>
<path d="M2407.98 205.082L2425.95 189.463C2428.24 187.473 2428.24 184.245 2425.95 182.255L2224.03 6.77905C2221.74 4.78845 2218.03 4.78845 2215.74 6.77904L2197.77 22.3976C2195.48 24.3882 2195.48 27.6156 2197.77 29.6061L2399.68 205.082C2401.97 207.072 2405.69 207.072 2407.98 205.082Z" fill="#243664"/>
<path d="M2300.8 349.412L2318.77 365.03C2321.07 367.021 2324.78 367.021 2327.07 365.03L2529.01 189.537C2531.3 187.546 2531.3 184.319 2529.01 182.328L2511.03 166.71C2508.74 164.719 2505.03 164.719 2502.74 166.71L2300.8 342.203C2298.51 344.194 2298.51 347.421 2300.8 349.412Z" fill="#4E6424"/>
<path d="M2511.02 205.082L2528.99 189.463C2531.28 187.473 2531.28 184.245 2528.99 182.255L2327.07 6.77905C2324.78 4.78845 2321.07 4.78845 2318.78 6.77904L2300.81 22.3976C2298.52 24.3882 2298.52 27.6156 2300.81 29.6061L2502.72 205.082C2505.01 207.072 2508.73 207.072 2511.02 205.082Z" fill="#4E6424"/>
<path d="M2375.2 -38.873L2357.23 -23.2544C2354.94 -21.2638 2354.94 -18.0365 2357.23 -16.0459L2559.16 159.448C2561.45 161.438 2565.17 161.438 2567.46 159.448L2585.43 143.829C2587.72 141.839 2587.72 138.611 2585.43 136.621L2383.49 -38.873C2381.2 -40.8636 2377.49 -40.8636 2375.2 -38.873Z" fill="#DB9F47"/>
<path d="M2541.29 143.803L2559.27 159.422C2561.56 161.412 2565.27 161.412 2567.56 159.422L2769.48 -16.0537C2771.77 -18.0443 2771.77 -21.2717 2769.48 -23.2623L2751.51 -38.8808C2749.22 -40.8714 2745.5 -40.8714 2743.21 -38.8808L2541.29 136.595C2539 138.585 2539 141.813 2541.29 143.803Z" fill="#DB9F47"/>
<path d="M2375.2 -125.53L2357.23 -109.911C2354.94 -107.921 2354.94 -104.693 2357.23 -102.703L2559.16 72.7909C2561.45 74.7815 2565.17 74.7815 2567.46 72.7909L2585.43 57.1724C2587.72 55.1818 2587.72 51.9544 2585.43 49.9638L2383.49 -125.53C2381.2 -127.52 2377.49 -127.52 2375.2 -125.53Z" fill="#D5682B"/>
<path d="M2541.29 57.1583L2559.27 72.7768C2561.56 74.7674 2565.27 74.7674 2567.56 72.7768L2769.48 -102.699C2771.77 -104.689 2771.77 -107.917 2769.48 -109.907L2751.51 -125.526C2749.22 -127.516 2745.5 -127.516 2743.21 -125.526L2541.29 49.9497C2539 51.9403 2539 55.1677 2541.29 57.1583Z" fill="#D5682B"/>
<path d="M2075.41 20.9191L2057.44 5.30057C2055.15 3.30998 2051.44 3.30998 2049.15 5.30057L1847.21 180.794C1844.92 182.785 1844.92 186.012 1847.21 188.003L1865.18 203.621C1867.47 205.612 1871.19 205.612 1873.48 203.621L2075.41 28.1277C2077.7 26.1371 2077.7 22.9097 2075.41 20.9191Z" fill="#243664"/>
<path d="M1865.21 165.256L1847.24 180.875C1844.95 182.865 1844.95 186.093 1847.24 188.083L2049.15 363.559C2051.44 365.549 2055.16 365.549 2057.45 363.559L2075.42 347.94C2077.71 345.95 2077.71 342.722 2075.42 340.732L1873.5 165.256C1871.21 163.266 1867.5 163.266 1865.21 165.256Z" fill="#243664"/>
<path d="M1972.39 20.9191L1954.42 5.30057C1952.13 3.30998 1948.41 3.30998 1946.12 5.30057L1744.19 180.794C1741.89 182.785 1741.89 186.012 1744.19 188.003L1762.16 203.621C1764.45 205.612 1768.16 205.612 1770.45 203.621L1972.39 28.1277C1974.68 26.1371 1974.68 22.9097 1972.39 20.9191Z" fill="#4E6424"/>
<path d="M1762.17 165.256L1744.19 180.875C1741.9 182.865 1741.9 186.093 1744.19 188.083L1946.11 363.559C1948.4 365.549 1952.11 365.549 1954.4 363.559L1972.38 347.94C1974.67 345.95 1974.67 342.722 1972.38 340.732L1770.46 165.256C1768.17 163.266 1764.46 163.266 1762.17 165.256Z" fill="#4E6424"/>
<path d="M1897.97 409.209L1915.94 393.59C1918.23 391.6 1918.23 388.372 1915.94 386.382L1714.01 210.888C1711.72 208.897 1708 208.897 1705.71 210.888L1687.74 226.507C1685.45 228.497 1685.45 231.724 1687.74 233.715L1889.68 409.209C1891.97 411.199 1895.68 411.199 1897.97 409.209Z" fill="#DB9F47"/>
<path d="M1731.89 226.523L1713.92 210.904C1711.63 208.913 1707.91 208.913 1705.62 210.904L1503.71 386.38C1501.42 388.37 1501.42 391.598 1503.71 393.588L1521.68 409.207C1523.97 411.197 1527.68 411.197 1529.97 409.207L1731.89 233.731C1734.18 231.741 1734.18 228.513 1731.89 226.523Z" fill="#DB9F47"/>
<path d="M1897.97 495.861L1915.94 480.242C1918.23 478.251 1918.23 475.024 1915.94 473.033L1714.01 297.54C1711.72 295.549 1708 295.549 1705.71 297.54L1687.74 313.158C1685.45 315.149 1685.45 318.376 1687.74 320.367L1889.68 495.861C1891.97 497.851 1895.68 497.851 1897.97 495.861Z" fill="#D5682B"/>
<path d="M1731.89 313.177L1713.92 297.559C1711.63 295.568 1707.91 295.568 1705.62 297.559L1503.71 473.034C1501.42 475.025 1501.42 478.252 1503.71 480.243L1521.68 495.862C1523.97 497.852 1527.68 497.852 1529.97 495.862L1731.89 320.386C1734.18 318.395 1734.18 315.168 1731.89 313.177Z" fill="#D5682B"/>
<path d="M1343.38 349.412L1361.35 365.03C1363.64 367.021 1367.35 367.021 1369.64 365.03L1571.58 189.537C1573.87 187.546 1573.87 184.319 1571.58 182.328L1553.61 166.71C1551.32 164.719 1547.6 164.719 1545.31 166.71L1343.38 342.203C1341.09 344.194 1341.09 347.421 1343.38 349.412Z" fill="#243664"/>
<path d="M1553.6 205.082L1571.57 189.463C1573.86 187.473 1573.86 184.245 1571.57 182.255L1369.65 6.77905C1367.36 4.78845 1363.65 4.78845 1361.36 6.77904L1343.38 22.3976C1341.09 24.3882 1341.09 27.6156 1343.38 29.6061L1545.3 205.082C1547.59 207.072 1551.3 207.072 1553.6 205.082Z" fill="#243664"/>
<path d="M1446.42 349.412L1464.39 365.03C1466.68 367.021 1470.39 367.021 1472.69 365.03L1674.62 189.537C1676.91 187.546 1676.91 184.319 1674.62 182.328L1656.65 166.71C1654.36 164.719 1650.65 164.719 1648.36 166.71L1446.42 342.203C1444.13 344.194 1444.13 347.421 1446.42 349.412Z" fill="#4E6424"/>
<path d="M1656.63 205.082L1674.6 189.463C1676.89 187.473 1676.89 184.245 1674.6 182.255L1472.69 6.77905C1470.39 4.78845 1466.68 4.78845 1464.39 6.77904L1446.42 22.3976C1444.13 24.3882 1444.13 27.6156 1446.42 29.6061L1648.33 205.082C1650.63 207.072 1654.34 207.072 1656.63 205.082Z" fill="#4E6424"/>
<path d="M1520.84 -38.873L1502.87 -23.2544C1500.58 -21.2638 1500.58 -18.0365 1502.87 -16.0459L1704.81 159.448C1707.1 161.438 1710.81 161.438 1713.1 159.448L1731.07 143.829C1733.36 141.839 1733.36 138.611 1731.07 136.621L1529.14 -38.873C1526.85 -40.8636 1523.13 -40.8636 1520.84 -38.873Z" fill="#DB9F47"/>
<path d="M1686.92 143.803L1704.9 159.422C1707.19 161.412 1710.9 161.412 1713.19 159.422L1915.11 -16.0537C1917.4 -18.0443 1917.4 -21.2717 1915.11 -23.2623L1897.13 -38.8808C1894.84 -40.8714 1891.13 -40.8714 1888.84 -38.8808L1686.92 136.595C1684.63 138.585 1684.63 141.813 1686.92 143.803Z" fill="#DB9F47"/>
<path d="M1520.84 -125.53L1502.87 -109.911C1500.58 -107.921 1500.58 -104.693 1502.87 -102.703L1704.81 72.7909C1707.1 74.7815 1710.81 74.7815 1713.1 72.7909L1731.07 57.1724C1733.36 55.1818 1733.36 51.9544 1731.07 49.9638L1529.14 -125.53C1526.85 -127.52 1523.13 -127.52 1520.84 -125.53Z" fill="#D5682B"/>
<path d="M1686.92 57.1583L1704.9 72.7768C1707.19 74.7674 1710.9 74.7674 1713.19 72.7768L1915.11 -102.699C1917.4 -104.689 1917.4 -107.917 1915.11 -109.907L1897.13 -125.526C1894.84 -127.516 1891.13 -127.516 1888.84 -125.526L1686.92 49.9497C1684.63 51.9403 1684.63 55.1677 1686.92 57.1583Z" fill="#D5682B"/>
<path d="M1221.04 20.9191L1203.07 5.30057C1200.78 3.30998 1197.06 3.30998 1194.77 5.30057L992.837 180.794C990.546 182.785 990.546 186.012 992.837 188.003L1010.81 203.621C1013.1 205.612 1016.81 205.612 1019.1 203.621L1221.04 28.1277C1223.33 26.1371 1223.33 22.9097 1221.04 20.9191Z" fill="#243664"/>
<path d="M1010.84 165.256L992.863 180.875C990.573 182.865 990.573 186.093 992.863 188.083L1194.78 363.559C1197.07 365.549 1200.78 365.549 1203.07 363.559L1221.05 347.94C1223.34 345.95 1223.34 342.722 1221.05 340.732L1019.13 165.256C1016.84 163.266 1013.13 163.266 1010.84 165.256Z" fill="#243664"/>
<path d="M1118.01 20.9191L1100.03 5.30057C1097.74 3.30998 1094.03 3.30998 1091.74 5.30057L889.803 180.794C887.513 182.785 887.513 186.012 889.803 188.003L907.775 203.621C910.066 205.612 913.779 205.612 916.07 203.621L1118.01 28.1277C1120.3 26.1371 1120.3 22.9097 1118.01 20.9191Z" fill="#4E6424"/>
<path d="M907.787 165.256L889.815 180.875C887.524 182.865 887.524 186.093 889.815 188.083L1091.73 363.559C1094.02 365.549 1097.74 365.549 1100.03 363.559L1118 347.94C1120.29 345.95 1120.29 342.722 1118 340.732L916.082 165.256C913.791 163.266 910.077 163.266 907.787 165.256Z" fill="#4E6424"/>
<path d="M1043.59 409.209L1061.56 393.59C1063.85 391.6 1063.85 388.372 1061.56 386.382L859.627 210.888C857.337 208.897 853.623 208.897 851.332 210.888L833.361 226.507C831.07 228.497 831.07 231.724 833.361 233.715L1035.3 409.209C1037.59 411.199 1041.3 411.199 1043.59 409.209Z" fill="#DB9F47"/>
<path d="M877.506 226.523L859.534 210.904C857.243 208.913 853.529 208.913 851.239 210.904L649.323 386.38C647.032 388.37 647.032 391.598 649.323 393.588L667.295 409.207C669.585 411.197 673.299 411.197 675.589 409.207L877.506 233.731C879.796 231.741 879.796 228.513 877.506 226.523Z" fill="#DB9F47"/>
<path d="M1043.59 495.861L1061.56 480.242C1063.85 478.251 1063.85 475.024 1061.56 473.033L859.627 297.54C857.337 295.549 853.623 295.549 851.332 297.54L833.361 313.158C831.07 315.149 831.07 318.376 833.361 320.367L1035.3 495.861C1037.59 497.851 1041.3 497.851 1043.59 495.861Z" fill="#D5682B"/>
<path d="M877.506 313.177L859.534 297.559C857.243 295.568 853.529 295.568 851.239 297.559L649.323 473.034C647.032 475.025 647.032 478.252 649.323 480.243L667.295 495.862C669.585 497.852 673.299 497.852 675.589 495.862L877.506 320.386C879.796 318.395 879.796 315.168 877.506 313.177Z" fill="#D5682B"/>
<path d="M489.002 349.412L506.974 365.03C509.264 367.021 512.978 367.021 515.268 365.03L717.205 189.537C719.496 187.546 719.496 184.319 717.205 182.328L699.233 166.71C696.943 164.719 693.229 164.719 690.939 166.71L489.002 342.203C486.711 344.194 486.711 347.421 489.002 349.412Z" fill="#243664"/>
<path d="M699.225 205.082L717.197 189.463C719.488 187.473 719.488 184.245 717.197 182.255L515.281 6.77905C512.991 4.78845 509.277 4.78845 506.987 6.77904L489.015 22.3976C486.724 24.3882 486.724 27.6156 489.015 29.6061L690.931 205.082C693.221 207.072 696.935 207.072 699.225 205.082Z" fill="#243664"/>
<path d="M592.035 349.412L610.007 365.03C612.297 367.021 616.011 367.021 618.302 365.03L820.239 189.537C822.529 187.546 822.529 184.319 820.239 182.328L802.267 166.71C799.976 164.719 796.262 164.719 793.972 166.71L592.035 342.203C589.744 344.194 589.744 347.421 592.035 349.412Z" fill="#4E6424"/>
<path d="M802.259 205.082L820.231 189.463C822.522 187.473 822.522 184.245 820.231 182.255L618.315 6.77905C616.024 4.78845 612.311 4.78845 610.02 6.77904L592.048 22.3976C589.758 24.3882 589.758 27.6156 592.048 29.6061L793.964 205.082C796.255 207.072 799.969 207.072 802.259 205.082Z" fill="#4E6424"/>
<path d="M666.459 -38.873L648.487 -23.2544C646.197 -21.2638 646.197 -18.0365 648.487 -16.0459L850.424 159.448C852.715 161.438 856.428 161.438 858.719 159.448L876.691 143.829C878.981 141.839 878.981 138.611 876.691 136.621L674.754 -38.873C672.463 -40.8636 668.75 -40.8636 666.459 -38.873Z" fill="#DB9F47"/>
<path d="M832.546 143.803L850.518 159.422C852.808 161.412 856.522 161.412 858.812 159.422L1060.73 -16.0537C1063.02 -18.0443 1063.02 -21.2717 1060.73 -23.2623L1042.76 -38.8808C1040.47 -40.8714 1036.75 -40.8714 1034.46 -38.8808L832.546 136.595C830.255 138.585 830.255 141.813 832.546 143.803Z" fill="#DB9F47"/>
<path d="M666.459 -125.53L648.487 -109.911C646.197 -107.921 646.197 -104.693 648.487 -102.703L850.424 72.7909C852.715 74.7815 856.428 74.7815 858.719 72.7909L876.691 57.1724C878.981 55.1818 878.981 51.9544 876.691 49.9638L674.754 -125.53C672.463 -127.52 668.75 -127.52 666.459 -125.53Z" fill="#D5682B"/>
<path d="M832.546 57.1583L850.518 72.7768C852.808 74.7674 856.522 74.7674 858.812 72.7768L1060.73 -102.699C1063.02 -104.689 1063.02 -107.917 1060.73 -109.907L1042.76 -125.526C1040.47 -127.516 1036.75 -127.516 1034.46 -125.526L832.546 49.9497C830.255 51.9403 830.255 55.1677 832.546 57.1583Z" fill="#D5682B"/>
<path d="M366.671 20.9191L348.699 5.30057C346.409 3.30998 342.695 3.30998 340.404 5.30057L138.468 180.794C136.177 182.785 136.177 186.012 138.468 188.003L156.44 203.621C158.73 205.612 162.444 205.612 164.734 203.621L366.671 28.1277C368.962 26.1371 368.962 22.9097 366.671 20.9191Z" fill="#243664"/>
<path d="M156.465 165.256L138.493 180.875C136.203 182.865 136.203 186.093 138.493 188.083L340.409 363.559C342.7 365.549 346.413 365.549 348.704 363.559L366.676 347.94C368.966 345.95 368.966 342.722 366.676 340.732L164.76 165.256C162.469 163.266 158.756 163.266 156.465 165.256Z" fill="#243664"/>
<path d="M263.636 20.9191L245.664 5.30057C243.373 3.30998 239.66 3.30998 237.369 5.30057L35.4325 180.794C33.1419 182.785 33.1419 186.012 35.4324 188.003L53.4044 203.621C55.6949 205.612 59.4086 205.612 61.6991 203.621L263.636 28.1277C265.926 26.1371 265.926 22.9097 263.636 20.9191Z" fill="#4E6424"/>
<path d="M53.4172 165.256L35.4452 180.875C33.1547 182.865 33.1547 186.093 35.4452 188.083L237.361 363.559C239.652 365.549 243.366 365.549 245.656 363.559L263.628 347.94C265.919 345.95 265.919 342.722 263.628 340.732L61.7119 165.256C59.4214 163.266 55.7077 163.266 53.4172 165.256Z" fill="#4E6424"/>
<path d="M189.222 409.209L207.194 393.59C209.485 391.6 209.485 388.372 207.194 386.382L5.25758 210.888C2.96704 208.897 -0.746639 208.897 -3.03717 210.888L-21.0091 226.507C-23.2996 228.497 -23.2996 231.724 -21.0091 233.715L180.928 409.209C183.218 411.199 186.932 411.199 189.222 409.209Z" fill="#DB9F47"/>
<path d="M23.1359 226.523L5.16397 210.904C2.87344 208.913 -0.840239 208.913 -3.13077 210.904L-205.047 386.38C-207.337 388.37 -207.337 391.598 -205.047 393.588L-187.075 409.207C-184.784 411.197 -181.071 411.197 -178.78 409.207L23.1359 233.731C25.4264 231.741 25.4264 228.513 23.1359 226.523Z" fill="#DB9F47"/>
<path d="M189.222 495.861L207.194 480.242C209.485 478.251 209.485 475.024 207.194 473.033L5.25758 297.54C2.96704 295.549 -0.746639 295.549 -3.03717 297.54L-21.0091 313.158C-23.2996 315.149 -23.2996 318.376 -21.0091 320.367L180.928 495.861C183.218 497.851 186.932 497.851 189.222 495.861Z" fill="#D5682B"/>
<path d="M23.1359 313.177L5.16397 297.559C2.87344 295.568 -0.840239 295.568 -3.13077 297.559L-205.047 473.034C-207.337 475.025 -207.337 478.252 -205.047 480.243L-187.075 495.862C-184.784 497.852 -181.071 497.852 -178.78 495.862L23.1359 320.386C25.4264 318.395 25.4264 315.168 23.1359 313.177Z" fill="#D5682B"/>
<path d="M-187.911 -38.873L-205.883 -23.2544C-208.173 -21.2638 -208.173 -18.0365 -205.883 -16.0459L-3.94612 159.448C-1.65559 161.438 2.05809 161.438 4.34862 159.448L22.3206 143.829C24.6111 141.839 24.6111 138.611 22.3206 136.621L-179.616 -38.873C-181.907 -40.8636 -185.62 -40.8636 -187.911 -38.873Z" fill="#DB9F47"/>
<path d="M-21.8244 143.803L-3.85245 159.422C-1.56192 161.412 2.15176 161.412 4.44229 159.422L206.358 -16.0537C208.649 -18.0443 208.649 -21.2717 206.358 -23.2623L188.386 -38.8808C186.096 -40.8714 182.382 -40.8714 180.092 -38.8808L-21.8244 136.595C-24.1149 138.585 -24.1149 141.813 -21.8244 143.803Z" fill="#DB9F47"/>
<path d="M-187.911 -125.53L-205.883 -109.911C-208.173 -107.921 -208.173 -104.693 -205.883 -102.703L-3.94612 72.7909C-1.65559 74.7815 2.05809 74.7815 4.34862 72.7909L22.3206 57.1724C24.6111 55.1818 24.6111 51.9544 22.3206 49.9638L-179.616 -125.53C-181.907 -127.52 -185.62 -127.52 -187.911 -125.53Z" fill="#D5682B"/>
<path d="M-21.8244 57.1583L-3.85245 72.7768C-1.56192 74.7674 2.15176 74.7674 4.44229 72.7768L206.358 -102.699C208.649 -104.689 208.649 -107.917 206.358 -109.907L188.386 -125.526C186.096 -127.516 182.382 -127.516 180.092 -125.526L-21.8244 49.9497C-24.1149 51.9403 -24.1149 55.1677 -21.8244 57.1583Z" fill="#D5682B"/>
<path d="M3606.72 409.209L3624.69 393.59C3626.98 391.6 3626.98 388.372 3624.69 386.382L3422.75 210.888C3420.46 208.897 3416.75 208.897 3414.46 210.888L3396.49 226.507C3394.2 228.497 3394.2 231.724 3396.49 233.715L3598.42 409.209C3600.72 411.199 3604.43 411.199 3606.72 409.209Z" fill="#DB9F47"/>
<path d="M3440.63 226.523L3422.66 210.904C3420.37 208.913 3416.65 208.913 3414.36 210.904L3212.45 386.38C3210.15 388.37 3210.15 391.598 3212.45 393.588L3230.42 409.207C3232.71 411.197 3236.42 411.197 3238.71 409.207L3440.63 233.731C3442.92 231.741 3442.92 228.513 3440.63 226.523Z" fill="#DB9F47"/>
<path d="M3606.72 495.861L3624.69 480.242C3626.98 478.251 3626.98 475.024 3624.69 473.033L3422.75 297.54C3420.46 295.549 3416.75 295.549 3414.46 297.54L3396.49 313.158C3394.2 315.149 3394.2 318.376 3396.49 320.367L3598.42 495.861C3600.72 497.851 3604.43 497.851 3606.72 495.861Z" fill="#D5682B"/>
<path d="M3440.63 313.177L3422.66 297.559C3420.37 295.568 3416.65 295.568 3414.36 297.559L3212.45 473.034C3210.15 475.025 3210.15 478.252 3212.45 480.243L3230.42 495.862C3232.71 497.852 3236.42 497.852 3238.71 495.862L3440.63 320.386C3442.92 318.395 3442.92 315.168 3440.63 313.177Z" fill="#D5682B"/>
<path d="M3052.12 349.412L3070.1 365.03C3072.39 367.021 3076.1 367.021 3078.39 365.03L3280.33 189.537C3282.62 187.546 3282.62 184.319 3280.33 182.328L3262.36 166.71C3260.07 164.719 3256.35 164.719 3254.06 166.71L3052.12 342.203C3049.83 344.194 3049.83 347.421 3052.12 349.412Z" fill="#243664"/>
<path d="M3262.35 205.082L3280.32 189.463C3282.61 187.473 3282.61 184.245 3280.32 182.255L3078.41 6.77905C3076.12 4.78845 3072.4 4.78845 3070.11 6.77904L3052.14 22.3976C3049.85 24.3882 3049.85 27.6156 3052.14 29.6061L3254.06 205.082C3256.35 207.072 3260.06 207.072 3262.35 205.082Z" fill="#243664"/>
<path d="M3155.18 349.412L3173.15 365.03C3175.44 367.021 3179.16 367.021 3181.45 365.03L3383.39 189.537C3385.68 187.546 3385.68 184.319 3383.39 182.328L3365.41 166.71C3363.12 164.719 3359.41 164.719 3357.12 166.71L3155.18 342.203C3152.89 344.194 3152.89 347.421 3155.18 349.412Z" fill="#4E6424"/>
<path d="M3365.39 205.082L3383.36 189.463C3385.65 187.473 3385.65 184.245 3383.36 182.255L3181.44 6.77905C3179.15 4.78845 3175.44 4.78845 3173.15 6.77904L3155.18 22.3976C3152.89 24.3882 3152.89 27.6156 3155.18 29.6061L3357.09 205.082C3359.38 207.072 3363.1 207.072 3365.39 205.082Z" fill="#4E6424"/>
<path d="M3229.58 -38.873L3211.61 -23.2544C3209.32 -21.2638 3209.32 -18.0365 3211.61 -16.0459L3413.55 159.448C3415.84 161.438 3419.55 161.438 3421.84 159.448L3439.81 143.829C3442.1 141.839 3442.1 138.611 3439.81 136.621L3237.88 -38.873C3235.59 -40.8636 3231.87 -40.8636 3229.58 -38.873Z" fill="#DB9F47"/>
<path d="M3395.67 143.803L3413.64 159.422C3415.93 161.412 3419.64 161.412 3421.93 159.422L3623.85 -16.0537C3626.14 -18.0443 3626.14 -21.2717 3623.85 -23.2623L3605.88 -38.8808C3603.59 -40.8714 3599.87 -40.8714 3597.58 -38.8808L3395.67 136.595C3393.38 138.585 3393.38 141.813 3395.67 143.803Z" fill="#DB9F47"/>
<path d="M3229.58 -125.53L3211.61 -109.911C3209.32 -107.921 3209.32 -104.693 3211.61 -102.703L3413.55 72.7909C3415.84 74.7815 3419.55 74.7815 3421.84 72.7909L3439.81 57.1724C3442.1 55.1818 3442.1 51.9544 3439.81 49.9638L3237.88 -125.53C3235.59 -127.52 3231.87 -127.52 3229.58 -125.53Z" fill="#D5682B"/>
<path d="M3395.67 57.1583L3413.64 72.7768C3415.93 74.7674 3419.64 74.7674 3421.93 72.7768L3623.85 -102.699C3626.14 -104.689 3626.14 -107.917 3623.85 -109.907L3605.88 -125.526C3603.59 -127.516 3599.87 -127.516 3597.58 -125.526L3395.67 49.9497C3393.38 51.9403 3393.38 55.1677 3395.67 57.1583Z" fill="#D5682B"/>
<path d="M3626.7 -8.74121H-318.676V23.5412H3626.7V-8.74121Z" fill="#243664"/>
<path d="M3626.7 334.713H-318.676V366.995H3626.7V334.713Z" fill="#243664"/>
</g>
</svg>
