<svg width="1440" height="161" viewBox="0 0 1440 161" fill="none" xmlns="http://www.w3.org/2000/svg">
<mask id="mask0_756_1268" style="mask-type:luminance" maskUnits="userSpaceOnUse" x="0" y="0" width="1440" height="161">
<path d="M1440 0H0V160.406H1440V0Z" fill="white"/>
</mask>
<g mask="url(#mask0_756_1268)">
<path d="M1440 0.000488281H-0.00195312V160.406H1440V0.000488281Z" fill="#FFF9E4"/>
<path d="M1234.5 9.14396L1226.92 2.31752C1225.96 1.44749 1224.39 1.44749 1223.43 2.31752L1138.34 79.021C1137.37 79.891 1137.37 81.3016 1138.34 82.1717L1145.91 88.9981C1146.88 89.8682 1148.44 89.8682 1149.41 88.9981L1234.5 12.2946C1235.46 11.4246 1235.46 10.014 1234.5 9.14396Z" fill="#243664"/>
<path d="M1145.92 72.2301L1138.35 79.0565C1137.38 79.9265 1137.38 81.3371 1138.35 82.2072L1223.43 158.903C1224.39 159.773 1225.96 159.773 1226.92 158.903L1234.5 152.076C1235.46 151.206 1235.46 149.796 1234.5 148.926L1149.42 72.2301C1148.45 71.36 1146.89 71.36 1145.92 72.2301Z" fill="#243664"/>
<path d="M1191.08 9.14396L1183.51 2.31752C1182.54 1.44749 1180.98 1.44749 1180.01 2.31752L1094.93 79.021C1093.96 79.891 1093.96 81.3016 1094.93 82.1717L1102.5 88.9981C1103.46 89.8682 1105.03 89.8682 1105.99 88.9981L1191.08 12.2946C1192.05 11.4246 1192.05 10.014 1191.08 9.14396Z" fill="#4E6424"/>
<path d="M1102.51 72.2301L1094.94 79.0565C1093.97 79.9265 1093.97 81.3371 1094.94 82.2072L1180.01 158.903C1180.98 159.773 1182.54 159.773 1183.51 158.903L1191.08 152.076C1192.05 151.206 1192.05 149.796 1191.08 148.926L1106 72.2301C1105.04 71.36 1103.47 71.36 1102.51 72.2301Z" fill="#4E6424"/>
<path d="M1159.73 178.855L1167.3 172.029C1168.27 171.159 1168.27 169.748 1167.3 168.878L1082.21 92.1748C1081.25 91.3047 1079.68 91.3047 1078.72 92.1748L1071.15 99.0012C1070.18 99.8713 1070.18 101.282 1071.15 102.152L1156.24 178.855C1157.2 179.725 1158.77 179.725 1159.73 178.855Z" fill="#DB9F47"/>
<path d="M1089.75 99.0077L1082.18 92.1813C1081.21 91.3113 1079.65 91.3113 1078.68 92.1813L993.601 168.877C992.635 169.747 992.635 171.158 993.601 172.028L1001.17 178.854C1002.14 179.724 1003.7 179.724 1004.67 178.854L1089.75 102.158C1090.71 101.288 1090.71 99.8778 1089.75 99.0077Z" fill="#DB9F47"/>
<path d="M1159.73 216.729L1167.3 209.902C1168.27 209.032 1168.27 207.622 1167.3 206.752L1082.21 130.048C1081.25 129.178 1079.68 129.178 1078.72 130.048L1071.15 136.875C1070.18 137.745 1070.18 139.155 1071.15 140.025L1156.24 216.729C1157.2 217.599 1158.77 217.599 1159.73 216.729Z" fill="#D5682B"/>
<path d="M1089.75 136.882L1082.18 130.056C1081.21 129.186 1079.65 129.186 1078.68 130.056L993.601 206.751C992.635 207.621 992.635 209.032 993.601 209.902L1001.17 216.729C1002.14 217.599 1003.7 217.599 1004.67 216.729L1089.75 140.033C1090.71 139.163 1090.71 137.752 1089.75 136.882Z" fill="#D5682B"/>
<path d="M926.055 152.72L933.627 159.546C934.593 160.416 936.157 160.416 937.123 159.546L1022.21 82.8427C1023.18 81.9727 1023.18 80.5621 1022.21 79.6921L1014.64 72.8656C1013.67 71.9956 1012.11 71.9956 1011.14 72.8656L926.055 149.569C925.09 150.439 925.09 151.85 926.055 152.72Z" fill="#243664"/>
<path d="M1014.63 89.6381L1022.2 82.8117C1023.16 81.9416 1023.16 80.531 1022.2 79.661L937.12 2.96536C936.155 2.09532 934.59 2.09532 933.625 2.96536L926.052 9.7918C925.087 10.6618 925.087 12.0724 926.052 12.9425L1011.13 89.6381C1012.1 90.5081 1013.66 90.5081 1014.63 89.6381Z" fill="#243664"/>
<path d="M969.467 152.72L977.04 159.546C978.005 160.416 979.57 160.416 980.535 159.546L1065.62 82.8427C1066.59 81.9727 1066.59 80.5621 1065.62 79.6921L1058.05 72.8656C1057.09 71.9956 1055.52 71.9956 1054.56 72.8656L969.467 149.569C968.502 150.439 968.502 151.85 969.467 152.72Z" fill="#4E6424"/>
<path d="M1058.04 89.6381L1065.62 82.8117C1066.58 81.9416 1066.58 80.531 1065.62 79.661L980.536 2.96536C979.571 2.09532 978.006 2.09532 977.041 2.96536L969.468 9.7918C968.503 10.6618 968.503 12.0724 969.468 12.9425L1054.55 89.6381C1055.51 90.5081 1057.08 90.5081 1058.04 89.6381Z" fill="#4E6424"/>
<path d="M1000.82 -16.9897L993.246 -10.1632C992.28 -9.29319 992.28 -7.88259 993.246 -7.01256L1078.33 69.6909C1079.3 70.561 1080.86 70.561 1081.83 69.6909L1089.4 62.8645C1090.37 61.9945 1090.37 60.5839 1089.4 59.7138L1004.31 -16.9897C1003.35 -17.8597 1001.78 -17.8597 1000.82 -16.9897Z" fill="#DB9F47"/>
<path d="M1070.8 62.8546L1078.37 69.681C1079.34 70.551 1080.9 70.551 1081.87 69.681L1166.95 -7.01462C1167.91 -7.88465 1167.91 -9.29525 1166.95 -10.1653L1159.38 -16.9917C1158.41 -17.8618 1156.85 -17.8618 1155.88 -16.9917L1070.8 59.7039C1069.84 60.5739 1069.84 61.9845 1070.8 62.8546Z" fill="#DB9F47"/>
<path d="M1000.82 -54.8642L993.246 -48.0377C992.28 -47.1677 992.28 -45.7571 993.246 -44.8871L1078.33 31.8164C1079.3 32.6865 1080.86 32.6865 1081.83 31.8164L1089.4 24.99C1090.37 24.1199 1090.37 22.7093 1089.4 21.8393L1004.31 -54.8642C1003.35 -55.7342 1001.78 -55.7342 1000.82 -54.8642Z" fill="#D5682B"/>
<path d="M1070.8 24.9835L1078.37 31.8099C1079.34 32.68 1080.9 32.68 1081.87 31.8099L1166.95 -44.8857C1167.91 -45.7557 1167.91 -47.1663 1166.95 -48.0364L1159.38 -54.8628C1158.41 -55.7329 1156.85 -55.7329 1155.88 -54.8628L1070.8 21.8328C1069.84 22.7028 1069.84 24.1134 1070.8 24.9835Z" fill="#D5682B"/>
<path d="M874.496 9.14396L866.923 2.31752C865.958 1.44749 864.393 1.44749 863.428 2.31752L778.34 79.021C777.375 79.891 777.375 81.3016 778.34 82.1717L785.913 88.9981C786.878 89.8682 788.443 89.8682 789.408 88.9981L874.496 12.2946C875.461 11.4246 875.461 10.014 874.496 9.14396Z" fill="#243664"/>
<path d="M785.924 72.2301L778.351 79.0565C777.386 79.9265 777.386 81.3371 778.351 82.2072L863.431 158.903C864.396 159.773 865.961 159.773 866.926 158.903L874.498 152.076C875.464 151.206 875.464 149.796 874.498 148.926L789.419 72.2301C788.454 71.36 786.889 71.36 785.924 72.2301Z" fill="#243664"/>
<path d="M831.082 9.14396L823.509 2.31752C822.544 1.44749 820.979 1.44749 820.014 2.31752L734.926 79.021C733.961 79.891 733.961 81.3016 734.926 82.1717L742.499 88.9981C743.464 89.8682 745.028 89.8682 745.994 88.9981L831.082 12.2946C832.047 11.4246 832.047 10.014 831.082 9.14396Z" fill="#4E6424"/>
<path d="M742.508 72.2301L734.935 79.0565C733.97 79.9265 733.97 81.3371 734.935 82.2072L820.015 158.903C820.98 159.773 822.545 159.773 823.51 158.903L831.082 152.076C832.048 151.206 832.048 149.796 831.082 148.926L746.003 72.2301C745.038 71.36 743.473 71.36 742.508 72.2301Z" fill="#4E6424"/>
<path d="M799.729 178.855L807.301 172.029C808.266 171.159 808.266 169.748 807.301 168.878L722.213 92.1748C721.248 91.3047 719.683 91.3047 718.718 92.1748L711.145 99.0012C710.18 99.8713 710.18 101.282 711.145 102.152L796.234 178.855C797.199 179.725 798.763 179.725 799.729 178.855Z" fill="#DB9F47"/>
<path d="M729.748 99.0077L722.175 92.1813C721.21 91.3113 719.645 91.3113 718.68 92.1813L633.601 168.877C632.635 169.747 632.635 171.158 633.601 172.028L641.173 178.854C642.138 179.724 643.703 179.724 644.668 178.854L729.748 102.158C730.713 101.288 730.713 99.8778 729.748 99.0077Z" fill="#DB9F47"/>
<path d="M799.729 216.729L807.301 209.902C808.266 209.032 808.266 207.622 807.301 206.752L722.213 130.048C721.248 129.178 719.683 129.178 718.718 130.048L711.145 136.875C710.18 137.745 710.18 139.155 711.145 140.025L796.234 216.729C797.199 217.599 798.763 217.599 799.729 216.729Z" fill="#D5682B"/>
<path d="M729.748 136.882L722.175 130.056C721.21 129.186 719.645 129.186 718.68 130.056L633.601 206.751C632.635 207.621 632.635 209.032 633.601 209.902L641.173 216.729C642.138 217.599 643.703 217.599 644.668 216.729L729.748 140.033C730.713 139.163 730.713 137.752 729.748 136.882Z" fill="#D5682B"/>
<path d="M566.047 152.72L573.62 159.546C574.585 160.416 576.15 160.416 577.115 159.546L662.203 82.8427C663.168 81.9727 663.168 80.5621 662.203 79.6921L654.63 72.8656C653.665 71.9956 652.1 71.9956 651.135 72.8656L566.047 149.569C565.082 150.439 565.082 151.85 566.047 152.72Z" fill="#243664"/>
<path d="M654.623 89.6381L662.196 82.8117C663.161 81.9416 663.161 80.531 662.196 79.661L577.116 2.96536C576.151 2.09532 574.586 2.09532 573.621 2.96536L566.048 9.7918C565.083 10.6618 565.083 12.0724 566.048 12.9425L651.128 89.6381C652.093 90.5081 653.658 90.5081 654.623 89.6381Z" fill="#243664"/>
<path d="M609.463 152.72L617.036 159.546C618.001 160.416 619.566 160.416 620.531 159.546L705.619 82.8427C706.584 81.9727 706.584 80.5621 705.619 79.6921L698.046 72.8656C697.081 71.9956 695.516 71.9956 694.551 72.8656L609.463 149.569C608.498 150.439 608.498 151.85 609.463 152.72Z" fill="#4E6424"/>
<path d="M698.037 89.6381L705.61 82.8117C706.575 81.9416 706.575 80.531 705.61 79.661L620.53 2.96535C619.565 2.09532 618 2.09532 617.035 2.96536L609.463 9.7918C608.497 10.6618 608.497 12.0724 609.463 12.9425L694.542 89.6381C695.507 90.5081 697.072 90.5081 698.037 89.6381Z" fill="#4E6424"/>
<path d="M640.818 -16.9897L633.246 -10.1632C632.28 -9.29319 632.28 -7.88259 633.246 -7.01256L718.334 69.6909C719.299 70.561 720.864 70.561 721.829 69.6909L729.402 62.8645C730.367 61.9945 730.367 60.5839 729.402 59.7138L644.313 -16.9897C643.348 -17.8597 641.783 -17.8597 640.818 -16.9897Z" fill="#DB9F47"/>
<path d="M710.799 62.8546L718.372 69.681C719.337 70.551 720.902 70.551 721.867 69.681L806.946 -7.01462C807.911 -7.88465 807.911 -9.29525 806.946 -10.1653L799.374 -16.9917C798.408 -17.8618 796.844 -17.8618 795.879 -16.9917L710.799 59.7039C709.834 60.5739 709.834 61.9845 710.799 62.8546Z" fill="#DB9F47"/>
<path d="M640.818 -54.8642L633.246 -48.0377C632.28 -47.1677 632.28 -45.7571 633.246 -44.8871L718.334 31.8164C719.299 32.6865 720.864 32.6865 721.829 31.8164L729.402 24.99C730.367 24.1199 730.367 22.7093 729.402 21.8393L644.313 -54.8642C643.348 -55.7342 641.783 -55.7342 640.818 -54.8642Z" fill="#D5682B"/>
<path d="M710.799 24.9835L718.372 31.8099C719.337 32.68 720.902 32.68 721.867 31.8099L806.946 -44.8857C807.911 -45.7557 807.911 -47.1663 806.946 -48.0364L799.374 -54.8628C798.408 -55.7329 796.844 -55.7329 795.879 -54.8628L710.799 21.8328C709.834 22.7028 709.834 24.1134 710.799 24.9835Z" fill="#D5682B"/>
<path d="M514.498 9.14396L506.925 2.31752C505.96 1.44749 504.395 1.44749 503.43 2.31752L418.342 79.021C417.377 79.891 417.377 81.3016 418.342 82.1717L425.915 88.9981C426.88 89.8682 428.445 89.8682 429.41 88.9981L514.498 12.2946C515.463 11.4246 515.463 10.014 514.498 9.14396Z" fill="#243664"/>
<path d="M425.924 72.2301L418.351 79.0565C417.386 79.9265 417.386 81.3371 418.351 82.2072L503.431 158.903C504.396 159.773 505.961 159.773 506.926 158.903L514.498 152.076C515.464 151.206 515.464 149.796 514.498 148.926L429.419 72.2301C428.454 71.36 426.889 71.36 425.924 72.2301Z" fill="#243664"/>
<path d="M471.082 9.14396L463.509 2.31752C462.544 1.44749 460.979 1.44749 460.014 2.31752L374.926 79.021C373.961 79.891 373.961 81.3016 374.926 82.1717L382.499 88.9981C383.464 89.8682 385.028 89.8682 385.994 88.9981L471.082 12.2946C472.047 11.4246 472.047 10.014 471.082 9.14396Z" fill="#4E6424"/>
<path d="M382.506 72.2301L374.933 79.0565C373.968 79.9265 373.968 81.3371 374.933 82.2072L460.013 158.903C460.978 159.773 462.543 159.773 463.508 158.903L471.08 152.076C472.046 151.206 472.046 149.796 471.08 148.926L386.001 72.2301C385.036 71.36 383.471 71.36 382.506 72.2301Z" fill="#4E6424"/>
<path d="M439.729 178.855L447.301 172.029C448.266 171.159 448.266 169.748 447.301 168.878L362.213 92.1748C361.248 91.3047 359.683 91.3047 358.718 92.1748L351.145 99.0012C350.18 99.8713 350.18 101.282 351.145 102.152L436.234 178.855C437.199 179.725 438.763 179.725 439.729 178.855Z" fill="#DB9F47"/>
<path d="M369.748 99.0077L362.175 92.1813C361.21 91.3113 359.645 91.3113 358.68 92.1813L273.601 168.877C272.635 169.747 272.635 171.158 273.601 172.028L281.173 178.854C282.138 179.724 283.703 179.724 284.668 178.854L369.748 102.158C370.713 101.288 370.713 99.8778 369.748 99.0077Z" fill="#DB9F47"/>
<path d="M439.729 216.729L447.301 209.902C448.266 209.032 448.266 207.622 447.301 206.752L362.213 130.048C361.248 129.178 359.683 129.178 358.718 130.048L351.145 136.875C350.18 137.745 350.18 139.155 351.145 140.025L436.234 216.729C437.199 217.599 438.763 217.599 439.729 216.729Z" fill="#D5682B"/>
<path d="M369.748 136.882L362.175 130.056C361.21 129.186 359.645 129.186 358.68 130.056L273.601 206.751C272.635 207.621 272.635 209.032 273.601 209.902L281.173 216.729C282.138 217.599 283.703 217.599 284.668 216.729L369.748 140.033C370.713 139.163 370.713 137.752 369.748 136.882Z" fill="#D5682B"/>
<path d="M206.047 152.72L213.62 159.546C214.585 160.416 216.15 160.416 217.115 159.546L302.203 82.8427C303.168 81.9727 303.168 80.5621 302.203 79.6921L294.63 72.8656C293.665 71.9956 292.1 71.9956 291.135 72.8656L206.047 149.569C205.082 150.439 205.082 151.85 206.047 152.72Z" fill="#243664"/>
<path d="M294.623 89.6381L302.196 82.8117C303.161 81.9416 303.161 80.531 302.196 79.661L217.116 2.96536C216.151 2.09532 214.586 2.09532 213.621 2.96536L206.048 9.7918C205.083 10.6618 205.083 12.0724 206.048 12.9425L291.128 89.6381C292.093 90.5081 293.658 90.5081 294.623 89.6381Z" fill="#243664"/>
<path d="M249.463 152.72L257.036 159.546C258.001 160.416 259.566 160.416 260.531 159.546L345.619 82.8427C346.584 81.9727 346.584 80.5621 345.619 79.6921L338.046 72.8656C337.081 71.9956 335.516 71.9956 334.551 72.8656L249.463 149.569C248.498 150.439 248.498 151.85 249.463 152.72Z" fill="#4E6424"/>
<path d="M338.037 89.6381L345.61 82.8117C346.575 81.9416 346.575 80.531 345.61 79.661L260.53 2.96536C259.565 2.09532 258 2.09532 257.035 2.96536L249.463 9.7918C248.497 10.6618 248.497 12.0724 249.463 12.9425L334.542 89.6381C335.507 90.5081 337.072 90.5081 338.037 89.6381Z" fill="#4E6424"/>
<path d="M280.818 -16.9897L273.246 -10.1632C272.28 -9.29319 272.28 -7.88259 273.246 -7.01256L358.334 69.6909C359.299 70.561 360.864 70.561 361.829 69.6909L369.402 62.8645C370.367 61.9945 370.367 60.5839 369.402 59.7138L284.313 -16.9897C283.348 -17.8597 281.783 -17.8597 280.818 -16.9897Z" fill="#DB9F47"/>
<path d="M350.799 62.8546L358.372 69.681C359.337 70.551 360.902 70.551 361.867 69.681L446.946 -7.01462C447.911 -7.88465 447.911 -9.29525 446.946 -10.1653L439.374 -16.9917C438.408 -17.8618 436.844 -17.8618 435.879 -16.9917L350.799 59.7039C349.834 60.5739 349.834 61.9845 350.799 62.8546Z" fill="#DB9F47"/>
<path d="M280.818 -54.8642L273.246 -48.0377C272.28 -47.1677 272.28 -45.7571 273.246 -44.8871L358.334 31.8164C359.299 32.6865 360.864 32.6865 361.829 31.8164L369.402 24.99C370.367 24.1199 370.367 22.7093 369.402 21.8393L284.313 -54.8642C283.348 -55.7342 281.783 -55.7342 280.818 -54.8642Z" fill="#D5682B"/>
<path d="M350.799 24.9835L358.372 31.8099C359.337 32.68 360.902 32.68 361.867 31.8099L446.946 -44.8857C447.911 -45.7557 447.911 -47.1663 446.946 -48.0364L439.374 -54.8628C438.408 -55.7329 436.844 -55.7329 435.879 -54.8628L350.799 21.8328C349.834 22.7028 349.834 24.1134 350.799 24.9835Z" fill="#D5682B"/>
<path d="M154.498 9.14396L146.925 2.31752C145.96 1.44749 144.395 1.44749 143.43 2.31752L58.3419 79.021C57.3767 79.891 57.3767 81.3016 58.3419 82.1717L65.9146 88.9981C66.8797 89.8682 68.4445 89.8682 69.4096 88.9981L154.498 12.2946C155.463 11.4246 155.463 10.014 154.498 9.14396Z" fill="#243664"/>
<path d="M65.9257 72.2301L58.353 79.0565C57.3879 79.9265 57.3879 81.3371 58.353 82.2072L143.433 158.903C144.398 159.773 145.963 159.773 146.928 158.903L154.5 152.076C155.465 151.206 155.465 149.796 154.5 148.926L69.4208 72.2301C68.4556 71.36 66.8908 71.36 65.9257 72.2301Z" fill="#243664"/>
<path d="M111.084 9.14396L103.511 2.31752C102.546 1.44749 100.981 1.44749 100.016 2.31752L14.9278 79.021C13.9627 79.891 13.9627 81.3016 14.9278 82.1717L22.5005 88.9981C23.4656 89.8682 25.0304 89.8682 25.9956 88.9981L111.084 12.2946C112.049 11.4246 112.049 10.014 111.084 9.14396Z" fill="#4E6424"/>
<path d="M22.5077 72.2301L14.935 79.0565C13.9699 79.9265 13.9699 81.3371 14.935 82.2072L100.015 158.903C100.98 159.773 102.545 159.773 103.51 158.903L111.082 152.076C112.048 151.206 112.048 149.796 111.082 148.926L26.0028 72.2301C25.0377 71.36 23.4729 71.36 22.5077 72.2301Z" fill="#4E6424"/>
<path d="M79.7286 178.855L87.3013 172.029C88.2664 171.159 88.2664 169.748 87.3013 168.878L2.21296 92.1748C1.24782 91.3047 -0.316979 91.3047 -1.28212 92.1748L-8.85479 99.0012C-9.81993 99.8713 -9.81993 101.282 -8.8548 102.152L76.2335 178.855C77.1987 179.725 78.7635 179.725 79.7286 178.855Z" fill="#DB9F47"/>
<path d="M9.74795 99.0077L2.17527 92.1813C1.21013 91.3113 -0.354666 91.3113 -1.31981 92.1813L-86.3994 168.877C-87.3645 169.747 -87.3645 171.158 -86.3994 172.028L-78.8267 178.854C-77.8616 179.724 -76.2968 179.724 -75.3316 178.854L9.74795 102.158C10.7131 101.288 10.7131 99.8778 9.74795 99.0077Z" fill="#DB9F47"/>
<path d="M79.7286 216.729L87.3013 209.902C88.2664 209.032 88.2664 207.622 87.3013 206.752L2.21296 130.048C1.24782 129.178 -0.316979 129.178 -1.28212 130.048L-8.85479 136.875C-9.81993 137.745 -9.81993 139.155 -8.8548 140.025L76.2335 216.729C77.1987 217.599 78.7635 217.599 79.7286 216.729Z" fill="#D5682B"/>
<path d="M9.74795 136.882L2.17527 130.056C1.21013 129.186 -0.354666 129.186 -1.31981 130.056L-86.3994 206.751C-87.3645 207.621 -87.3645 209.032 -86.3994 209.902L-78.8267 216.729C-77.8616 217.599 -76.2968 217.599 -75.3316 216.729L9.74795 140.033C10.7131 139.163 10.7131 137.752 9.74795 136.882Z" fill="#D5682B"/>
<path d="M-79.1817 -16.9897L-86.7544 -10.1632C-87.7196 -9.29319 -87.7196 -7.88259 -86.7544 -7.01256L-1.66611 69.6909C-0.700964 70.561 0.863837 70.561 1.82898 69.6909L9.40165 62.8645C10.3668 61.9945 10.3668 60.5839 9.40165 59.7138L-75.6867 -16.9897C-76.6518 -17.8597 -78.2166 -17.8597 -79.1817 -16.9897Z" fill="#DB9F47"/>
<path d="M-9.20107 62.8546L-1.6284 69.681C-0.66326 70.551 0.901541 70.551 1.86668 69.681L86.9463 -7.01462C87.9114 -7.88465 87.9114 -9.29525 86.9463 -10.1653L79.3736 -16.9917C78.4085 -17.8618 76.8437 -17.8618 75.8785 -16.9917L-9.20107 59.7039C-10.1662 60.5739 -10.1662 61.9845 -9.20107 62.8546Z" fill="#DB9F47"/>
<path d="M-79.1817 -54.8642L-86.7544 -48.0377C-87.7196 -47.1677 -87.7196 -45.7571 -86.7544 -44.8871L-1.66611 31.8164C-0.700964 32.6865 0.863837 32.6865 1.82898 31.8164L9.40165 24.99C10.3668 24.1199 10.3668 22.7093 9.40165 21.8393L-75.6867 -54.8642C-76.6518 -55.7342 -78.2166 -55.7342 -79.1817 -54.8642Z" fill="#D5682B"/>
<path d="M-9.20107 24.9835L-1.6284 31.8099C-0.66326 32.68 0.901541 32.68 1.86668 31.8099L86.9463 -44.8857C87.9114 -45.7557 87.9114 -47.1663 86.9463 -48.0364L79.3736 -54.8628C78.4085 -55.7329 76.8437 -55.7329 75.8785 -54.8628L-9.20107 21.8328C-10.1662 22.7028 -10.1662 24.1134 -9.20107 24.9835Z" fill="#D5682B"/>
<path d="M1519.73 178.855L1527.3 172.029C1528.27 171.159 1528.27 169.748 1527.3 168.878L1442.21 92.1748C1441.25 91.3047 1439.68 91.3047 1438.72 92.1748L1431.15 99.0012C1430.18 99.8713 1430.18 101.282 1431.15 102.152L1516.24 178.855C1517.2 179.725 1518.77 179.725 1519.73 178.855Z" fill="#DB9F47"/>
<path d="M1449.75 99.0077L1442.18 92.1813C1441.21 91.3113 1439.65 91.3113 1438.68 92.1813L1353.6 168.877C1352.64 169.747 1352.64 171.158 1353.6 172.028L1361.17 178.854C1362.14 179.724 1363.7 179.724 1364.67 178.854L1449.75 102.158C1450.71 101.288 1450.71 99.8778 1449.75 99.0077Z" fill="#DB9F47"/>
<path d="M1519.73 216.729L1527.3 209.902C1528.27 209.032 1528.27 207.622 1527.3 206.752L1442.21 130.048C1441.25 129.178 1439.68 129.178 1438.72 130.048L1431.15 136.875C1430.18 137.745 1430.18 139.155 1431.15 140.025L1516.24 216.729C1517.2 217.599 1518.77 217.599 1519.73 216.729Z" fill="#D5682B"/>
<path d="M1449.75 136.882L1442.18 130.056C1441.21 129.186 1439.65 129.186 1438.68 130.056L1353.6 206.751C1352.64 207.621 1352.64 209.032 1353.6 209.902L1361.17 216.729C1362.14 217.599 1363.7 217.599 1364.67 216.729L1449.75 140.033C1450.71 139.163 1450.71 137.752 1449.75 136.882Z" fill="#D5682B"/>
<path d="M1286.04 152.72L1293.62 159.546C1294.58 160.416 1296.15 160.416 1297.11 159.546L1382.2 82.8427C1383.16 81.9727 1383.16 80.5621 1382.2 79.6921L1374.63 72.8656C1373.66 71.9956 1372.1 71.9956 1371.13 72.8656L1286.04 149.569C1285.08 150.439 1285.08 151.85 1286.04 152.72Z" fill="#243664"/>
<path d="M1374.63 89.6381L1382.2 82.8117C1383.16 81.9416 1383.16 80.531 1382.2 79.661L1297.12 2.96536C1296.15 2.09532 1294.59 2.09532 1293.63 2.96536L1286.05 9.7918C1285.09 10.6618 1285.09 12.0724 1286.05 12.9425L1371.13 89.6381C1372.1 90.5081 1373.66 90.5081 1374.63 89.6381Z" fill="#243664"/>
<path d="M1329.47 152.72L1337.04 159.546C1338 160.416 1339.57 160.416 1340.53 159.546L1425.62 82.8427C1426.59 81.9727 1426.59 80.5621 1425.62 79.6921L1418.05 72.8656C1417.09 71.9956 1415.52 71.9956 1414.56 72.8656L1329.47 149.569C1328.5 150.439 1328.5 151.85 1329.47 152.72Z" fill="#4E6424"/>
<path d="M1418.04 89.6381L1425.62 82.8117C1426.58 81.9416 1426.58 80.531 1425.62 79.661L1340.54 2.96536C1339.57 2.09532 1338.01 2.09532 1337.04 2.96536L1329.47 9.7918C1328.5 10.6618 1328.5 12.0724 1329.47 12.9425L1414.55 89.6381C1415.51 90.5081 1417.08 90.5081 1418.04 89.6381Z" fill="#4E6424"/>
<path d="M1360.82 -16.9897L1353.25 -10.1632C1352.28 -9.29319 1352.28 -7.88259 1353.25 -7.01256L1438.33 69.6909C1439.3 70.561 1440.86 70.561 1441.83 69.6909L1449.4 62.8645C1450.37 61.9945 1450.37 60.5839 1449.4 59.7138L1364.31 -16.9897C1363.35 -17.8597 1361.78 -17.8597 1360.82 -16.9897Z" fill="#DB9F47"/>
<path d="M1430.8 62.8546L1438.37 69.681C1439.34 70.551 1440.9 70.551 1441.87 69.681L1526.95 -7.01462C1527.91 -7.88465 1527.91 -9.29525 1526.95 -10.1653L1519.38 -16.9917C1518.41 -17.8618 1516.85 -17.8618 1515.88 -16.9917L1430.8 59.7039C1429.84 60.5739 1429.84 61.9845 1430.8 62.8546Z" fill="#DB9F47"/>
<path d="M1360.82 -54.8642L1353.25 -48.0377C1352.28 -47.1677 1352.28 -45.7571 1353.25 -44.8871L1438.33 31.8164C1439.3 32.6865 1440.86 32.6865 1441.83 31.8164L1449.4 24.99C1450.37 24.1199 1450.37 22.7093 1449.4 21.8393L1364.31 -54.8642C1363.35 -55.7342 1361.78 -55.7342 1360.82 -54.8642Z" fill="#D5682B"/>
<path d="M1430.8 24.9835L1438.37 31.8099C1439.34 32.68 1440.9 32.68 1441.87 31.8099L1526.95 -44.8857C1527.91 -45.7557 1527.91 -47.1663 1526.95 -48.0364L1519.38 -54.8628C1518.41 -55.7329 1516.85 -55.7329 1515.88 -54.8628L1430.8 21.8328C1429.84 22.7028 1429.84 24.1134 1430.8 24.9835Z" fill="#D5682B"/>
<path d="M1528.14 -3.82031H-134.281V10.2895H1528.14V-3.82031Z" fill="#243664"/>
<path d="M1528.14 146.296H-134.281V160.406H1528.14V146.296Z" fill="#243664"/>
</g>
</svg>
