<svg width="391" height="44" viewBox="0 0 391 44" fill="none" xmlns="http://www.w3.org/2000/svg">
<mask id="mask0_756_1268" style="mask-type:luminance" maskUnits="userSpaceOnUse" x="0" y="0" width="391" height="44">
<path d="M391 0H0V43.5546H391V0Z" fill="white"/>
</mask>
<g mask="url(#mask0_756_1268)">
<path d="M391 0.00012207H-0.000488281V43.5547H391V0.00012207Z" fill="#FFF9E4"/>
<path d="M335.2 2.48285L333.144 0.629285C332.882 0.393047 332.457 0.393047 332.195 0.629285L309.091 21.4564C308.829 21.6926 308.829 22.0757 309.091 22.3119L311.147 24.1655C311.409 24.4017 311.834 24.4017 312.096 24.1655L335.2 3.33835C335.462 3.10211 335.462 2.71909 335.2 2.48285Z" fill="#243664"/>
<path d="M311.15 19.6125L309.094 21.4661C308.832 21.7023 308.832 22.0853 309.094 22.3215L332.195 43.1465C332.457 43.3828 332.882 43.3828 333.144 43.1465L335.2 41.293C335.462 41.0567 335.462 40.6737 335.2 40.4375L312.099 19.6125C311.837 19.3762 311.412 19.3762 311.15 19.6125Z" fill="#243664"/>
<path d="M323.412 2.48285L321.356 0.629285C321.094 0.393047 320.669 0.393047 320.407 0.629285L297.303 21.4564C297.041 21.6926 297.041 22.0757 297.303 22.3119L299.359 24.1655C299.621 24.4017 300.046 24.4017 300.308 24.1655L323.412 3.33835C323.674 3.10211 323.674 2.71909 323.412 2.48285Z" fill="#4E6424"/>
<path d="M299.361 19.6125L297.305 21.4661C297.043 21.7023 297.043 22.0853 297.305 22.3215L320.407 43.1465C320.669 43.3828 321.093 43.3828 321.356 43.1465L323.412 41.293C323.674 41.0567 323.674 40.6737 323.412 40.4375L300.31 19.6125C300.048 19.3762 299.623 19.3762 299.361 19.6125Z" fill="#4E6424"/>
<path d="M314.899 48.5642L316.955 46.7106C317.217 46.4743 317.217 46.0913 316.955 45.8551L293.851 25.028C293.589 24.7917 293.164 24.7917 292.902 25.028L290.846 26.8815C290.584 27.1178 290.584 27.5008 290.846 27.737L313.95 48.5642C314.212 48.8004 314.637 48.8004 314.899 48.5642Z" fill="#DB9F47"/>
<path d="M295.897 26.8834L293.841 25.0298C293.579 24.7936 293.154 24.7936 292.892 25.0298L269.79 45.8548C269.528 46.091 269.528 46.4741 269.79 46.7103L271.846 48.5639C272.108 48.8001 272.533 48.8001 272.795 48.5639L295.897 27.7389C296.159 27.5026 296.159 27.1196 295.897 26.8834Z" fill="#DB9F47"/>
<path d="M314.899 58.848L316.955 56.9944C317.217 56.7582 317.217 56.3751 316.955 56.1389L293.851 35.3118C293.589 35.0755 293.164 35.0755 292.902 35.3118L290.846 37.1653C290.584 37.4016 290.584 37.7846 290.846 38.0208L313.95 58.848C314.212 59.0842 314.637 59.0842 314.899 58.848Z" fill="#D5682B"/>
<path d="M295.897 37.1673L293.841 35.3137C293.579 35.0775 293.154 35.0775 292.892 35.3137L269.79 56.1387C269.528 56.375 269.528 56.758 269.79 56.9942L271.846 58.8478C272.108 59.084 272.533 59.084 272.795 58.8478L295.897 38.0228C296.159 37.7866 296.159 37.4035 295.897 37.1673Z" fill="#D5682B"/>
<path d="M251.45 41.4677L253.506 43.3213C253.768 43.5575 254.193 43.5575 254.455 43.3213L277.559 22.4941C277.821 22.2579 277.821 21.8749 277.559 21.6387L275.503 19.7851C275.241 19.5488 274.816 19.5488 274.554 19.7851L251.45 40.6122C251.188 40.8485 251.188 41.2315 251.45 41.4677Z" fill="#243664"/>
<path d="M275.5 24.3392L277.556 22.4856C277.818 22.2494 277.818 21.8664 277.556 21.6301L254.454 0.805117C254.192 0.56888 253.767 0.568879 253.505 0.805117L251.449 2.65869C251.187 2.89492 251.187 3.27794 251.449 3.51418L274.551 24.3392C274.813 24.5754 275.238 24.5754 275.5 24.3392Z" fill="#243664"/>
<path d="M263.237 41.4677L265.294 43.3213C265.556 43.5575 265.981 43.5575 266.243 43.3213L289.346 22.4941C289.608 22.2579 289.608 21.8749 289.346 21.6387L287.29 19.7851C287.028 19.5488 286.603 19.5488 286.341 19.7851L263.237 40.6122C262.975 40.8485 262.975 41.2315 263.237 41.4677Z" fill="#4E6424"/>
<path d="M287.288 24.3392L289.344 22.4856C289.606 22.2494 289.606 21.8664 289.344 21.6301L266.243 0.805117C265.981 0.56888 265.556 0.568879 265.294 0.805117L263.238 2.65869C262.976 2.89492 262.976 3.27794 263.238 3.51418L286.339 24.3392C286.601 24.5754 287.026 24.5754 287.288 24.3392Z" fill="#4E6424"/>
<path d="M271.75 -4.61323L269.694 -2.75966C269.432 -2.52342 269.432 -2.1404 269.694 -1.90416L292.798 18.923C293.06 19.1592 293.485 19.1592 293.747 18.923L295.803 17.0694C296.065 16.8332 296.065 16.4501 295.803 16.2139L272.699 -4.61323C272.437 -4.84946 272.012 -4.84946 271.75 -4.61323Z" fill="#DB9F47"/>
<path d="M290.752 17.0667L292.808 18.9203C293.07 19.1565 293.495 19.1565 293.757 18.9203L316.859 -1.90472C317.121 -2.14096 317.121 -2.52398 316.859 -2.76022L314.803 -4.61378C314.54 -4.85002 314.116 -4.85002 313.853 -4.61379L290.752 16.2112C290.49 16.4475 290.49 16.8305 290.752 17.0667Z" fill="#DB9F47"/>
<path d="M271.75 -14.8972L269.694 -13.0436C269.432 -12.8074 269.432 -12.4243 269.694 -12.1881L292.798 8.63903C293.06 8.87527 293.485 8.87527 293.747 8.63903L295.803 6.78546C296.065 6.54922 296.065 6.1662 295.803 5.92997L272.699 -14.8972C272.437 -15.1334 272.012 -15.1334 271.75 -14.8972Z" fill="#D5682B"/>
<path d="M290.752 6.78375L292.808 8.63732C293.07 8.87355 293.495 8.87355 293.757 8.63732L316.859 -12.1877C317.121 -12.4239 317.121 -12.8069 316.859 -13.0432L314.803 -14.8967C314.54 -15.133 314.116 -15.133 313.853 -14.8967L290.752 5.92825C290.49 6.16449 290.49 6.54751 290.752 6.78375Z" fill="#D5682B"/>
<path d="M237.45 2.48285L235.394 0.629285C235.132 0.393047 234.707 0.393047 234.445 0.629285L211.341 21.4564C211.079 21.6926 211.079 22.0757 211.341 22.3119L213.397 24.1655C213.659 24.4017 214.084 24.4017 214.346 24.1655L237.45 3.33835C237.712 3.10211 237.712 2.71909 237.45 2.48285Z" fill="#243664"/>
<path d="M213.4 19.6125L211.344 21.4661C211.082 21.7023 211.082 22.0853 211.344 22.3215L234.446 43.1465C234.708 43.3828 235.133 43.3828 235.395 43.1465L237.451 41.293C237.713 41.0567 237.713 40.6737 237.451 40.4375L214.349 19.6125C214.087 19.3762 213.662 19.3762 213.4 19.6125Z" fill="#243664"/>
<path d="M225.662 2.48285L223.606 0.629285C223.344 0.393047 222.919 0.393047 222.657 0.629285L199.553 21.4564C199.291 21.6926 199.291 22.0757 199.553 22.3119L201.609 24.1655C201.871 24.4017 202.296 24.4017 202.558 24.1655L225.662 3.33835C225.924 3.10211 225.924 2.71909 225.662 2.48285Z" fill="#4E6424"/>
<path d="M201.611 19.6125L199.555 21.4661C199.293 21.7023 199.293 22.0853 199.555 22.3215L222.657 43.1465C222.919 43.3828 223.343 43.3828 223.606 43.1465L225.662 41.293C225.924 41.0567 225.924 40.6737 225.662 40.4375L202.56 19.6125C202.298 19.3762 201.873 19.3762 201.611 19.6125Z" fill="#4E6424"/>
<path d="M217.149 48.5642L219.205 46.7106C219.467 46.4743 219.467 46.0913 219.205 45.8551L196.101 25.028C195.839 24.7917 195.414 24.7917 195.152 25.028L193.096 26.8815C192.834 27.1178 192.834 27.5008 193.096 27.737L216.199 48.5642C216.462 48.8004 216.886 48.8004 217.149 48.5642Z" fill="#DB9F47"/>
<path d="M198.147 26.8834L196.091 25.0298C195.829 24.7936 195.404 24.7936 195.142 25.0298L172.04 45.8548C171.778 46.091 171.778 46.4741 172.04 46.7103L174.096 48.5639C174.358 48.8001 174.783 48.8001 175.045 48.5639L198.147 27.7389C198.409 27.5026 198.409 27.1196 198.147 26.8834Z" fill="#DB9F47"/>
<path d="M217.149 58.848L219.205 56.9944C219.467 56.7582 219.467 56.3751 219.205 56.1389L196.101 35.3118C195.839 35.0755 195.414 35.0755 195.152 35.3118L193.096 37.1653C192.834 37.4016 192.834 37.7846 193.096 38.0208L216.199 58.848C216.462 59.0842 216.886 59.0842 217.149 58.848Z" fill="#D5682B"/>
<path d="M198.147 37.1673L196.091 35.3137C195.829 35.0775 195.404 35.0775 195.142 35.3137L172.04 56.1387C171.778 56.375 171.778 56.758 172.04 56.9942L174.096 58.8478C174.358 59.084 174.783 59.084 175.045 58.8478L198.147 38.0228C198.409 37.7866 198.409 37.4035 198.147 37.1673Z" fill="#D5682B"/>
<path d="M153.697 41.4677L155.754 43.3213C156.016 43.5575 156.44 43.5575 156.703 43.3213L179.806 22.4941C180.068 22.2579 180.068 21.8749 179.806 21.6387L177.75 19.7851C177.488 19.5488 177.063 19.5488 176.801 19.7851L153.697 40.6122C153.435 40.8485 153.435 41.2315 153.697 41.4677Z" fill="#243664"/>
<path d="M177.749 24.3392L179.805 22.4856C180.067 22.2494 180.067 21.8664 179.805 21.6301L156.703 0.805117C156.441 0.56888 156.016 0.568879 155.754 0.805117L153.698 2.65869C153.436 2.89492 153.436 3.27794 153.698 3.51418L176.8 24.3392C177.062 24.5754 177.487 24.5754 177.749 24.3392Z" fill="#243664"/>
<path d="M165.486 41.4677L167.542 43.3213C167.804 43.5575 168.229 43.5575 168.491 43.3213L191.595 22.4941C191.857 22.2579 191.857 21.8749 191.595 21.6387L189.539 19.7851C189.277 19.5488 188.852 19.5488 188.59 19.7851L165.486 40.6122C165.224 40.8485 165.224 41.2315 165.486 41.4677Z" fill="#4E6424"/>
<path d="M189.537 24.3392L191.593 22.4856C191.855 22.2494 191.855 21.8664 191.593 21.6301L168.491 0.805117C168.229 0.56888 167.804 0.568879 167.542 0.805117L165.486 2.65869C165.224 2.89492 165.224 3.27794 165.486 3.51418L188.588 24.3392C188.85 24.5754 189.275 24.5754 189.537 24.3392Z" fill="#4E6424"/>
<path d="M174 -4.61323L171.944 -2.75966C171.682 -2.52342 171.682 -2.1404 171.944 -1.90416L195.048 18.923C195.31 19.1592 195.735 19.1592 195.997 18.923L198.053 17.0694C198.315 16.8332 198.315 16.4501 198.053 16.2139L174.949 -4.61323C174.687 -4.84946 174.262 -4.84946 174 -4.61323Z" fill="#DB9F47"/>
<path d="M193.002 17.0667L195.058 18.9203C195.32 19.1565 195.745 19.1565 196.007 18.9203L219.108 -1.90472C219.37 -2.14096 219.37 -2.52398 219.108 -2.76022L217.052 -4.61378C216.79 -4.85002 216.365 -4.85002 216.103 -4.61379L193.002 16.2112C192.739 16.4475 192.739 16.8305 193.002 17.0667Z" fill="#DB9F47"/>
<path d="M174 -14.8972L171.944 -13.0436C171.682 -12.8074 171.682 -12.4243 171.944 -12.1881L195.048 8.63903C195.31 8.87527 195.735 8.87527 195.997 8.63903L198.053 6.78546C198.315 6.54922 198.315 6.1662 198.053 5.92997L174.949 -14.8972C174.687 -15.1334 174.262 -15.1334 174 -14.8972Z" fill="#D5682B"/>
<path d="M193.002 6.78375L195.058 8.63732C195.32 8.87355 195.745 8.87355 196.007 8.63732L219.108 -12.1877C219.37 -12.4239 219.37 -12.8069 219.108 -13.0432L217.052 -14.8967C216.79 -15.133 216.365 -15.133 216.103 -14.8967L193.002 5.92825C192.739 6.16449 192.739 6.54751 193.002 6.78375Z" fill="#D5682B"/>
<path d="M139.701 2.48285L137.644 0.629285C137.382 0.393047 136.957 0.393047 136.695 0.629285L113.592 21.4564C113.33 21.6926 113.33 22.0757 113.592 22.3119L115.648 24.1655C115.91 24.4017 116.335 24.4017 116.597 24.1655L139.701 3.33835C139.963 3.10211 139.963 2.71909 139.701 2.48285Z" fill="#243664"/>
<path d="M115.65 19.6125L113.594 21.4661C113.332 21.7023 113.332 22.0853 113.594 22.3215L136.696 43.1465C136.958 43.3828 137.383 43.3828 137.645 43.1465L139.701 41.293C139.963 41.0567 139.963 40.6737 139.701 40.4375L116.599 19.6125C116.337 19.3762 115.912 19.3762 115.65 19.6125Z" fill="#243664"/>
<path d="M127.912 2.48285L125.856 0.629285C125.594 0.393047 125.169 0.393047 124.907 0.629285L101.803 21.4564C101.541 21.6926 101.541 22.0757 101.803 22.3119L103.859 24.1655C104.121 24.4017 104.546 24.4017 104.808 24.1655L127.912 3.33835C128.174 3.10211 128.174 2.71909 127.912 2.48285Z" fill="#4E6424"/>
<path d="M103.861 19.6125L101.805 21.4661C101.543 21.7023 101.543 22.0853 101.805 22.3215L124.906 43.1465C125.168 43.3828 125.593 43.3828 125.855 43.1465L127.911 41.293C128.173 41.0567 128.173 40.6737 127.911 40.4375L104.81 19.6125C104.548 19.3762 104.123 19.3762 103.861 19.6125Z" fill="#4E6424"/>
<path d="M119.399 48.5642L121.455 46.7106C121.717 46.4743 121.717 46.0913 121.455 45.8551L98.3508 25.028C98.0888 24.7917 97.6639 24.7917 97.4018 25.028L95.3456 26.8815C95.0836 27.1178 95.0836 27.5008 95.3456 27.737L118.449 48.5642C118.712 48.8004 119.136 48.8004 119.399 48.5642Z" fill="#DB9F47"/>
<path d="M100.397 26.8834L98.3407 25.0298C98.0787 24.7936 97.6538 24.7936 97.3917 25.0298L74.2902 45.8548C74.0282 46.091 74.0282 46.4741 74.2902 46.7103L76.3464 48.5639C76.6085 48.8001 77.0334 48.8001 77.2954 48.5639L100.397 27.7389C100.659 27.5026 100.659 27.1196 100.397 26.8834Z" fill="#DB9F47"/>
<path d="M119.399 58.848L121.455 56.9944C121.717 56.7582 121.717 56.3751 121.455 56.1389L98.3508 35.3118C98.0888 35.0755 97.6639 35.0755 97.4018 35.3118L95.3456 37.1653C95.0836 37.4016 95.0836 37.7846 95.3456 38.0208L118.449 58.848C118.712 59.0842 119.136 59.0842 119.399 58.848Z" fill="#D5682B"/>
<path d="M100.397 37.1673L98.3407 35.3137C98.0787 35.0775 97.6538 35.0775 97.3917 35.3137L74.2902 56.1387C74.0282 56.375 74.0282 56.758 74.2902 56.9942L76.3464 58.8478C76.6085 59.084 77.0334 59.084 77.2954 58.8478L100.397 38.0228C100.659 37.7866 100.659 37.4035 100.397 37.1673Z" fill="#D5682B"/>
<path d="M55.9473 41.4677L58.0035 43.3213C58.2656 43.5575 58.6905 43.5575 58.9525 43.3213L82.0564 22.4941C82.3184 22.2579 82.3184 21.8749 82.0564 21.6387L80.0002 19.7851C79.7381 19.5488 79.3132 19.5488 79.0512 19.7851L55.9473 40.6122C55.6853 40.8485 55.6853 41.2315 55.9473 41.4677Z" fill="#243664"/>
<path d="M79.9986 24.3392L82.0548 22.4856C82.3169 22.2494 82.3169 21.8664 82.0548 21.6301L58.9533 0.805117C58.6913 0.56888 58.2664 0.568879 58.0043 0.805117L55.9481 2.65869C55.6861 2.89492 55.6861 3.27794 55.9481 3.51418L79.0496 24.3392C79.3117 24.5754 79.7365 24.5754 79.9986 24.3392Z" fill="#243664"/>
<path d="M67.7359 41.4677L69.7921 43.3213C70.0542 43.5575 70.479 43.5575 70.7411 43.3213L93.845 22.4941C94.107 22.2579 94.107 21.8749 93.845 21.6387L91.7888 19.7851C91.5267 19.5488 91.1018 19.5488 90.8397 19.7851L67.7359 40.6122C67.4738 40.8485 67.4738 41.2315 67.7359 41.4677Z" fill="#4E6424"/>
<path d="M91.7867 24.3392L93.8429 22.4856C94.1049 22.2494 94.1049 21.8664 93.8429 21.6301L70.7414 0.805117C70.4793 0.56888 70.0545 0.568879 69.7924 0.805117L67.7362 2.65869C67.4741 2.89492 67.4741 3.27794 67.7362 3.51418L90.8377 24.3392C91.0997 24.5754 91.5246 24.5754 91.7867 24.3392Z" fill="#4E6424"/>
<path d="M76.2499 -4.61323L74.1937 -2.75966C73.9317 -2.52342 73.9317 -2.1404 74.1937 -1.90416L97.2976 18.923C97.5596 19.1592 97.9845 19.1592 98.2466 18.923L100.303 17.0694C100.565 16.8332 100.565 16.4501 100.303 16.2139L77.1989 -4.61323C76.9369 -4.84946 76.512 -4.84946 76.2499 -4.61323Z" fill="#DB9F47"/>
<path d="M95.2515 17.0667L97.3077 18.9203C97.5698 19.1565 97.9947 19.1565 98.2567 18.9203L121.358 -1.90472C121.62 -2.14096 121.62 -2.52398 121.358 -2.76022L119.302 -4.61378C119.04 -4.85002 118.615 -4.85002 118.353 -4.61379L95.2515 16.2112C94.9895 16.4475 94.9895 16.8305 95.2515 17.0667Z" fill="#DB9F47"/>
<path d="M76.2499 -14.8972L74.1937 -13.0436C73.9317 -12.8074 73.9317 -12.4243 74.1937 -12.1881L97.2976 8.63903C97.5596 8.87527 97.9845 8.87527 98.2466 8.63903L100.303 6.78546C100.565 6.54922 100.565 6.1662 100.303 5.92997L77.1989 -14.8972C76.9369 -15.1334 76.512 -15.1334 76.2499 -14.8972Z" fill="#D5682B"/>
<path d="M95.2515 6.78375L97.3077 8.63732C97.5698 8.87355 97.9947 8.87355 98.2567 8.63732L121.358 -12.1877C121.62 -12.4239 121.62 -12.8069 121.358 -13.0432L119.302 -14.8967C119.04 -15.133 118.615 -15.133 118.353 -14.8967L95.2515 5.92825C94.9895 6.16449 94.9895 6.54751 95.2515 6.78375Z" fill="#D5682B"/>
<path d="M41.9506 2.48285L39.8944 0.629285C39.6324 0.393047 39.2075 0.393047 38.9454 0.629285L15.8416 21.4564C15.5795 21.6926 15.5795 22.0757 15.8416 22.3119L17.8978 24.1655C18.1598 24.4017 18.5847 24.4017 18.8468 24.1655L41.9506 3.33835C42.2127 3.10211 42.2127 2.71909 41.9506 2.48285Z" fill="#243664"/>
<path d="M17.9008 19.6125L15.8446 21.4661C15.5826 21.7023 15.5826 22.0853 15.8446 22.3215L38.9461 43.1465C39.2082 43.3828 39.633 43.3828 39.8951 43.1465L41.9513 41.293C42.2134 41.0567 42.2134 40.6737 41.9513 40.4375L18.8498 19.6125C18.5878 19.3762 18.1629 19.3762 17.9008 19.6125Z" fill="#243664"/>
<path d="M30.1625 2.48285L28.1063 0.629285C27.8443 0.393047 27.4194 0.393047 27.1573 0.629285L4.05349 21.4564C3.79143 21.6926 3.79143 22.0757 4.05349 22.3119L6.10968 24.1655C6.37175 24.4017 6.79663 24.4017 7.05869 24.1655L30.1625 3.33835C30.4246 3.10211 30.4246 2.71909 30.1625 2.48285Z" fill="#4E6424"/>
<path d="M6.11126 19.6125L4.05507 21.4661C3.79301 21.7023 3.79301 22.0853 4.05507 22.3215L27.1565 43.1465C27.4186 43.3828 27.8435 43.3828 28.1056 43.1465L30.1618 41.293C30.4238 41.0567 30.4238 40.6737 30.1618 40.4375L7.06028 19.6125C6.79821 19.3762 6.37333 19.3762 6.11126 19.6125Z" fill="#4E6424"/>
<path d="M21.6485 48.5642L23.7047 46.7106C23.9668 46.4743 23.9668 46.0913 23.7047 45.8551L0.600849 25.028C0.338788 24.7917 -0.0861002 24.7917 -0.348162 25.028L-2.40435 26.8815C-2.66642 27.1178 -2.66642 27.5008 -2.40435 27.737L20.6995 48.5642C20.9616 48.8004 21.3864 48.8004 21.6485 48.5642Z" fill="#DB9F47"/>
<path d="M2.64691 26.8834L0.590717 25.0298C0.328654 24.7936 -0.0962326 24.7936 -0.358295 25.0298L-23.4598 45.8548C-23.7218 46.091 -23.7218 46.4741 -23.4598 46.7103L-21.4036 48.5639C-21.1415 48.8001 -20.7166 48.8001 -20.4546 48.5639L2.64691 27.7389C2.90897 27.5026 2.90897 27.1196 2.64691 26.8834Z" fill="#DB9F47"/>
<path d="M21.6485 58.848L23.7047 56.9944C23.9668 56.7582 23.9668 56.3751 23.7047 56.1389L0.600849 35.3118C0.338788 35.0755 -0.0861002 35.0755 -0.348162 35.3118L-2.40435 37.1653C-2.66642 37.4016 -2.66642 37.7846 -2.40435 38.0208L20.6995 58.848C20.9616 59.0842 21.3864 59.0842 21.6485 58.848Z" fill="#D5682B"/>
<path d="M2.64691 37.1673L0.590717 35.3137C0.328654 35.0775 -0.0962325 35.0775 -0.358295 35.3137L-23.4598 56.1387C-23.7218 56.375 -23.7218 56.758 -23.4598 56.9942L-21.4036 58.8478C-21.1415 59.084 -20.7166 59.084 -20.4546 58.8478L2.64691 38.0228C2.90897 37.7866 2.90897 37.4035 2.64691 37.1673Z" fill="#D5682B"/>
<path d="M-21.5001 -4.61323L-23.5563 -2.75966C-23.8183 -2.52342 -23.8183 -2.1404 -23.5563 -1.90416L-0.452417 18.923C-0.190356 19.1592 0.234532 19.1592 0.496594 18.923L2.55279 17.0694C2.81485 16.8332 2.81485 16.4501 2.55279 16.2139L-20.5511 -4.61323C-20.8131 -4.84946 -21.238 -4.84946 -21.5001 -4.61323Z" fill="#DB9F47"/>
<path d="M-2.49847 17.0667L-0.442279 18.9203C-0.180217 19.1565 0.24467 19.1565 0.506732 18.9203L23.6082 -1.90472C23.8703 -2.14096 23.8703 -2.52398 23.6082 -2.76022L21.552 -4.61378C21.29 -4.85002 20.8651 -4.85002 20.603 -4.61379L-2.49847 16.2112C-2.76053 16.4475 -2.76053 16.8305 -2.49847 17.0667Z" fill="#DB9F47"/>
<path d="M-21.5001 -14.8972L-23.5563 -13.0436C-23.8183 -12.8074 -23.8183 -12.4243 -23.5563 -12.1881L-0.452417 8.63903C-0.190356 8.87527 0.234532 8.87527 0.496594 8.63903L2.55279 6.78546C2.81485 6.54922 2.81485 6.1662 2.55279 5.92997L-20.5511 -14.8972C-20.8131 -15.1334 -21.238 -15.1334 -21.5001 -14.8972Z" fill="#D5682B"/>
<path d="M-2.49847 6.78375L-0.442279 8.63732C-0.180217 8.87355 0.24467 8.87355 0.506732 8.63732L23.6082 -12.1877C23.8703 -12.4239 23.8703 -12.8069 23.6082 -13.0432L21.552 -14.8967C21.29 -15.133 20.8651 -15.133 20.603 -14.8967L-2.49847 5.92825C-2.76053 6.16449 -2.76053 6.54751 -2.49847 6.78375Z" fill="#D5682B"/>
<path d="M412.649 48.5642L414.705 46.7106C414.967 46.4743 414.967 46.0913 414.705 45.8551L391.601 25.028C391.339 24.7917 390.914 24.7917 390.652 25.028L388.596 26.8815C388.334 27.1178 388.334 27.5008 388.596 27.737L411.7 48.5642C411.962 48.8004 412.387 48.8004 412.649 48.5642Z" fill="#DB9F47"/>
<path d="M393.647 26.8834L391.591 25.0298C391.329 24.7936 390.904 24.7936 390.642 25.0298L367.54 45.8548C367.278 46.091 367.278 46.4741 367.54 46.7103L369.596 48.5639C369.858 48.8001 370.283 48.8001 370.545 48.5639L393.647 27.7389C393.909 27.5026 393.909 27.1196 393.647 26.8834Z" fill="#DB9F47"/>
<path d="M412.649 58.848L414.705 56.9944C414.967 56.7582 414.967 56.3751 414.705 56.1389L391.601 35.3118C391.339 35.0755 390.914 35.0755 390.652 35.3118L388.596 37.1653C388.334 37.4016 388.334 37.7846 388.596 38.0208L411.7 58.848C411.962 59.0842 412.387 59.0842 412.649 58.848Z" fill="#D5682B"/>
<path d="M393.647 37.1673L391.591 35.3137C391.329 35.0775 390.904 35.0775 390.642 35.3137L367.54 56.1387C367.278 56.375 367.278 56.758 367.54 56.9942L369.596 58.8478C369.858 59.084 370.283 59.084 370.545 58.8478L393.647 38.0228C393.909 37.7866 393.909 37.4035 393.647 37.1673Z" fill="#D5682B"/>
<path d="M349.196 41.4677L351.253 43.3213C351.515 43.5575 351.939 43.5575 352.202 43.3213L375.305 22.4941C375.567 22.2579 375.567 21.8749 375.305 21.6387L373.249 19.7851C372.987 19.5488 372.562 19.5488 372.3 19.7851L349.196 40.6122C348.934 40.8485 348.934 41.2315 349.196 41.4677Z" fill="#243664"/>
<path d="M373.25 24.3392L375.306 22.4856C375.568 22.2494 375.568 21.8664 375.306 21.6301L352.204 0.805117C351.942 0.56888 351.517 0.568879 351.255 0.805117L349.199 2.65869C348.937 2.89492 348.937 3.27794 349.199 3.51418L372.301 24.3392C372.563 24.5754 372.988 24.5754 373.25 24.3392Z" fill="#243664"/>
<path d="M360.987 41.4677L363.044 43.3213C363.306 43.5575 363.731 43.5575 363.993 43.3213L387.096 22.4941C387.358 22.2579 387.358 21.8749 387.096 21.6387L385.04 19.7851C384.778 19.5488 384.353 19.5488 384.091 19.7851L360.987 40.6122C360.725 40.8485 360.725 41.2315 360.987 41.4677Z" fill="#4E6424"/>
<path d="M385.038 24.3392L387.094 22.4856C387.356 22.2494 387.356 21.8664 387.094 21.6301L363.993 0.805117C363.731 0.56888 363.306 0.568879 363.044 0.805117L360.988 2.65869C360.726 2.89492 360.726 3.27794 360.988 3.51418L384.089 24.3392C384.351 24.5754 384.776 24.5754 385.038 24.3392Z" fill="#4E6424"/>
<path d="M369.5 -4.61323L367.444 -2.75966C367.182 -2.52342 367.182 -2.1404 367.444 -1.90416L390.548 18.923C390.81 19.1592 391.235 19.1592 391.497 18.923L393.553 17.0694C393.815 16.8332 393.815 16.4501 393.553 16.2139L370.449 -4.61323C370.187 -4.84946 369.762 -4.84946 369.5 -4.61323Z" fill="#DB9F47"/>
<path d="M388.502 17.0667L390.558 18.9203C390.82 19.1565 391.245 19.1565 391.507 18.9203L414.609 -1.90472C414.871 -2.14096 414.871 -2.52398 414.609 -2.76022L412.553 -4.61378C412.29 -4.85002 411.866 -4.85002 411.603 -4.61379L388.502 16.2112C388.24 16.4475 388.24 16.8305 388.502 17.0667Z" fill="#DB9F47"/>
<path d="M369.5 -14.8972L367.444 -13.0436C367.182 -12.8074 367.182 -12.4243 367.444 -12.1881L390.548 8.63903C390.81 8.87527 391.235 8.87527 391.497 8.63903L393.553 6.78546C393.815 6.54922 393.815 6.1662 393.553 5.92997L370.449 -14.8972C370.187 -15.1334 369.762 -15.1334 369.5 -14.8972Z" fill="#D5682B"/>
<path d="M388.502 6.78375L390.558 8.63732C390.82 8.87355 391.245 8.87355 391.507 8.63732L414.609 -12.1877C414.871 -12.4239 414.871 -12.8069 414.609 -13.0432L412.553 -14.8967C412.29 -15.133 411.866 -15.133 411.603 -14.8967L388.502 5.92825C388.24 6.16449 388.24 6.54751 388.502 6.78375Z" fill="#D5682B"/>
<path d="M414.934 -1.03735H-36.4609V2.79384H414.934V-1.03735Z" fill="#243664"/>
<path d="M414.934 39.7234H-36.4609V43.5546H414.934V39.7234Z" fill="#243664"/>
</g>
</svg>
