<svg width="134" height="69" viewBox="0 0 134 69" fill="none" xmlns="http://www.w3.org/2000/svg">
<rect width="133.488" height="68.4553" rx="5" fill="white"/>
<rect x="36" y="7" width="5" height="26" fill="#C20018"/>
<rect x="38" y="41" width="4" height="20" fill="#C20018"/>
<rect x="58" y="43" width="4" height="18" fill="#C20018"/>
<rect x="72" y="43" width="4" height="18" fill="#C20018"/>
<rect x="80" y="47" width="4" height="5" fill="#C20018"/>
<rect x="88" y="54" width="4" height="7" fill="#C20018"/>
<rect x="44" y="45" width="4" height="8" transform="rotate(-90 44 45)" fill="#C20018"/>
<rect x="80" y="45" width="4" height="12" transform="rotate(-90 80 45)" fill="#C20018"/>
<rect x="86" y="52" width="4" height="6" transform="rotate(-90 86 52)" fill="#808080"/>
<rect x="80" y="61" width="4" height="6" transform="rotate(-90 80 61)" fill="#808080"/>
<rect x="63" y="45" width="4" height="8" transform="rotate(-90 63 45)" fill="#C20018"/>
<rect x="63" y="56" width="3" height="8" transform="rotate(-90 63 56)" fill="#808080"/>
<rect x="43.8887" y="52.9878" width="3.88889" height="11.6667" transform="rotate(-45 43.8887 52.9878)" fill="#808080"/>
<rect x="19" y="41" width="4" height="4" fill="#C20018"/>
<rect x="19" y="46" width="4" height="4" fill="#808080"/>
<rect x="19" y="52" width="4" height="4" fill="#808080"/>
<rect x="19" y="57" width="4" height="4" fill="#C20018"/>
<rect x="24" y="41" width="6" height="4" fill="#C20018"/>
<rect x="24" y="57" width="7" height="4" fill="#C20018"/>
<rect x="30" y="53" width="4" height="4" fill="#C20018"/>
<rect x="28" y="49" width="4" height="4" fill="#808080"/>
<rect x="29" y="45" width="4" height="4" fill="#C20018"/>
<rect x="44" y="7" width="5" height="18" fill="#C20018"/>
<rect x="52" y="7" width="5" height="26" fill="#C20018"/>
<rect x="67" y="7" width="5" height="5" fill="#C20018"/>
<rect x="96" y="41" width="4" height="4" fill="#C20018"/>
<rect x="82" y="7" width="14" height="5" fill="#C20018"/>
<rect x="67" y="15" width="5" height="18" fill="#808080"/>
<rect x="96" y="47" width="4" height="14" fill="#808080"/>
<rect x="82" y="15" width="5" height="18" fill="#C20018"/>
<rect x="104" y="41" width="4" height="20" fill="#C20018"/>
<rect x="110" y="57" width="6" height="4" fill="#808080"/>
</svg>
