<svg width="155" height="38" viewBox="0 0 155 38" fill="none" xmlns="http://www.w3.org/2000/svg">
<rect x="0.5" y="0.5" width="154" height="37" rx="4.5" fill="white" stroke="#4E6424"/>
<rect x="116" width="39" height="38" rx="5" fill="#4E6424"/>
<path d="M30.58 18.704C31.052 18.792 31.44 19.028 31.744 19.412C32.048 19.796 32.2 20.236 32.2 20.732C32.2 21.18 32.088 21.576 31.864 21.92C31.648 22.256 31.332 22.52 30.916 22.712C30.5 22.904 30.008 23 29.44 23H25.828V14.624H29.284C29.852 14.624 30.34 14.716 30.748 14.9C31.164 15.084 31.476 15.34 31.684 15.668C31.9 15.996 32.008 16.368 32.008 16.784C32.008 17.272 31.876 17.68 31.612 18.008C31.356 18.336 31.012 18.568 30.58 18.704ZM27.508 18.08H29.044C29.444 18.08 29.752 17.992 29.968 17.816C30.184 17.632 30.292 17.372 30.292 17.036C30.292 16.7 30.184 16.44 29.968 16.256C29.752 16.072 29.444 15.98 29.044 15.98H27.508V18.08ZM29.2 21.632C29.608 21.632 29.924 21.536 30.148 21.344C30.38 21.152 30.496 20.88 30.496 20.528C30.496 20.168 30.376 19.888 30.136 19.688C29.896 19.48 29.572 19.376 29.164 19.376H27.508V21.632H29.2ZM33.1069 19.652C33.1069 18.98 33.2389 18.384 33.5029 17.864C33.7749 17.344 34.1389 16.944 34.5949 16.664C35.0589 16.384 35.5749 16.244 36.1429 16.244C36.6389 16.244 37.0709 16.344 37.4389 16.544C37.8149 16.744 38.1149 16.996 38.3389 17.3V16.352H40.0309V23H38.3389V22.028C38.1229 22.34 37.8229 22.6 37.4389 22.808C37.0629 23.008 36.6269 23.108 36.1309 23.108C35.5709 23.108 35.0589 22.964 34.5949 22.676C34.1389 22.388 33.7749 21.984 33.5029 21.464C33.2389 20.936 33.1069 20.332 33.1069 19.652ZM38.3389 19.676C38.3389 19.268 38.2589 18.92 38.0989 18.632C37.9389 18.336 37.7229 18.112 37.4509 17.96C37.1789 17.8 36.8869 17.72 36.5749 17.72C36.2629 17.72 35.9749 17.796 35.7109 17.948C35.4469 18.1 35.2309 18.324 35.0629 18.62C34.9029 18.908 34.8229 19.252 34.8229 19.652C34.8229 20.052 34.9029 20.404 35.0629 20.708C35.2309 21.004 35.4469 21.232 35.7109 21.392C35.9829 21.552 36.2709 21.632 36.5749 21.632C36.8869 21.632 37.1789 21.556 37.4509 21.404C37.7229 21.244 37.9389 21.02 38.0989 20.732C38.2589 20.436 38.3389 20.084 38.3389 19.676ZM42.5238 15.56C42.2278 15.56 41.9798 15.468 41.7798 15.284C41.5878 15.092 41.4918 14.856 41.4918 14.576C41.4918 14.296 41.5878 14.064 41.7798 13.88C41.9798 13.688 42.2278 13.592 42.5238 13.592C42.8198 13.592 43.0638 13.688 43.2558 13.88C43.4558 14.064 43.5558 14.296 43.5558 14.576C43.5558 14.856 43.4558 15.092 43.2558 15.284C43.0638 15.468 42.8198 15.56 42.5238 15.56ZM43.3518 16.352V23H41.6718V16.352H43.3518ZM48.6836 23L47.3156 20.936L46.1036 23H44.3036L46.4756 19.664L44.2796 16.352H46.1756L47.5316 18.404L48.7556 16.352H50.5556L48.3716 19.664L50.5796 23H48.6836ZM51.0601 19.652C51.0601 18.98 51.1921 18.384 51.4561 17.864C51.7281 17.344 52.0921 16.944 52.5481 16.664C53.0121 16.384 53.5281 16.244 54.0961 16.244C54.5921 16.244 55.0241 16.344 55.3921 16.544C55.7681 16.744 56.0681 16.996 56.2921 17.3V16.352H57.9841V23H56.2921V22.028C56.0761 22.34 55.7761 22.6 55.3921 22.808C55.0161 23.008 54.5801 23.108 54.0841 23.108C53.5241 23.108 53.0121 22.964 52.5481 22.676C52.0921 22.388 51.7281 21.984 51.4561 21.464C51.1921 20.936 51.0601 20.332 51.0601 19.652ZM56.2921 19.676C56.2921 19.268 56.2121 18.92 56.0521 18.632C55.8921 18.336 55.6761 18.112 55.4041 17.96C55.1321 17.8 54.8401 17.72 54.5281 17.72C54.2161 17.72 53.9281 17.796 53.6641 17.948C53.4001 18.1 53.1841 18.324 53.0161 18.62C52.8561 18.908 52.7761 19.252 52.7761 19.652C52.7761 20.052 52.8561 20.404 53.0161 20.708C53.1841 21.004 53.4001 21.232 53.6641 21.392C53.9361 21.552 54.2241 21.632 54.5281 21.632C54.8401 21.632 55.1321 21.556 55.4041 21.404C55.6761 21.244 55.8921 21.02 56.0521 20.732C56.2121 20.436 56.2921 20.084 56.2921 19.676ZM61.3049 17.384C61.5209 17.032 61.8009 16.756 62.1449 16.556C62.4969 16.356 62.8969 16.256 63.3449 16.256V18.02H62.9009C62.3729 18.02 61.9729 18.144 61.7009 18.392C61.4369 18.64 61.3049 19.072 61.3049 19.688V23H59.6249V16.352H61.3049V17.384ZM72.4718 21.404H69.1358L68.5838 23H66.8198L69.8318 14.612H71.7878L74.7998 23H73.0238L72.4718 21.404ZM72.0158 20.06L70.8038 16.556L69.5918 20.06H72.0158ZM82.0337 17.216C82.0337 17.664 81.9257 18.084 81.7097 18.476C81.5017 18.868 81.1697 19.184 80.7137 19.424C80.2657 19.664 79.6977 19.784 79.0097 19.784H77.6057V23H75.9257V14.624H79.0097C79.6577 14.624 80.2097 14.736 80.6657 14.96C81.1217 15.184 81.4617 15.492 81.6857 15.884C81.9177 16.276 82.0337 16.72 82.0337 17.216ZM78.9377 18.428C79.4017 18.428 79.7457 18.324 79.9697 18.116C80.1937 17.9 80.3057 17.6 80.3057 17.216C80.3057 16.4 79.8497 15.992 78.9377 15.992H77.6057V18.428H78.9377ZM87.9544 23L84.9064 19.268V23H83.2264V14.624H84.9064V18.38L87.9544 14.624H89.9824L86.5264 18.776L90.0784 23H87.9544Z" fill="#4E6424"/>
<path d="M127.293 18.2929C126.902 18.6834 126.902 19.3166 127.293 19.7071L133.657 26.0711C134.047 26.4616 134.681 26.4616 135.071 26.0711C135.462 25.6805 135.462 25.0474 135.071 24.6569L129.414 19L135.071 13.3431C135.462 12.9526 135.462 12.3195 135.071 11.9289C134.681 11.5384 134.047 11.5384 133.657 11.9289L127.293 18.2929ZM143 18L128 18V20L143 20V18Z" fill="white"/>
</svg>
