<svg width="242" height="268" viewBox="0 0 242 268" fill="none" xmlns="http://www.w3.org/2000/svg">
<ellipse cx="106.5" cy="134" rx="135.5" ry="134" fill="url(#paint0_radial_856_3419)"/>
<ellipse cx="105.103" cy="134" rx="27.9381" ry="27.9167" fill="white"/>
<path d="M83.4788 112.094C84.8757 111.311 86.0975 110.513 87.6404 109.839C88.5263 109.452 89.5234 108.801 90.5341 108.567C91.8375 108.267 91.8842 107.649 93.0121 107.274C94.686 106.717 96.6476 105.973 98.4818 105.733C99.0516 105.658 100.224 105.335 100.711 105.136C101.544 104.795 102.573 104.762 103.275 104.312C103.666 104.06 104.964 104.057 105.498 103.852C106.192 103.587 107.101 103.63 107.683 103.291" stroke="black" stroke-width="3" stroke-linecap="round"/>
<path d="M91.1339 103.292C88.8345 99.1965 84.8107 97.512 81.4095 95.6472C77.3309 93.4112 73.144 92.4527 68.7878 91.3777C64.2978 90.2698 59.7686 89.3853 55.1952 89.3853C54.142 89.3853 52.9622 89.1301 52.0205 89.7513" stroke="black" stroke-width="3" stroke-linecap="round"/>
<ellipse cx="6.15916" cy="20.135" rx="6.15916" ry="20.135" transform="matrix(0.75439 -0.656426 0.657001 0.75389 39.8467 212.919)" fill="#540000"/>
<path d="M60.2946 228.565L59.3378 255.767L35.3291 239.453L60.2946 228.565Z" fill="white"/>
<path d="M65.5717 232.259L74.6133 257.935L46.3027 251.498L65.5717 232.259Z" fill="white"/>
<path d="M68.3656 233.47L77.4072 259.145L49.0966 252.709L68.3656 233.47Z" fill="white"/>
<path d="M62.9289 230.609L65.993 257.655L39.841 245.053L62.9289 230.609Z" fill="white"/>
<path d="M59.0497 223.216L51.6411 249.409L32.2082 227.853L59.0497 223.216Z" fill="white"/>
<defs>
<radialGradient id="paint0_radial_856_3419" cx="0" cy="0" r="1" gradientUnits="userSpaceOnUse" gradientTransform="translate(106.5 134) rotate(90) scale(134 135.5)">
<stop offset="0.395" stop-color="#768ABC"/>
<stop offset="0.69" stop-color="#0D1D46" stop-opacity="0.2"/>
</radialGradient>
</defs>
</svg>
