<svg width="68" height="96" viewBox="0 0 68 96" fill="none" xmlns="http://www.w3.org/2000/svg">
<ellipse cx="19.5" cy="48" rx="48.5" ry="48" fill="url(#paint0_radial_856_3419)"/>
<circle cx="19" cy="48" r="10" fill="white"/>
<path d="M11.26 40.1529C11.76 39.8727 12.1973 39.5868 12.7496 39.3454C13.0667 39.2068 13.4235 38.9733 13.7853 38.8898C14.2519 38.7822 14.2686 38.5608 14.6723 38.4264C15.2714 38.2269 15.9735 37.9606 16.6301 37.8745C16.834 37.8478 17.2537 37.7321 17.428 37.6606C17.726 37.5384 18.0943 37.5268 18.3457 37.3653C18.4858 37.2753 18.9501 37.2741 19.1414 37.2009C19.3899 37.1058 19.7152 37.1213 19.9236 36.9999" stroke="black" stroke-width="3" stroke-linecap="round"/>
<path d="M14 37C13.177 35.5331 11.7367 34.9297 10.5193 34.2617C9.05945 33.4607 7.56079 33.1174 6.00158 32.7323C4.39445 32.3354 2.77332 32.0186 1.13633 32.0186C0.759338 32.0186 0.337077 31.9272 0 32.1497" stroke="black" stroke-width="3" stroke-linecap="round"/>
<ellipse cx="2.04067" cy="80.2587" rx="2.2053" ry="7.21013" transform="rotate(-41.0497 2.04067 80.2587)" fill="#540000"/>
<path d="M2.96148 81.874L2.61904 91.618L-5.9745 85.7741L2.96148 81.874Z" fill="white"/>
<path d="M4.85047 83.1974L8.08676 92.3946L-2.04655 90.0889L4.85047 83.1974Z" fill="white"/>
<path d="M5.85047 83.631L9.08676 92.8282L-1.04655 90.5225L5.85047 83.631Z" fill="white"/>
<path d="M3.90438 82.6063L5.0011 92.2944L-4.35957 87.7802L3.90438 82.6063Z" fill="white"/>
<path d="M2.51586 79.9579L-0.135901 89.3404L-7.09158 81.6191L2.51586 79.9579Z" fill="white"/>
<defs>
<radialGradient id="paint0_radial_856_3419" cx="0" cy="0" r="1" gradientUnits="userSpaceOnUse" gradientTransform="translate(19.5 48) rotate(90) scale(48 48.5)">
<stop offset="0.395" stop-color="#768ABC"/>
<stop offset="0.69" stop-color="#0D1D46" stop-opacity="0.2"/>
</radialGradient>
</defs>
</svg>
