<svg width="278" height="276" viewBox="0 0 278 276" fill="none" xmlns="http://www.w3.org/2000/svg">
<ellipse cx="139" cy="138" rx="139" ry="138" fill="url(#paint0_radial_856_3419)"/>
<ellipse cx="137.567" cy="138" rx="28.6598" ry="28.75" fill="white"/>
<path d="M115.384 115.44C116.817 114.634 118.071 113.812 119.653 113.118C120.562 112.72 121.585 112.048 122.622 111.808C123.959 111.499 124.007 110.862 125.164 110.476C126.881 109.902 128.893 109.137 130.775 108.889C131.359 108.812 132.562 108.48 133.062 108.274C133.916 107.923 134.971 107.89 135.692 107.425C136.093 107.167 137.424 107.163 137.972 106.953C138.685 106.679 139.617 106.724 140.214 106.375" stroke="black" stroke-width="3" stroke-linecap="round"/>
<path d="M123.237 106.375C120.878 102.158 116.75 100.423 113.261 98.5024C109.077 96.1995 104.782 95.2124 100.314 94.1054C95.7077 92.9643 91.0616 92.0535 86.37 92.0535C85.2895 92.0535 84.0793 91.7906 83.1133 92.4304" stroke="black" stroke-width="3" stroke-linecap="round"/>
<ellipse cx="6.32894" cy="20.7011" rx="6.32894" ry="20.7011" transform="matrix(0.753117 -0.657887 0.655539 0.755161 70.625 219.275)" fill="#540000"/>
<path d="M91.6009 235.388L90.6194 263.402L65.9905 246.6L91.6009 235.388Z" fill="white"/>
<path d="M97.0149 239.192L106.29 265.634L77.2482 259.006L97.0149 239.192Z" fill="white"/>
<path d="M99.8806 240.439L109.156 266.881L80.1139 260.252L99.8806 240.439Z" fill="white"/>
<path d="M94.3033 237.493L97.4465 265.346L70.619 252.368L94.3033 237.493Z" fill="white"/>
<path d="M90.3238 229.879L82.7239 256.854L62.7891 234.655L90.3238 229.879Z" fill="white"/>
<defs>
<radialGradient id="paint0_radial_856_3419" cx="0" cy="0" r="1" gradientUnits="userSpaceOnUse" gradientTransform="translate(139 138) rotate(90) scale(138 139)">
<stop offset="0.395" stop-color="#768ABC"/>
<stop offset="0.69" stop-color="#0D1D46" stop-opacity="0.2"/>
</radialGradient>
</defs>
</svg>
