<svg width="72" height="71" viewBox="0 0 72 71" fill="none" xmlns="http://www.w3.org/2000/svg">
<ellipse cx="35.6287" cy="35.5" rx="7.42268" ry="7.39583" fill="#243664"/>
<path d="M29.8839 29.6965C30.255 29.4892 30.5796 29.2778 30.9896 29.0992C31.2249 28.9967 31.4898 28.824 31.7584 28.7623C32.1047 28.6827 32.1171 28.519 32.4167 28.4196C32.8615 28.272 33.3826 28.0751 33.8699 28.0114C34.0213 27.9916 34.3328 27.906 34.4622 27.8532C34.6834 27.7628 34.9568 27.7542 35.1434 27.6348C35.2474 27.5682 35.592 27.5673 35.734 27.5132C35.9185 27.4428 36.1599 27.4543 36.3146 27.3645" stroke="black" stroke-width="3" stroke-linecap="round"/>
<path d="M31.9176 27.3645C31.3067 26.2796 30.2377 25.8333 29.334 25.3393C28.2504 24.7469 27.138 24.493 25.9807 24.2082C24.7877 23.9147 23.5844 23.6804 22.3693 23.6804C22.0895 23.6804 21.7761 23.6128 21.5259 23.7773" stroke="black" stroke-width="3" stroke-linecap="round"/>
<ellipse cx="1.63437" cy="5.34085" rx="1.63437" ry="5.34085" transform="matrix(0.755317 -0.65536 0.658066 0.75296 18.2915 56.4077)" fill="#540000"/>
<path d="M23.7238 60.5526L23.4696 67.7591L17.0909 63.437L23.7238 60.5526Z" fill="white"/>
<path d="M25.1263 61.5314L27.5285 68.3335L20.0069 66.6283L25.1263 61.5314Z" fill="white"/>
<path d="M25.8685 61.8521L28.2707 68.6542L20.7491 66.949L25.8685 61.8521Z" fill="white"/>
<path d="M24.4241 61.0942L25.2382 68.2593L18.29 64.9207L24.4241 61.0942Z" fill="white"/>
<path d="M23.3934 59.1355L21.4251 66.0746L16.2621 60.3641L23.3934 59.1355Z" fill="white"/>
</svg>
