<svg width="215" height="213" viewBox="0 0 215 213" fill="none" xmlns="http://www.w3.org/2000/svg">
<ellipse cx="106.392" cy="106.5" rx="22.1649" ry="22.1875" fill="#243664"/>
<path d="M89.236 89.0893C90.3442 88.4674 91.3135 87.8332 92.5376 87.2976C93.2404 86.99 94.0314 86.472 94.8333 86.2867C95.8674 86.0479 95.9044 85.5568 96.7992 85.2585C98.1273 84.8158 99.6835 84.225 101.139 84.034C101.591 83.9747 102.521 83.718 102.907 83.5593C103.568 83.2882 104.384 83.2626 104.941 82.9043C105.252 82.7046 106.281 82.7018 106.705 82.5394C107.256 82.3284 107.977 82.3628 108.439 82.0935" stroke="black" stroke-width="3" stroke-linecap="round"/>
<path d="M95.3093 82.0938C93.485 78.839 90.2927 77.5002 87.5943 76.0181C84.3586 74.2409 81.0368 73.4792 77.5808 72.6248C74.0186 71.7442 70.4254 71.0413 66.797 71.0413C65.9614 71.0413 65.0254 70.8384 64.2783 71.3321" stroke="black" stroke-width="3" stroke-linecap="round"/>
<ellipse cx="4.89019" cy="15.9905" rx="4.89019" ry="15.9905" transform="matrix(0.753809 -0.657093 0.656334 0.754471 54.6201 169.223)" fill="#540000"/>
<path d="M70.8423 181.658L70.0833 203.277L51.0358 190.311L70.8423 181.658Z" fill="white"/>
<path d="M75.0295 184.594L82.2028 205.001L59.7423 199.885L75.0295 184.594Z" fill="white"/>
<path d="M77.2459 185.556L84.4191 205.963L61.9587 200.847L77.2459 185.556Z" fill="white"/>
<path d="M72.9324 183.283L75.3633 204.778L54.6154 194.762L72.9324 183.283Z" fill="white"/>
<path d="M69.8548 177.407L63.9771 198.224L48.5599 181.092L69.8548 177.407Z" fill="white"/>
</svg>
