<svg width="921" height="3302" viewBox="0 0 921 3302" fill="none" xmlns="http://www.w3.org/2000/svg">
<rect width="920.551" height="3301.2" fill="url(#paint0_linear_1258_1392)"/>
<circle cx="58.8142" cy="20.4567" r="12.2854" stroke="white"/>
<circle cx="818.268" cy="104.841" r="12.2854" stroke="white"/>
<circle cx="524.202" cy="600.915" r="12.2854" stroke="white"/>
<circle cx="355.435" cy="227.581" r="12.2854" stroke="white"/>
<circle cx="25.5716" cy="552.331" r="12.2854" stroke="white"/>
<circle cx="874.523" cy="365.663" r="12.2854" stroke="white"/>
<circle cx="61.3709" cy="1053.52" r="12.2854" stroke="white"/>
<circle cx="802.925" cy="1079.09" r="12.2854" stroke="white"/>
<circle cx="864.296" cy="785.026" r="12.2854" stroke="white"/>
<circle cx="851.51" cy="1437.08" r="12.2854" stroke="white"/>
<circle cx="296.622" cy="1242.74" r="12.2854" stroke="white"/>
<circle cx="897.538" cy="1802.75" r="12.2854" stroke="white"/>
<circle cx="680.184" cy="1963.84" r="12.2854" stroke="white"/>
<circle cx="56.2556" cy="1557.27" r="12.2854" stroke="white"/>
<circle cx="611.144" cy="1653.48" r="12.2854" stroke="white"/>
<circle cx="516.532" cy="2234.89" r="12.2854" stroke="white"/>
<circle cx="80.7854" cy="2548.79" r="12.2854" stroke="white"/>
<circle cx="692.971" cy="2574.99" r="12.2854" stroke="white"/>
<circle cx="772.242" cy="2935.54" r="12.2854" stroke="white"/>
<circle cx="395.785" cy="2934.79" r="12.2854" stroke="white"/>
<path d="M42.9717 1935.71C42.9717 1942.5 37.4714 1948 30.6863 1948C23.9013 1948 18.4009 1942.5 18.4009 1935.71C18.4009 1928.93 23.9013 1923.43 30.6863 1923.43C37.4714 1923.43 42.9717 1928.93 42.9717 1935.71Z" stroke="white"/>
<defs>
<linearGradient id="paint0_linear_1258_1392" x1="460.276" y1="0" x2="460.276" y2="3301.2" gradientUnits="userSpaceOnUse">
<stop offset="0.26" stop-color="#2E4FA3"/>
<stop offset="0.54" stop-color="#253F82"/>
<stop offset="0.84" stop-color="#111E3D"/>
</linearGradient>
</defs>
</svg>
