<svg width="360" height="1291" viewBox="0 0 360 1291" fill="none" xmlns="http://www.w3.org/2000/svg">
<rect width="360" height="1291" fill="url(#paint0_linear_1258_1392)"/>
<circle cx="23" cy="8" r="4.5" stroke="white"/>
<circle cx="320" cy="41" r="4.5" stroke="white"/>
<circle cx="205" cy="235" r="4.5" stroke="white"/>
<circle cx="139" cy="89" r="4.5" stroke="white"/>
<circle cx="10" cy="216" r="4.5" stroke="white"/>
<circle cx="342" cy="143" r="4.5" stroke="white"/>
<circle cx="24" cy="412" r="4.5" stroke="white"/>
<circle cx="314" cy="422" r="4.5" stroke="white"/>
<circle cx="338" cy="307" r="4.5" stroke="white"/>
<circle cx="333" cy="562" r="4.5" stroke="white"/>
<circle cx="116" cy="486" r="4.5" stroke="white"/>
<circle cx="351" cy="705" r="4.5" stroke="white"/>
<circle cx="266" cy="768" r="4.5" stroke="white"/>
<circle cx="22" cy="609" r="4.5" stroke="white"/>
<circle cx="239" cy="604" r="4.5" stroke="white"/>
<circle cx="202" cy="874" r="4.5" stroke="white"/>
<circle cx="28" cy="936" r="4.5" stroke="white"/>
<circle cx="271" cy="1007" r="4.5" stroke="white"/>
<circle cx="302" cy="1148" r="4.5" stroke="white"/>
<circle cx="102" cy="1046" r="4.5" stroke="white"/>
<path d="M16.5 757C16.5 759.485 14.4853 761.5 12 761.5C9.51472 761.5 7.5 759.485 7.5 757C7.5 754.515 9.51472 752.5 12 752.5C14.4853 752.5 16.5 754.515 16.5 757Z" stroke="white"/>
<defs>
<linearGradient id="paint0_linear_1258_1392" x1="180" y1="0" x2="180" y2="1291" gradientUnits="userSpaceOnUse">
<stop offset="0.26" stop-color="#2E4FA3"/>
<stop offset="0.54" stop-color="#253F82"/>
<stop offset="0.84" stop-color="#111E3D"/>
</linearGradient>
</defs>
</svg>
