<svg width="131" height="108" viewBox="0 0 131 108" fill="none" xmlns="http://www.w3.org/2000/svg">
<path d="M1.56262 107.182H129.437C130.297 107.182 131 106.479 131 105.619V99.4983C131 98.6388 130.297 97.9355 129.437 97.9355H1.56262C0.703186 97.9355 0 98.6388 0 99.4983V105.619C0 106.479 0.703186 107.182 1.56262 107.182Z" fill="#414042"/>
<path d="M64.3605 99.7478C40.3399 99.7478 20.8674 80.2731 20.8674 56.2499C20.8674 32.2267 40.3399 12.7521 64.3605 12.7521C88.381 12.7521 107.854 32.2267 107.854 56.2499C107.854 80.2731 88.381 99.7478 64.3605 99.7478Z" fill="white"/>
<path d="M10.5482 87.3729C9.62363 85.0157 8.68606 82.398 9.55853 80.0277C9.76688 79.4547 10.0924 78.8426 9.89709 78.2566C9.63666 77.4621 8.59491 77.1887 8.25634 76.4333C7.86568 75.5998 8.47771 74.6361 8.32145 73.7375C8.16519 72.8258 7.26667 72.2268 6.39421 71.9012C5.52174 71.5756 4.57115 71.3672 3.86797 70.7682C2.52672 69.5961 2.68298 67.4993 2.98248 65.7281C3.28199 63.97 3.50336 61.8863 2.21419 60.649C4.58417 61.1049 7.00624 61.5737 9.06369 62.8239C11.1211 64.0742 12.7619 66.2881 12.6447 68.6975C12.5796 69.9086 12.1108 71.1979 12.6577 72.2658C13.2567 73.4249 14.8584 73.8807 15.2621 75.1179C15.7309 76.5375 14.3376 77.8398 13.7906 79.2333C13.2698 80.5487 13.5172 82.0203 13.4 83.4138C13.2828 84.8203 12.5536 86.4091 11.1602 86.6175L10.5482 87.3729Z" fill="#D5682B"/>
<path opacity="0.31" d="M10.5482 87.3729C9.62363 85.0157 8.68606 82.398 9.55853 80.0277C9.76688 79.4547 10.0924 78.8426 9.89709 78.2566C9.63666 77.4621 8.59491 77.1887 8.25634 76.4333C7.86568 75.5998 8.47771 74.6361 8.32145 73.7375C8.16519 72.8258 7.26667 72.2268 6.39421 71.9012C5.52174 71.5756 4.57115 71.3672 3.86797 70.7682C2.52672 69.5961 2.68298 67.4993 2.98248 65.7281C3.28199 63.97 3.50336 61.8863 2.21419 60.649C4.58417 61.1049 7.00624 61.5737 9.06369 62.8239C11.1211 64.0742 12.7619 66.2881 12.6447 68.6975C12.5796 69.9086 12.1108 71.1979 12.6577 72.2658C13.2567 73.4249 14.8584 73.8807 15.2621 75.1179C15.7309 76.5375 14.3376 77.8398 13.7906 79.2333C13.2698 80.5487 13.5172 82.0203 13.4 83.4138C13.2828 84.8203 12.5536 86.4091 11.1602 86.6175L10.5482 87.3729Z" fill="white"/>
<path d="M11.4982 84.2866C11.5242 77.4364 10.196 63.0977 2.2917 60.7014" stroke="white" stroke-width="0.75" stroke-miterlimit="10" stroke-linecap="round"/>
<path d="M16.0561 86.8004C17.4624 84.1697 18.9209 81.2395 18.2307 78.3353C18.0614 77.632 17.7749 76.8767 18.0744 76.2125C18.4781 75.3269 19.7413 75.1316 20.2491 74.2981C20.809 73.3864 20.2361 72.1623 20.5486 71.1334C20.8611 70.0785 21.994 69.5185 23.0488 69.245C24.1036 68.9846 25.2495 68.8804 26.161 68.2553C27.8929 67.0701 27.9971 64.5827 27.8929 62.4859C27.7888 60.3892 27.8148 57.9148 29.4946 56.6515C26.6559 56.8599 23.752 57.0813 21.1737 58.2664C18.5953 59.4515 16.3556 61.8217 16.1733 64.6608C16.0821 66.0804 16.4597 67.6562 15.6654 68.8413C14.806 70.1176 12.8657 70.4301 12.2146 71.8236C11.4724 73.4255 12.9178 75.1316 13.3736 76.8376C13.7903 78.4395 13.3084 80.1325 13.2564 81.7865C13.2043 83.4404 13.8423 85.407 15.444 85.8497L16.0561 86.8004Z" fill="#D5682B"/>
<path d="M15.3656 83.05C16.2771 75.0146 19.793 58.4099 29.3901 56.7039" stroke="white" stroke-width="0.75" stroke-miterlimit="10" stroke-linecap="round"/>
<path d="M7.16206 102.233H19.5328C20.3923 102.233 21.0955 101.53 21.0955 100.67L22.1372 82.8281C22.1372 81.9685 21.434 81.2653 20.5746 81.2653H6.12031C5.26087 81.2653 4.55768 81.9685 4.55768 82.8281L5.59943 100.67C5.59943 101.53 6.30262 102.233 7.16206 102.233Z" fill="#FFE3CA"/>
<path d="M119.339 45.5685L111.357 44.358L105.93 80.1536L113.912 81.3641L119.339 45.5685Z" fill="#D5682B"/>
<path d="M115.352 44.9672L111.36 44.3619L105.933 80.1576L109.925 80.7628L115.352 44.9672Z" fill="#D5682B"/>
<path d="M111.35 44.3961L119.333 45.6072L117.457 40.8016L116.39 38.0928L114.567 40.3719L111.35 44.3961Z" fill="#FDC3AB"/>
<path d="M114.566 40.3719L117.457 40.8016L116.389 38.0928L114.566 40.3719Z" fill="white"/>
<path d="M104.941 36.1635L96.9001 36.8836L100.129 72.9436L108.17 72.2234L104.941 36.1635Z" fill="#D5682B"/>
<path d="M100.913 36.526L96.892 36.8861L100.121 72.9461L104.141 72.586L100.913 36.526Z" fill="#D5682B"/>
<path d="M96.8958 36.9211L104.943 36.2048L101.974 31.9853L100.295 29.602L99.0705 32.2457L96.8958 36.9211Z" fill="#FDC3AB"/>
<path d="M99.0702 32.2457L101.974 31.9853L100.294 29.602L99.0702 32.2457Z" fill="#A04D00"/>
<path d="M91.6086 102.363H123.33L127.484 53.2655H89.0694L91.6086 102.363Z" fill="#FFE3CA"/>
<path opacity="0.5" d="M108.277 102.363H91.6089L89.0696 53.2655H108.277V102.363Z" fill="#FFE3CA"/>
<path d="M101.31 88.5065H20.7047V99.5893H101.31V88.5065Z" fill="#FDC3AB"/>
<path d="M100.972 88.5063V99.5891H16.4078V100.423C16.4078 101.451 17.3063 102.285 18.4132 102.285H100.607C103.225 102.285 105.347 100.331 105.347 97.9091V90.4989C105.347 88.0765 103.225 86.123 100.607 86.123H18.4132C17.3063 86.123 16.4078 86.9565 16.4078 87.9854V88.5193H100.972V88.5063Z" fill="#D5682B"/>
<path d="M101.31 93.4429H20.7047V99.5768H101.31V93.4429Z" fill="#FDC3AB"/>
<path d="M90.8926 75.0145H25.3926V84.6518H90.8926V75.0145Z" fill="#FFE3CA"/>
<path d="M90.8928 75.0142V84.6514H22.9186V85.3807C22.9186 86.2794 23.6479 86.9956 24.5334 86.9956H90.6063C92.7028 86.9956 94.4087 85.2896 94.4087 83.1928V76.7463C94.4087 74.6495 92.7028 72.9435 90.6063 72.9435H24.5334C23.6479 72.9435 22.9186 73.6728 22.9186 74.5584V75.0272H90.8928V75.0142Z" fill="#4E6424"/>
<path d="M62.5834 42.2088C63.4819 41.0237 63.5601 39.3958 62.7136 38.1586C62.0365 37.1688 61.5807 35.9446 61.6328 35.046C61.737 33.4311 62.7397 31.9464 64.107 31.0609C65.904 29.8888 68.3 29.7195 70.2403 30.6311C72.1806 31.5427 73.5869 33.4962 73.8343 35.619C74.0166 37.1427 73.665 38.8097 74.4464 40.1381C75.0193 41.0888 76.0741 41.6488 77.1158 42.0265C78.1706 42.3911 79.2775 42.6386 80.2411 43.1986C81.2047 43.7586 82.0251 44.7223 82.0121 45.8423C81.999 46.6888 81.5172 47.4702 81.4651 48.3037C81.387 49.5279 82.2465 50.6088 83.158 51.4163C84.0825 52.2237 85.1373 52.927 85.7624 53.9819C86.7911 55.727 86.3093 58.0842 85.0071 59.647C83.7049 61.2098 81.7516 62.0824 79.7983 62.5903C74.4594 63.9968 68.8339 63.0852 63.3257 62.994C61.6198 62.968 59.8749 63.0201 58.2211 62.5903C56.5673 62.1605 54.9526 61.1707 54.2625 59.608C53.5593 58.0452 53.9109 56.1438 54.8484 54.7242C55.786 53.3047 57.2575 52.2758 58.8071 51.5465C59.927 51.0126 61.125 50.5958 62.0365 49.7623C62.948 48.9288 63.4819 47.5093 62.8699 46.4284C62.6355 46.0116 62.2449 45.686 62.0235 45.2693C61.5807 44.4618 61.7631 43.433 62.2579 42.6516C62.349 42.5214 62.4532 42.3781 62.5834 42.2088Z" fill="#48444C"/>
<path d="M90.8926 79.3125H25.3926V84.6521H90.8926V79.3125Z" fill="#FFE3CA"/>
<path d="M61.3333 65.6378L53.2597 71.3681L43.3631 91.8147H45.1862L56.2548 73.7123C56.2548 73.7123 60.0311 73.8425 61.3333 72.6704C62.6355 71.4983 70.123 66.4192 70.123 66.4192L61.3333 65.6378Z" fill="#414042"/>
<path d="M75.6176 63.9969C77.089 67.9821 76.0473 73.5821 71.099 73.8426C66.1507 74.103 64.588 73.8426 64.588 73.8426L54.9518 93.3775H52.7381L60.2908 71.4984L69.4712 66.4193L75.6176 63.9969Z" fill="#48444C"/>
<path d="M68.1044 41.2841C66.8022 42.9771 63.677 47.6655 62.505 52.8749C61.3331 58.0842 58.0776 65.6377 58.0776 65.6377H61.8539L65.5001 53.2656L68.8857 41.6748L68.1044 41.2841Z" fill="#FDC3AB"/>
<path d="M64.0939 34.3688C63.8986 37.5595 65.2919 39.7474 67.2843 39.8516C69.2766 39.9558 70.5788 37.0646 69.9798 34.3688C68.5864 31.9725 66.6853 31.7772 66.6853 31.7772H65.4872L64.0939 34.3688Z" fill="#FDC3AB"/>
<path d="M65.4221 32.4667C65.7867 33.5867 66.594 34.5504 67.6358 35.0974C68.6775 35.6444 69.9276 35.7746 71.0605 35.436L68.2218 31.3857H65.7867L63.4558 33.2351L63.8074 35.3579C64.7189 34.6676 65.4221 32.4667 65.4221 32.4667Z" fill="#48444C"/>
<path d="M67.8829 39.4742C68.2996 41.0891 68.1694 42.7821 68.1694 43.0426C68.5601 43.5635 70.3831 43.4333 70.6436 41.6101C70.2529 39.2659 69.4716 36.6612 69.4716 36.6612L68.8205 38.0938L67.8829 39.4742Z" fill="#FDC3AB"/>
<path d="M70.3834 40.2287C72.0111 40.7627 77.4803 43.2371 77.7407 43.758C77.3501 45.1906 75.3968 66.4186 75.3968 66.4186H66.5419C66.5419 66.4186 67.7139 54.6976 67.0628 53.9162C66.4117 53.1348 64.3282 50.3999 64.5886 50.0092C64.8491 49.6185 68.1566 41.2185 68.1566 41.2185L70.3834 40.2287Z" fill="#243664"/>
<path d="M77.7411 43.7581C79.0173 44.7348 84.3823 53.5255 82.6895 58.2139C80.9966 62.9023 75.4623 65.6633 75.4623 65.6633V63.0846C75.4623 63.0846 79.9549 59.5163 79.6944 56.9116C79.434 54.3069 76.3087 48.9674 76.3087 48.9674L77.7411 43.7581Z" fill="#FDC3AB"/>
<path d="M56.762 67.9168H75.9302C76.5292 67.9168 77.024 67.4219 77.024 66.8229L77.5449 54.5549C77.5449 53.9558 77.0501 53.4609 76.4511 53.4609H56.5016C55.9026 53.4609 55.4077 53.9558 55.4077 54.5549L55.6682 66.8229C55.6682 67.4219 56.163 67.9168 56.762 67.9168Z" fill="#D5682B"/>
<path d="M53.0509 93.3769C51.7617 93.6635 50.0168 95.083 49.1834 95.8123C49.0141 95.9556 49.1182 96.2421 49.3526 96.2421C50.6939 96.216 53.728 96.0728 54.4312 95.4737C55.3427 94.6923 55.0823 93.39 55.0823 93.39H53.0509V93.3769ZM43.3886 91.7621C42.2427 92.0746 40.7322 93.403 39.9769 94.1193C39.8076 94.2756 39.9378 94.549 40.1592 94.536C41.4223 94.4449 44.1309 94.1974 44.7429 93.6114C45.5503 92.856 45.2508 91.6709 45.2508 91.6709L43.3886 91.7621Z" fill="#FDC3AB"/>
<path d="M66.412 62.6421C65.3332 62.6421 64.4587 61.7675 64.4587 60.6886C64.4587 59.6097 65.3332 58.7351 66.412 58.7351C67.4907 58.7351 68.3652 59.6097 68.3652 60.6886C68.3652 61.7675 67.4907 62.6421 66.412 62.6421Z" fill="white"/>
<path d="M83.6005 88.4283L86.0747 86.9957L88.5488 88.4283V79.312H83.6005V88.4283ZM45.2381 34.4467C45.2381 34.6941 45.3292 34.9155 45.4855 35.0978C45.3292 35.2672 45.2381 35.5016 45.2381 35.749V36.5565C45.2381 36.7258 45.2902 36.8951 45.3683 37.0383C45.2902 37.1816 45.2381 37.3509 45.2381 37.5202V38.3276C45.2381 38.8616 45.6678 39.2914 46.2017 39.2914H54.5878C55.1217 39.2914 55.5514 38.8616 55.5514 38.3276V37.5072C55.5514 37.3379 55.4993 37.1686 55.4212 37.0253C55.4993 36.882 55.5514 36.7127 55.5514 36.5434V35.736C55.5514 35.4886 55.4603 35.2671 55.304 35.0848C55.4603 34.9155 55.5514 34.6811 55.5514 34.4337V33.6262C55.5514 33.0923 55.1217 32.6625 54.5878 32.6625H46.2017C45.6678 32.6625 45.2381 33.0923 45.2381 33.6262V34.4467ZM38.5449 16.188C38.5449 20.8894 41.2794 24.9397 45.2381 26.8671V31.2429C45.2381 31.5685 45.5116 31.842 45.8371 31.842H54.9524C55.278 31.842 55.5514 31.5685 55.5514 31.2429V26.8671C59.5101 24.9527 62.2447 20.8894 62.2447 16.188C62.2447 9.63728 56.9448 4.33679 50.3948 4.33679C43.8448 4.33679 38.5449 9.6503 38.5449 16.188Z" fill="#D5682B"/>
<path d="M92.7432 89.2654V98.5397L95.0617 96.8008L97.96 98.5397V89.2654H92.7432Z" fill="#4E6424"/>
<path opacity="0.23" d="M46.3579 35.1631H54.3013M46.3579 36.9863H54.3013" stroke="#48444C" stroke-width="2" stroke-miterlimit="10" stroke-linecap="round"/>
<path d="M48.3633 17.647C48.5065 17.5168 48.7149 17.4517 48.9362 17.4777C49.2097 17.5038 49.4701 17.66 49.6394 17.8814C49.7827 18.0768 49.8608 18.3112 49.8998 18.5326C50.017 18.4675 50.1473 18.4024 50.2645 18.3242L50.3035 18.2982H50.4728L50.5119 18.3242C50.6421 18.4024 50.7593 18.4675 50.8765 18.5326C50.9156 18.3112 50.9937 18.0768 51.1369 17.8814C51.2932 17.66 51.5666 17.5038 51.8401 17.4777C52.0615 17.4517 52.2568 17.5168 52.4131 17.647C52.6084 17.8293 52.6735 18.0898 52.6084 18.3633C52.5042 18.7279 52.2047 19.0275 51.8531 19.0926C51.6318 19.1317 51.4234 19.1186 51.202 19.0665C50.8765 23.2991 50.7463 27.5838 50.8374 31.8164H50.4468C50.3556 27.5708 50.4858 23.2731 50.8114 19.0405C50.8114 19.0014 50.8114 18.9624 50.8244 18.9233C50.6681 18.8582 50.5249 18.78 50.3817 18.6889C50.2384 18.767 50.0952 18.8582 49.9389 18.9233C49.9389 18.9624 49.9389 19.0014 49.9519 19.0405C50.2775 23.2731 50.4077 27.5708 50.3166 31.8164H49.9259C50.017 27.5838 49.8868 23.2861 49.5613 19.0665C49.3529 19.1186 49.1316 19.1447 48.9102 19.0926C48.5716 19.0275 48.2591 18.7279 48.1549 18.3633C48.1028 18.0898 48.1679 17.8293 48.3633 17.647ZM51.788 18.7279C51.9833 18.6889 52.1787 18.4935 52.2438 18.2721C52.2698 18.181 52.2828 18.0377 52.1656 17.9465C52.1005 17.8814 52.0094 17.8684 51.9443 17.8684H51.8922C51.7359 17.8814 51.5666 17.9726 51.4625 18.1158C51.3453 18.2721 51.2802 18.4675 51.2541 18.6889C51.4364 18.741 51.6057 18.754 51.788 18.7279ZM48.5456 18.2721C48.6107 18.4935 48.793 18.6889 49.0013 18.7279C49.1706 18.767 49.3529 18.741 49.5222 18.6889C49.4831 18.4675 49.4311 18.2721 49.3139 18.1158C49.2227 17.9856 49.0534 17.8945 48.8841 17.8684C48.806 17.8554 48.7018 17.8684 48.6107 17.9465C48.5195 18.0377 48.5326 18.181 48.5456 18.2721Z" fill="white"/>
<path d="M53.5196 6.51166C56.3844 7.55352 61.0723 11.3303 60.6816 17.4512" stroke="white" stroke-width="4" stroke-miterlimit="10" stroke-linecap="round"/>
<path d="M69.2112 27.74C67.3773 27.74 65.8906 26.2532 65.8906 24.4191C65.8906 22.585 67.3773 21.0981 69.2112 21.0981C71.0451 21.0981 72.5317 22.585 72.5317 24.4191C72.5317 26.2532 71.0451 27.74 69.2112 27.74Z" fill="#D5682B"/>
<path d="M33.6617 14.9766C32.8346 14.9766 32.1641 14.306 32.1641 13.4789C32.1641 12.6517 32.8346 11.9812 33.6617 11.9812C34.4887 11.9812 35.1592 12.6517 35.1592 13.4789C35.1592 14.306 34.4887 14.9766 33.6617 14.9766Z" fill="#D5682B"/>
<path d="M38.5449 39.4605C37.1784 39.4605 36.0707 38.3527 36.0707 36.9861C36.0707 35.6195 37.1784 34.5117 38.5449 34.5117C39.9113 34.5117 41.019 35.6195 41.019 36.9861C41.019 38.3527 39.9113 39.4605 38.5449 39.4605Z" fill="#D5682B"/>
<path d="M62.2446 4.94892C60.8782 4.94892 59.7704 3.84108 59.7704 2.47449C59.7704 1.1079 60.8782 6.10352e-05 62.2446 6.10352e-05C63.611 6.10352e-05 64.7188 1.1079 64.7188 2.47449C64.7188 3.84108 63.611 4.94892 62.2446 4.94892Z" fill="#D5682B"/>
<rect x="100.151" y="88.5178" width="1.15929" height="5.21681" fill="#FDC3AB"/>
</svg>
