<svg width="103" height="34" viewBox="0 0 103 34" fill="none" xmlns="http://www.w3.org/2000/svg">
<path d="M13.1586 6.00555C13.2196 6.06603 13.2824 6.12458 13.347 6.1811C13.4116 6.12458 13.4745 6.06603 13.5354 6.00555C13.6112 4.61411 14.0033 3.30772 14.6404 2.15835C14.4432 1.3053 13.9814 0.554871 13.347 0C12.7127 0.554871 12.2509 1.3053 12.0537 2.15835C12.6908 3.30772 13.0829 4.61411 13.1586 6.00555Z" fill="#D5682B"/>
<path d="M13.347 7.1326C13.4123 7.12262 13.4771 7.11106 13.5413 7.09797C13.5285 6.90114 13.5219 6.70257 13.5219 6.50246C13.5219 6.44384 13.5225 6.38535 13.5236 6.327C13.4634 6.28002 13.4045 6.23136 13.347 6.1811C13.2896 6.23136 13.2307 6.28002 13.1705 6.327C13.1716 6.38535 13.1721 6.44384 13.1721 6.50246C13.1721 6.70257 13.1656 6.90114 13.1527 7.09797C13.217 7.11106 13.2817 7.12262 13.347 7.1326Z" fill="#D5682B"/>
<path d="M13.5354 6.00555C13.4745 6.06603 13.4116 6.12458 13.347 6.1811C13.4045 6.23136 13.4634 6.28002 13.5236 6.327C13.5257 6.21937 13.5296 6.11221 13.5354 6.00555Z" fill="#D5682B"/>
<path d="M13.347 6.1811C13.2824 6.12458 13.2196 6.06603 13.1586 6.00555C13.1645 6.11221 13.1684 6.21937 13.1705 6.327C13.2307 6.28002 13.2896 6.23136 13.347 6.1811Z" fill="#D5682B"/>
<path d="M13.347 7.88487C13.4411 7.88487 13.5348 7.88634 13.6282 7.88925C13.5909 7.64853 13.5632 7.40461 13.5454 7.1579C13.4788 7.15108 13.4127 7.14264 13.347 7.1326C13.2814 7.14264 13.2152 7.15108 13.1486 7.1579C13.1308 7.40461 13.1031 7.64853 13.0659 7.88925C13.1592 7.88634 13.253 7.88487 13.347 7.88487Z" fill="#D5682B"/>
<path d="M13.5413 7.09797C13.4771 7.11106 13.4123 7.12262 13.347 7.1326C13.4127 7.14264 13.4788 7.15108 13.5454 7.1579C13.544 7.13794 13.5426 7.11797 13.5413 7.09797Z" fill="#D5682B"/>
<path d="M13.347 7.1326C13.2817 7.12262 13.217 7.11106 13.1527 7.09797C13.1514 7.11797 13.1501 7.13794 13.1486 7.1579C13.2152 7.15108 13.2814 7.14264 13.347 7.1326Z" fill="#D5682B"/>
<path d="M10.319 6.43354C10.4544 6.52739 10.5956 6.61324 10.7422 6.6904C10.8833 6.50113 11.0085 6.29917 11.1156 6.08654C10.3023 5.3405 9.7922 4.26798 9.7922 3.07611C9.7922 2.54684 9.89278 2.0411 10.0758 1.57704C9.82439 1.29324 9.5551 1.02567 9.26972 0.776093C8.82286 1.43097 8.56152 2.22296 8.56152 3.07611C8.56152 3.37474 8.59354 3.66587 8.65433 3.94625C8.73289 4.09085 8.80298 4.24074 8.86393 4.39524C9.43938 4.99986 9.9307 5.68558 10.319 6.43354Z" fill="#243664"/>
<path d="M11.5503 4.25035C11.5503 4.10459 11.5427 3.96062 11.5278 3.81881C11.1571 2.99748 10.6656 2.24263 10.0758 1.57704C9.89278 2.0411 9.7922 2.54684 9.7922 3.07611C9.7922 4.26798 10.3023 5.3405 11.1156 6.08654C11.3937 5.53462 11.5503 4.91081 11.5503 4.25035Z" fill="#243664"/>
<path d="M12.2242 6.81191C12.2447 6.80287 12.2651 6.79366 12.2854 6.78429C12.2044 5.73414 11.9413 4.73511 11.5278 3.81881C11.5427 3.96062 11.5503 4.10459 11.5503 4.25035C11.5503 4.91081 11.3937 5.53462 11.1156 6.08654C11.441 6.38501 11.815 6.63122 12.2242 6.81191Z" fill="#243664"/>
<path d="M11.1156 6.08654C11.0085 6.29917 10.8833 6.50113 10.7422 6.6904C11.0144 6.83373 11.3047 6.94711 11.6089 7.02615C11.8212 6.97097 12.0269 6.89906 12.2242 6.81191C11.815 6.63122 11.441 6.38501 11.1156 6.08654Z" fill="#243664"/>
<path d="M10.7422 6.6904C10.6825 6.77043 10.6199 6.8482 10.5547 6.92354C10.5888 7.00046 10.6219 7.07795 10.6539 7.156C10.9832 7.1504 11.303 7.10563 11.6089 7.02615C11.3047 6.94711 11.0144 6.83373 10.7422 6.6904Z" fill="#243664"/>
<path d="M12.3059 7.14352C12.3022 7.04192 12.2967 6.94076 12.2896 6.84007C12.2677 6.83087 12.2459 6.82148 12.2242 6.81191C12.0269 6.89906 11.8212 6.97097 11.6089 7.02615C11.8343 7.08471 12.0672 7.12442 12.3059 7.14352Z" fill="#243664"/>
<path d="M12.3019 7.91074C12.3087 7.76786 12.3122 7.62409 12.3122 7.47951C12.3122 7.36701 12.3101 7.255 12.3059 7.14352C12.0672 7.12442 11.8343 7.08471 11.6089 7.02615C11.303 7.10563 10.9832 7.1504 10.6539 7.156C10.7857 7.47765 10.8993 7.80876 10.9933 8.14802C11.4181 8.03769 11.8551 7.95778 12.3019 7.91074Z" fill="#243664"/>
<path d="M10.7422 6.6904C10.5956 6.61324 10.4544 6.52739 10.319 6.43354C10.4024 6.59407 10.481 6.75746 10.5547 6.92354C10.6199 6.8482 10.6825 6.77043 10.7422 6.6904Z" fill="#243664"/>
<path d="M16.2454 6.56278C16.1101 6.65663 15.9688 6.74248 15.8223 6.81964C15.6811 6.63037 15.556 6.42841 15.4488 6.21578C16.2622 5.46974 16.7723 4.39722 16.7723 3.20535C16.7723 2.67608 16.6717 2.17034 16.4886 1.70628C16.7401 1.42248 17.0094 1.15491 17.2947 0.905334C17.7416 1.56021 18.0029 2.3522 18.0029 3.20535C18.0029 3.50398 17.9709 3.79511 17.9101 4.0755C17.8316 4.22009 17.7615 4.36998 17.7005 4.52448C17.1251 5.12911 16.6338 5.81482 16.2454 6.56278Z" fill="#243664"/>
<path d="M15.0141 4.37959C15.0141 4.23384 15.0218 4.08986 15.0367 3.94806C15.4073 3.12672 15.8989 2.37187 16.4886 1.70628C16.6717 2.17034 16.7723 2.67608 16.7723 3.20535C16.7723 4.39722 16.2622 5.46974 15.4488 6.21578C15.1708 5.66386 15.0141 5.04005 15.0141 4.37959Z" fill="#243664"/>
<path d="M14.3402 6.94115C14.3197 6.93211 14.2993 6.9229 14.279 6.91353C14.3601 5.86338 14.6231 4.86435 15.0367 3.94806C15.0218 4.08986 15.0141 4.23384 15.0141 4.37959C15.0141 5.04005 15.1708 5.66386 15.4488 6.21578C15.1234 6.51425 14.7495 6.76046 14.3402 6.94115Z" fill="#243664"/>
<path d="M15.4488 6.21578C15.556 6.42841 15.6811 6.63037 15.8223 6.81964C15.5501 6.96297 15.2597 7.07635 14.9555 7.15539C14.7432 7.10021 14.5376 7.0283 14.3402 6.94115C14.7495 6.76046 15.1234 6.51425 15.4488 6.21578Z" fill="#243664"/>
<path d="M15.8223 6.81964C15.882 6.89967 15.9445 6.97744 16.0098 7.05278C15.9757 7.1297 15.9426 7.20719 15.9106 7.28524C15.5812 7.27964 15.2614 7.23487 14.9555 7.15539C15.2597 7.07635 15.5501 6.96297 15.8223 6.81964Z" fill="#243664"/>
<path d="M14.2585 7.27276C14.2623 7.17116 14.2678 7.07 14.2749 6.96931C14.2968 6.96011 14.3185 6.95072 14.3402 6.94115C14.5376 7.0283 14.7432 7.10021 14.9555 7.15539C14.7302 7.21395 14.4973 7.25367 14.2585 7.27276Z" fill="#243664"/>
<path d="M14.2626 8.03999C14.2557 7.8971 14.2523 7.75333 14.2523 7.60876C14.2523 7.49626 14.2544 7.38424 14.2585 7.27276C14.4973 7.25367 14.7302 7.21395 14.9555 7.15539C15.2614 7.23487 15.5812 7.27964 15.9106 7.28524C15.7788 7.60689 15.6652 7.938 15.5712 8.27726C15.1464 8.16693 14.7094 8.08702 14.2626 8.03999Z" fill="#243664"/>
<path d="M15.8223 6.81964C15.9688 6.74248 16.1101 6.65663 16.2454 6.56278C16.1621 6.72331 16.0835 6.8867 16.0098 7.05278C15.9445 6.97744 15.882 6.89967 15.8223 6.81964Z" fill="#243664"/>
<path fill-rule="evenodd" clip-rule="evenodd" d="M15.9337 33.521C16.2337 33.521 16.4769 33.2765 16.4769 32.9749V10.222C16.4769 9.92045 16.2337 9.67596 15.9337 9.67596H10.5017C10.2017 9.67596 9.95853 9.92045 9.95853 10.222V32.9749C9.95853 33.2765 10.2017 33.521 10.5017 33.521H15.9337ZM14.4852 12.9524V30.2445C14.4852 30.9482 13.9177 31.5187 13.2177 31.5187C12.5177 31.5187 11.9502 30.9482 11.9502 30.2445V12.9524C11.9502 12.2487 12.5177 11.6782 13.2177 11.6782C13.9177 11.6782 14.4852 12.2487 14.4852 12.9524Z" fill="#4E6424"/>
<path fill-rule="evenodd" clip-rule="evenodd" d="M20.4765 9.67596H26.0055C26.3108 9.67596 26.5584 9.92045 26.5584 10.222V11.1321C26.5584 11.4337 26.3108 11.6782 26.0055 11.6782H25.4526C24.7401 11.6782 24.1625 12.2487 24.1625 12.9524V32.9749C24.1625 33.2765 23.9149 33.521 23.6096 33.521H22.6881C22.3827 33.521 22.1352 33.2765 22.1352 32.9749V12.9524C22.1352 12.2487 21.5576 11.6782 20.8451 11.6782H20.4765C20.1712 11.6782 19.9236 11.4337 19.9236 11.1321V10.222C19.9236 9.92045 20.1712 9.67596 20.4765 9.67596Z" fill="#DB9F47"/>
<path fill-rule="evenodd" clip-rule="evenodd" d="M30.5482 9.67596H35.9801C36.2801 9.67596 36.5233 9.92045 36.5233 10.222V11.1321C36.5233 11.4337 36.2801 11.6782 35.9801 11.6782H35.4369C34.7369 11.6782 34.1695 12.2487 34.1695 12.9524V30.2445C34.1695 30.9482 34.7369 31.5187 35.4369 31.5187H35.9801C36.2801 31.5187 36.5233 31.7632 36.5233 32.0648V32.9749C36.5233 33.2765 36.2801 33.521 35.9801 33.521H30.5482C30.2482 33.521 30.005 33.2765 30.005 32.9749V32.0648C30.005 31.7632 30.2482 31.5187 30.5482 31.5187H30.9103C31.6103 31.5187 32.1778 30.9482 32.1778 30.2445V12.9524C32.1778 12.2487 31.6103 11.6782 30.9103 11.6782H30.5482C30.2482 11.6782 30.005 11.4337 30.005 11.1321V10.222C30.005 9.92045 30.2482 9.67596 30.5482 9.67596Z" fill="#DB9F47"/>
<path fill-rule="evenodd" clip-rule="evenodd" d="M46.6048 10.2221C46.6048 9.92048 46.3573 9.676 46.0519 9.676H40.523C40.2176 9.676 39.9701 9.92048 39.9701 10.2221V32.9749C39.9701 33.2765 40.2176 33.521 40.523 33.521H46.0519C46.3573 33.521 46.6048 33.2765 46.6048 32.9749V18.4131C46.6048 18.1115 46.3573 17.867 46.0519 17.867H43.656C43.3507 17.867 43.1031 18.1115 43.1031 18.4131V19.5052C43.1031 19.7063 43.2682 19.8693 43.4717 19.8693C44.0824 19.8693 44.5775 20.3582 44.5775 20.9614V30.2446C44.5775 30.9483 43.9999 31.5187 43.2874 31.5187C42.5749 31.5187 41.9974 30.9483 41.9974 30.2446V12.9524C41.9974 12.2487 42.5749 11.6783 43.2874 11.6783C43.9999 11.6783 44.5775 12.2487 44.5775 12.9524V16.2288C44.5775 16.5304 44.8251 16.7749 45.1304 16.7749H46.0519C46.3573 16.7749 46.6048 16.5304 46.6048 16.2288V10.2221Z" fill="#DB9F47"/>
<path fill-rule="evenodd" clip-rule="evenodd" d="M51.3448 32.9749V10.222C51.3448 9.92045 51.588 9.67596 51.888 9.67596H52.7933C53.0933 9.67596 53.3365 9.92045 53.3365 10.222V30.2445C53.3365 30.9482 53.9039 31.5187 54.6039 31.5187C55.3039 31.5187 55.8714 30.9482 55.8714 30.2445V10.222C55.8714 9.92045 56.1146 9.67596 56.4146 9.67596H57.3199C57.6199 9.67596 57.8631 9.92045 57.8631 10.222V32.9749C57.8631 33.2765 57.6199 33.521 57.3199 33.521H51.888C51.588 33.521 51.3448 33.2765 51.3448 32.9749Z" fill="#DB9F47"/>
<path fill-rule="evenodd" clip-rule="evenodd" d="M64.0452 33.521H63.1399C62.8399 33.521 62.5967 33.2765 62.5967 32.9749V10.222C62.5967 9.92045 62.8399 9.67596 63.1399 9.67596H68.5718C68.8718 9.67596 69.115 9.92045 69.115 10.222V32.9749C69.115 33.2765 68.8718 33.521 68.5718 33.521H67.6665C67.3665 33.521 67.1233 33.2765 67.1233 32.9749V26.4221C67.1233 25.8189 66.6369 25.3299 66.0369 25.3299C65.8369 25.3299 65.6748 25.1669 65.6748 24.9659V23.6917C65.6748 23.4907 65.8369 23.3277 66.0369 23.3277C66.6369 23.3277 67.1233 22.8387 67.1233 22.2355V12.9524C67.1233 12.2487 66.5558 11.6782 65.8558 11.6782C65.1558 11.6782 64.5884 12.2487 64.5884 12.9524V32.9749C64.5884 33.2765 64.3452 33.521 64.0452 33.521Z" fill="#DB9F47"/>
<path fill-rule="evenodd" clip-rule="evenodd" d="M75.3294 33.521H74.408C74.1026 33.521 73.8551 33.2765 73.8551 32.9749V10.222C73.8551 9.92045 74.1026 9.67596 74.408 9.67596H79.9369C80.2423 9.67596 80.4898 9.92045 80.4898 10.222V25.2675C80.4898 25.302 80.4615 25.3299 80.4266 25.3299C79.7134 25.3299 79.3563 26.1815 79.8606 26.6795L80.3818 27.1943C80.451 27.2626 80.4898 27.3552 80.4898 27.4517V32.9749C80.4898 33.2765 80.2423 33.521 79.9369 33.521H79.0154C78.71 33.521 78.4625 33.2765 78.4625 32.9749V29.1344C78.4625 28.8223 78.3466 28.5211 78.1366 28.2879L77.1278 27.1669C77.0378 27.067 76.9881 26.9379 76.9881 26.8041V23.6917C76.9881 23.4907 77.1532 23.3277 77.3567 23.3277C77.9674 23.3277 78.4625 22.8387 78.4625 22.2355V12.9524C78.4625 12.2487 77.8849 11.6782 77.1724 11.6782C76.4599 11.6782 75.8823 12.2487 75.8823 12.9524V32.9749C75.8823 33.2765 75.6348 33.521 75.3294 33.521Z" fill="#DB9F47"/>
<path fill-rule="evenodd" clip-rule="evenodd" d="M86.6783 33.521H85.773C85.473 33.521 85.2298 33.2765 85.2298 32.9749V10.222C85.2298 9.92045 85.473 9.67596 85.773 9.67596H91.2049C91.5049 9.67596 91.7481 9.92045 91.7481 10.222V32.9749C91.7481 33.2765 91.5049 33.521 91.2049 33.521H90.2996C89.9996 33.521 89.7564 33.2765 89.7564 32.9749V26.4221C89.7564 25.8189 89.27 25.3299 88.67 25.3299C88.47 25.3299 88.3079 25.1669 88.3079 24.9659V23.6917C88.3079 23.4907 88.47 23.3277 88.67 23.3277C89.27 23.3277 89.7564 22.8387 89.7564 22.2355V12.9524C89.7564 12.2487 89.189 11.6782 88.489 11.6782C87.789 11.6782 87.2215 12.2487 87.2215 12.9524V32.9749C87.2215 33.2765 86.9783 33.521 86.6783 33.521Z" fill="#DB9F47"/>
<path fill-rule="evenodd" clip-rule="evenodd" d="M96.4817 32.9749C96.4817 33.2765 96.7249 33.521 97.0249 33.521H102.457C102.757 33.521 103 33.2765 103 32.9749V18.4131C103 18.1115 102.757 17.867 102.457 17.867H99.7408C99.0408 17.867 98.4734 17.2966 98.4734 16.5929V12.9524C98.4734 12.2487 99.0408 11.6783 99.7408 11.6783C100.441 11.6783 101.008 12.2487 101.008 12.9524V16.2288C101.008 16.5304 101.251 16.7749 101.551 16.7749H102.457C102.757 16.7749 103 16.5304 103 16.2288V10.2221C103 9.92048 102.757 9.676 102.457 9.676H97.0249C96.7249 9.676 96.4817 9.92048 96.4817 10.2221V19.3232C96.4817 19.6248 96.7249 19.8693 97.0249 19.8693H99.7408C100.441 19.8693 101.008 20.4397 101.008 21.1434V30.2446C101.008 30.9483 100.441 31.5187 99.7408 31.5187C99.0408 31.5187 98.4734 30.9483 98.4734 30.2446V21.5075C98.4734 21.2059 98.2302 20.9614 97.9302 20.9614H97.0249C96.7249 20.9614 96.4817 21.2059 96.4817 21.5075V32.9749Z" fill="#DB9F47"/>
<path fill-rule="evenodd" clip-rule="evenodd" d="M1.44852 33.521H0.543194C0.243196 33.521 0 33.2765 0 32.9749V10.222C0 9.92045 0.243196 9.67596 0.543195 9.67596H5.97514C6.27514 9.67596 6.51834 9.92045 6.51834 10.222V24.7839C6.51834 25.0854 6.27514 25.3299 5.97514 25.3299H3.6213C3.3213 25.3299 3.0781 25.0854 3.0781 24.7839V23.6917C3.0781 23.4907 3.24023 23.3277 3.44023 23.3277C4.04023 23.3277 4.52662 22.8387 4.52662 22.2355V12.9524C4.52662 12.2487 3.95916 11.6782 3.25917 11.6782C2.55917 11.6782 1.99171 12.2487 1.99171 12.9524V32.9749C1.99171 33.2765 1.74852 33.521 1.44852 33.521Z" fill="#DB9F47"/>
</svg>
