<svg width="103" height="26" viewBox="0 0 103 26" fill="none" xmlns="http://www.w3.org/2000/svg">
<path fill-rule="evenodd" clip-rule="evenodd" d="M17.2761 25.854C17.6014 25.854 17.8651 25.5889 17.8651 25.2619V0.592077C17.8651 0.265082 17.6014 0 17.2761 0H11.3865C11.0613 0 10.7976 0.265082 10.7976 0.592076V25.2619C10.7976 25.5889 11.0613 25.854 11.3865 25.854H17.2761ZM15.7056 3.55246V22.3016C15.7056 23.0646 15.0903 23.6831 14.3313 23.6831C13.5724 23.6831 12.9571 23.0646 12.9571 22.3016V3.55246C12.9571 2.78947 13.5724 2.17095 14.3313 2.17095C15.0903 2.17095 15.7056 2.78947 15.7056 3.55246Z" fill="#4E6424"/>
<path fill-rule="evenodd" clip-rule="evenodd" d="M22.2017 0H28.1965C28.5276 0 28.796 0.265082 28.796 0.592077V1.57887C28.796 1.90587 28.5276 2.17095 28.1965 2.17095H27.597C26.8245 2.17095 26.1983 2.78947 26.1983 3.55246V14.4072V25.2619C26.1983 25.5889 25.9299 25.854 25.5988 25.854H24.5997C24.2686 25.854 24.0002 25.5889 24.0002 25.2619V3.55246C24.0002 2.78947 23.3739 2.17095 22.6014 2.17095H22.2017C21.8707 2.17095 21.6023 1.90587 21.6023 1.57887V0.592077C21.6023 0.265082 21.8707 0 22.2017 0Z" fill="#4E6424"/>
<path fill-rule="evenodd" clip-rule="evenodd" d="M33.122 0H39.0116C39.3369 0 39.6005 0.265082 39.6005 0.592077V1.57887C39.6005 1.90587 39.3369 2.17095 39.0116 2.17095H38.4226C37.6637 2.17095 37.0484 2.78947 37.0484 3.55246V22.3016C37.0484 23.0646 37.6637 23.6831 38.4226 23.6831H39.0116C39.3369 23.6831 39.6005 23.9482 39.6005 24.2752V25.2619C39.6005 25.5889 39.3369 25.854 39.0116 25.854H33.122C32.7967 25.854 32.533 25.5889 32.533 25.2619V24.2752C32.533 23.9482 32.7967 23.6831 33.122 23.6831H33.5146C34.2736 23.6831 34.8889 23.0646 34.8889 22.3016V3.55246C34.8889 2.78947 34.2736 2.17095 33.5146 2.17095H33.122C32.7967 2.17095 32.533 1.90587 32.533 1.57887V0.592077C32.533 0.265082 32.7967 0 33.122 0Z" fill="#4E6424"/>
<path fill-rule="evenodd" clip-rule="evenodd" d="M1.57056 25.854H0.588961C0.263687 25.854 0 25.5889 0 25.2619V0.592076C0 0.265082 0.263686 0 0.588961 0H6.47857C6.80384 0 7.06753 0.265082 7.06753 0.592077V16.3808C7.06753 16.7078 6.80384 16.9729 6.47857 16.9729H3.9264C3.60113 16.9729 3.33744 16.7078 3.33744 16.3808V15.1966C3.33744 14.9786 3.51324 14.8019 3.73008 14.8019C4.38063 14.8019 4.90801 14.2718 4.90801 13.6178V3.55246C4.90801 2.78947 4.29274 2.17095 3.53376 2.17095C2.77479 2.17095 2.15952 2.78947 2.15952 3.55246V25.2619C2.15952 25.5889 1.89584 25.854 1.57056 25.854Z" fill="#4E6424"/>
<path fill-rule="evenodd" clip-rule="evenodd" d="M90.1994 25.854C90.5245 25.854 90.7881 25.5889 90.7881 25.2619V0.592077C90.7881 0.265082 90.5245 0 90.1994 0H84.3128C83.9877 0 83.7241 0.265082 83.7241 0.592076V25.2619C83.7241 25.5889 83.9877 25.854 84.3128 25.854H90.1994ZM88.6296 3.55246V22.3016C88.6296 23.0646 88.0147 23.6831 87.2561 23.6831C86.4975 23.6831 85.8825 23.0646 85.8825 22.3016V3.55246C85.8825 2.78947 86.4975 2.17095 87.2561 2.17095C88.0147 2.17095 88.6296 2.78947 88.6296 3.55246Z" fill="#DB9F47"/>
<path d="M43.9251 0H49.8107C50.1361 0 50.3999 0.263894 50.3999 0.589423V2.10488C50.3999 2.14889 50.3949 2.19277 50.3852 2.23569L45.6698 22.9627C45.5859 23.3316 45.8661 23.6829 46.2443 23.6829H49.8107C50.1361 23.6829 50.3999 23.9468 50.3999 24.2723V25.2646C50.3999 25.5901 50.1361 25.854 49.8107 25.854H43.9251C43.5997 25.854 43.3359 25.5901 43.3359 25.2646V23.7491C43.3359 23.7051 43.3409 23.6613 43.3506 23.6183L48.066 2.89135C48.1499 2.52246 47.8697 2.17111 47.4915 2.17111H43.9251C43.5997 2.17111 43.3359 1.90722 43.3359 1.58169V0.589423C43.3359 0.263894 43.5997 0 43.9251 0Z" fill="#DB9F47"/>
<path d="M102.411 1.3637e-06L101.418 0C101.092 -4.46748e-07 100.829 0.263765 100.829 0.589134V20.5556C100.829 20.7221 100.694 20.857 100.527 20.857C100.369 20.857 100.237 20.7339 100.227 20.5755L98.9013 0.55023C98.8809 0.24064 98.6238 7.92011e-08 98.3135 2.37607e-07L95.1126 1.87183e-06C94.7872 2.03794e-06 94.5234 0.263766 94.5234 0.589135V25.2649C94.5234 25.5903 94.7872 25.854 95.1126 25.854H96.1058C96.4311 25.854 96.6949 25.5903 96.6949 25.2649V5.2984C96.6949 5.13196 96.8298 4.99703 96.9963 4.99703C97.155 4.99703 97.2865 5.12014 97.297 5.27852L98.6209 25.3038C98.6413 25.6134 98.8984 25.854 99.2087 25.854H102.411C102.736 25.854 103 25.5903 103 25.2649V0.589134C103 0.263765 102.736 1.81045e-06 102.411 1.3637e-06Z" fill="#DB9F47"/>
<path d="M66.8794 15.096C66.9459 15.1621 67.0146 15.226 67.0852 15.2878C67.1557 15.226 67.2244 15.1621 67.2909 15.096C67.3737 13.576 67.802 12.149 68.4979 10.8934C68.2826 9.96158 67.7781 9.14183 67.0852 8.53571C66.3922 9.14183 65.8877 9.96158 65.6724 10.8934C66.3683 12.149 66.7966 13.576 66.8794 15.096Z" fill="#D5682B"/>
<path d="M67.0852 16.3272C67.1565 16.3163 67.2272 16.3036 67.2974 16.2893C67.2833 16.0743 67.2762 15.8574 67.2762 15.6388C67.2762 15.5748 67.2768 15.5109 67.278 15.4472C67.2122 15.3958 67.1479 15.3427 67.0852 15.2878C67.0224 15.3427 66.9581 15.3958 66.8923 15.4472C66.8935 15.5109 66.8941 15.5748 66.8941 15.6388C66.8941 15.8574 66.887 16.0743 66.8729 16.2893C66.9431 16.3036 67.0138 16.3163 67.0852 16.3272Z" fill="#D5682B"/>
<path d="M67.2909 15.096C67.2244 15.1621 67.1557 15.226 67.0852 15.2878C67.1479 15.3427 67.2122 15.3958 67.278 15.4472C67.2803 15.3296 67.2846 15.2125 67.2909 15.096Z" fill="#D5682B"/>
<path d="M67.0852 15.2878C67.0146 15.226 66.9459 15.1621 66.8794 15.096C66.8857 15.2125 66.89 15.3296 66.8923 15.4472C66.9581 15.3958 67.0224 15.3427 67.0852 15.2878Z" fill="#D5682B"/>
<path d="M67.0852 17.1489C67.1879 17.1489 67.2903 17.1505 67.3923 17.1537C67.3516 16.8908 67.3213 16.6243 67.3019 16.3548C67.2291 16.3474 67.1568 16.3381 67.0852 16.3272C67.0135 16.3381 66.9412 16.3474 66.8684 16.3548C66.849 16.6243 66.8187 16.8908 66.778 17.1537C66.88 17.1505 66.9824 17.1489 67.0852 17.1489Z" fill="#D5682B"/>
<path d="M67.2974 16.2893C67.2272 16.3036 67.1565 16.3163 67.0852 16.3272C67.1568 16.3381 67.2291 16.3474 67.3019 16.3548C67.3003 16.333 67.2988 16.3112 67.2974 16.2893Z" fill="#D5682B"/>
<path d="M67.0852 16.3272C67.0138 16.3163 66.9431 16.3036 66.8729 16.2893C66.8715 16.3112 66.87 16.333 66.8684 16.3548C66.9412 16.3474 67.0135 16.3381 67.0852 16.3272Z" fill="#D5682B"/>
<path d="M63.7778 15.5635C63.9256 15.666 64.0799 15.7598 64.24 15.8441C64.3942 15.6373 64.5309 15.4167 64.6479 15.1844C63.7594 14.3695 63.2023 13.1979 63.2023 11.8959C63.2023 11.3177 63.3121 10.7653 63.5121 10.2584C63.2374 9.94834 62.9433 9.65605 62.6315 9.38342C62.1434 10.0988 61.8579 10.9639 61.8579 11.8959C61.8579 12.2221 61.8929 12.5401 61.9593 12.8464C62.0451 13.0044 62.1217 13.1681 62.1883 13.3369C62.8169 13.9974 63.3536 14.7464 63.7778 15.5635Z" fill="#243664"/>
<path d="M65.1228 13.1786C65.1228 13.0194 65.1144 12.8621 65.0982 12.7072C64.6933 11.81 64.1563 10.9854 63.5121 10.2584C63.3121 10.7653 63.2023 11.3177 63.2023 11.8959C63.2023 13.1979 63.7594 14.3695 64.6479 15.1844C64.9517 14.5815 65.1228 13.9001 65.1228 13.1786Z" fill="#243664"/>
<path d="M65.859 15.9768C65.8813 15.9669 65.9036 15.9569 65.9258 15.9466C65.8373 14.7995 65.5499 13.7081 65.0982 12.7072C65.1144 12.8621 65.1228 13.0194 65.1228 13.1786C65.1228 13.9001 64.9517 14.5815 64.6479 15.1844C65.0034 15.5105 65.4119 15.7794 65.859 15.9768Z" fill="#243664"/>
<path d="M64.6479 15.1844C64.5309 15.4167 64.3942 15.6373 64.24 15.8441C64.5373 16.0006 64.8545 16.1245 65.1868 16.2108C65.4187 16.1505 65.6433 16.072 65.859 15.9768C65.4119 15.7794 65.0034 15.5105 64.6479 15.1844Z" fill="#243664"/>
<path d="M64.24 15.8441C64.1748 15.9315 64.1065 16.0164 64.0352 16.0987C64.0724 16.1828 64.1086 16.2674 64.1435 16.3527C64.5033 16.3465 64.8527 16.2976 65.1868 16.2108C64.8545 16.1245 64.5373 16.0006 64.24 15.8441Z" fill="#243664"/>
<path d="M65.9482 16.339C65.9441 16.228 65.9381 16.1175 65.9303 16.0075C65.9064 15.9975 65.8826 15.9872 65.859 15.9768C65.6433 16.072 65.4187 16.1505 65.1868 16.2108C65.433 16.2748 65.6874 16.3182 65.9482 16.339Z" fill="#243664"/>
<path d="M65.9438 17.1771C65.9512 17.021 65.955 16.864 65.955 16.7061C65.955 16.5832 65.9527 16.4608 65.9482 16.339C65.6874 16.3182 65.433 16.2748 65.1868 16.2108C64.8527 16.2976 64.5033 16.3465 64.1435 16.3527C64.2875 16.704 64.4116 17.0657 64.5143 17.4363C64.9783 17.3158 65.4557 17.2285 65.9438 17.1771Z" fill="#243664"/>
<path d="M64.24 15.8441C64.0799 15.7598 63.9256 15.666 63.7778 15.5635C63.8688 15.7388 63.9547 15.9173 64.0352 16.0987C64.1065 16.0164 64.1748 15.9315 64.24 15.8441Z" fill="#243664"/>
<path d="M70.2515 15.7047C70.1037 15.8072 69.9494 15.901 69.7893 15.9853C69.6351 15.7785 69.4984 15.5579 69.3814 15.3256C70.2699 14.5107 70.827 13.3391 70.827 12.0371C70.827 11.459 70.7172 10.9065 70.5172 10.3996C70.7919 10.0896 71.086 9.79729 71.3978 9.52466C71.8859 10.24 72.1714 11.1052 72.1714 12.0371C72.1714 12.3633 72.1364 12.6814 72.07 12.9877C71.9842 13.1456 71.9076 13.3093 71.841 13.4781C71.2124 14.1386 70.6757 14.8877 70.2515 15.7047Z" fill="#243664"/>
<path d="M68.9065 13.3198C68.9065 13.1606 68.9149 13.0034 68.9311 12.8484C69.336 11.9512 69.873 11.1267 70.5172 10.3996C70.7172 10.9065 70.827 11.459 70.827 12.0371C70.827 13.3391 70.2699 14.5107 69.3814 15.3256C69.0776 14.7227 68.9065 14.0413 68.9065 13.3198Z" fill="#243664"/>
<path d="M68.1703 16.118C68.1479 16.1081 68.1257 16.0981 68.1035 16.0879C68.192 14.9407 68.4794 13.8494 68.9311 12.8484C68.9149 13.0034 68.9065 13.1606 68.9065 13.3198C68.9065 14.0413 69.0776 14.7227 69.3814 15.3256C69.0259 15.6517 68.6174 15.9206 68.1703 16.118Z" fill="#243664"/>
<path d="M69.3814 15.3256C69.4984 15.5579 69.6351 15.7785 69.7893 15.9853C69.492 16.1419 69.1748 16.2657 68.8425 16.3521C68.6106 16.2918 68.386 16.2132 68.1703 16.118C68.6174 15.9206 69.0259 15.6517 69.3814 15.3256Z" fill="#243664"/>
<path d="M69.7893 15.9853C69.8545 16.0727 69.9228 16.1577 69.9941 16.24C69.9568 16.324 69.9207 16.4086 69.8858 16.4939C69.526 16.4878 69.1766 16.4389 68.8425 16.3521C69.1748 16.2657 69.492 16.1419 69.7893 15.9853Z" fill="#243664"/>
<path d="M68.0811 16.4803C68.0852 16.3693 68.0912 16.2588 68.099 16.1488C68.1229 16.1387 68.1466 16.1285 68.1703 16.118C68.386 16.2132 68.6106 16.2918 68.8425 16.3521C68.5963 16.416 68.3419 16.4594 68.0811 16.4803Z" fill="#243664"/>
<path d="M68.0855 17.3184C68.0781 17.1623 68.0743 17.0052 68.0743 16.8473C68.0743 16.7244 68.0766 16.602 68.0811 16.4803C68.3419 16.4594 68.5963 16.416 68.8425 16.3521C69.1766 16.4389 69.526 16.4878 69.8858 16.4939C69.7418 16.8453 69.6177 17.207 69.515 17.5776C69.051 17.457 68.5736 17.3697 68.0855 17.3184Z" fill="#243664"/>
<path d="M69.7893 15.9853C69.9494 15.901 70.1037 15.8072 70.2515 15.7047C70.1605 15.8801 70.0746 16.0585 69.9941 16.24C69.9228 16.1577 69.8545 16.0727 69.7893 15.9853Z" fill="#243664"/>
<path fill-rule="evenodd" clip-rule="evenodd" d="M79.3999 0C79.725 0 79.9885 0.265082 79.9885 0.592077V12.927V25.2619C79.9885 25.5889 79.725 25.854 79.3999 25.854H54.7239C54.3988 25.854 54.1353 25.5889 54.1353 25.2619V12.927V0.592076C54.1353 0.265082 54.3988 0 54.7239 0H79.3999ZM56.2937 3.55246C56.2937 2.78947 56.9086 2.17095 57.6672 2.17095C57.9484 2.17095 75.6795 2.17146 76.4566 2.17146C77.2336 2.17146 77.8301 3.07228 77.8301 3.55246V12.927V22.3016C77.8301 22.7817 77.2336 23.6826 76.4566 23.6826C75.6795 23.6826 57.9484 23.6831 57.6672 23.6831C56.9086 23.6831 56.2937 23.0646 56.2937 22.3016V12.927V3.55246Z" fill="#D5682B"/>
</svg>
