<svg width="22" height="16" viewBox="0 0 22 16" fill="none" xmlns="http://www.w3.org/2000/svg">
<path d="M11.0709 0H11.1932C12.3235 0.00435769 18.0508 0.047063 19.595 0.477022C20.545 0.744004 21.2861 1.51401 21.5408 2.49856C21.6795 3.03949 21.7772 3.75546 21.8433 4.49438L21.857 4.6424L21.8872 5.01266L21.8983 5.16067C21.9877 6.46188 21.9986 7.68044 22 7.94669V8.05346C21.9986 8.32959 21.9862 9.6308 21.8872 10.986L21.8762 11.1355L21.8639 11.2835C21.7952 12.0978 21.6933 12.9065 21.5406 13.5016C21.2861 14.486 20.545 15.256 19.595 15.5231C17.9999 15.9672 11.9371 15.9985 11.097 16H10.9016C10.4768 16 8.71932 15.9914 6.87682 15.9259L6.64307 15.9174L6.52339 15.9117L6.28824 15.9018L6.05309 15.8918C4.5267 15.8221 3.07327 15.7096 2.40358 15.5217C1.45399 15.2548 0.712895 14.4856 0.457819 13.5016C0.305166 12.9079 0.203444 12.0978 0.134694 11.2835L0.12375 11.1341L0.112806 10.986C0.044477 10.0214 0.006875 9.05471 0 8.08759V7.91241C0.00280612 7.60636 0.01375 6.5486 0.0879719 5.38132L0.0976531 5.23461L0.101722 5.16067L0.112806 5.01251L0.142972 4.6424L0.156722 4.49438C0.222806 3.75546 0.320319 3.03804 0.459222 2.49841C0.713878 1.51401 1.45497 0.744004 2.40499 0.476877C3.07467 0.29182 4.5281 0.177939 6.05449 0.106763L6.28824 0.0968861L6.5248 0.0883157L6.64307 0.083958L6.87823 0.0740806C8.18686 0.0305037 9.49606 0.00624592 10.8054 0.00145246L11.0709 0ZM8.80056 4.56977V11.4288L14.5168 8.00073L8.80056 4.56977Z" fill="#D5682B"/>
</svg>
