<svg width="31" height="28" viewBox="0 0 31 28" fill="none" xmlns="http://www.w3.org/2000/svg">
<path d="M15.0943 19.7188C15.2944 19.9173 15.5007 20.1096 15.7128 20.2952C15.925 20.1096 16.1313 19.9173 16.3314 19.7188C16.5802 15.1501 17.8676 10.8607 19.9593 7.08679C19.312 4.28586 17.7957 1.82188 15.7128 0C13.6299 1.82188 12.1136 4.28586 11.4663 7.08679C13.5581 10.8607 14.8455 15.1501 15.0943 19.7188Z" fill="#D5682B"/>
<path d="M15.7128 23.4194C15.9272 23.3866 16.1399 23.3486 16.3508 23.3057C16.3085 22.6594 16.2871 22.0074 16.2871 21.3503C16.2871 21.1578 16.2889 20.9658 16.2926 20.7742C16.0948 20.62 15.9015 20.4602 15.7128 20.2952C15.5242 20.4602 15.3308 20.62 15.1331 20.7742C15.1368 20.9658 15.1386 21.1578 15.1386 21.3503C15.1386 22.0074 15.1171 22.6594 15.0749 23.3057C15.2858 23.3486 15.4985 23.3866 15.7128 23.4194Z" fill="#D5682B"/>
<path d="M16.3314 19.7188C16.1313 19.9173 15.925 20.1096 15.7128 20.2952C15.9015 20.4602 16.0948 20.62 16.2926 20.7742C16.2993 20.4208 16.3123 20.069 16.3314 19.7188Z" fill="#D5682B"/>
<path d="M15.7128 20.2952C15.5007 20.1096 15.2944 19.9173 15.0943 19.7188C15.1134 20.069 15.1263 20.4208 15.1331 20.7742C15.3308 20.62 15.5242 20.4602 15.7128 20.2952Z" fill="#D5682B"/>
<path d="M15.7128 25.8894C16.0217 25.8894 16.3295 25.8942 16.6361 25.9038C16.5137 25.1134 16.4226 24.3125 16.3643 23.5024C16.1455 23.48 15.9283 23.4523 15.7128 23.4194C15.4973 23.4523 15.2801 23.48 15.0614 23.5024C15.003 24.3125 14.912 25.1134 14.7896 25.9038C15.0962 25.8942 15.4039 25.8894 15.7128 25.8894Z" fill="#D5682B"/>
<path d="M16.3508 23.3057C16.1399 23.3486 15.9272 23.3866 15.7128 23.4194C15.9283 23.4523 16.1455 23.48 16.3643 23.5024C16.3596 23.4369 16.3551 23.3713 16.3508 23.3057Z" fill="#D5682B"/>
<path d="M15.7128 23.4194C15.4985 23.3866 15.2858 23.3486 15.0749 23.3057C15.0706 23.3713 15.0661 23.4369 15.0614 23.5024C15.2801 23.48 15.4973 23.4523 15.7128 23.4194Z" fill="#D5682B"/>
<path d="M5.77068 21.1232C6.21501 21.4313 6.67887 21.7132 7.16002 21.9665C7.62352 21.3451 8.03444 20.682 8.38618 19.9838C5.71556 17.5343 4.04083 14.0127 4.04083 10.0993C4.04083 8.36147 4.37108 6.70092 4.97214 5.17721C4.14653 4.24538 3.26232 3.36683 2.32531 2.54736C0.858094 4.69759 0 7.29805 0 10.0993C0 11.0798 0.105134 12.0357 0.304724 12.9563C0.562684 13.4311 0.792814 13.9233 0.992927 14.4306C2.88239 16.4158 4.49557 18.6673 5.77068 21.1232Z" fill="#243664"/>
<path d="M9.81344 13.9548C9.81344 13.4762 9.7884 13.0035 9.73955 12.5379C8.52247 9.84113 6.90844 7.36263 4.97214 5.17721C4.37108 6.70092 4.04083 8.36147 4.04083 10.0993C4.04083 14.0127 5.71556 17.5343 8.38618 19.9838C9.29918 18.1716 9.81344 16.1234 9.81344 13.9548Z" fill="#243664"/>
<path d="M12.0263 22.3655C12.0935 22.3358 12.1605 22.3056 12.2272 22.2748C11.9611 18.8267 11.0973 15.5465 9.73955 12.5379C9.7884 13.0035 9.81344 13.4762 9.81344 13.9548C9.81344 16.1234 9.29918 18.1716 8.38618 19.9838C9.45464 20.9638 10.6825 21.7722 12.0263 22.3655Z" fill="#243664"/>
<path d="M8.38618 19.9838C8.03444 20.682 7.62352 21.3451 7.16002 21.9665C8.05374 22.4372 9.00713 22.8094 10.0059 23.0689C10.703 22.8878 11.3781 22.6517 12.0263 22.3655C10.6825 21.7722 9.45464 20.9638 8.38618 19.9838Z" fill="#243664"/>
<path d="M7.16002 21.9665C6.96403 22.2293 6.75865 22.4847 6.54436 22.732C6.6564 22.9846 6.76496 23.239 6.87 23.4953C7.95141 23.4769 9.00155 23.3299 10.0059 23.0689C9.00713 22.8094 8.05374 22.4372 7.16002 21.9665Z" fill="#243664"/>
<path d="M12.2945 23.4543C12.2821 23.1207 12.2642 22.7886 12.2407 22.458C12.1689 22.4278 12.0974 22.3969 12.0263 22.3655C11.3781 22.6517 10.703 22.8878 10.0059 23.0689C10.7458 23.2612 11.5106 23.3916 12.2945 23.4543Z" fill="#243664"/>
<path d="M12.2812 25.9735C12.3036 25.5043 12.3149 25.0322 12.3149 24.5575C12.3149 24.1882 12.3081 23.8204 12.2945 23.4543C11.5106 23.3916 10.7458 23.2612 10.0059 23.0689C9.00155 23.3299 7.95141 23.4769 6.87 23.4953C7.30288 24.5514 7.67576 25.6386 7.9844 26.7525C9.37922 26.3903 10.8142 26.1279 12.2812 25.9735Z" fill="#243664"/>
<path d="M7.16002 21.9665C6.67887 21.7132 6.21501 21.4313 5.77068 21.1232C6.04435 21.6502 6.30245 22.1867 6.54436 22.732C6.75865 22.4847 6.96403 22.2293 7.16002 21.9665Z" fill="#243664"/>
<path d="M25.2293 21.5484C24.785 21.8566 24.3211 22.1385 23.84 22.3918C23.3765 21.7704 22.9656 21.1073 22.6138 20.4091C25.2844 17.9596 26.9592 14.438 26.9592 10.5246C26.9592 8.78676 26.6289 7.12621 26.0279 5.6025C26.8535 4.67067 27.7377 3.79212 28.6747 2.97266C30.1419 5.12288 31 7.72334 31 10.5246C31 11.5051 30.8949 12.461 30.6953 13.3816C30.4373 13.8564 30.2072 14.3486 30.0071 14.8559C28.1176 16.8411 26.5044 19.0926 25.2293 21.5484Z" fill="#243664"/>
<path d="M21.1866 14.3801C21.1866 13.9015 21.2116 13.4288 21.2605 12.9632C22.4775 10.2664 24.0916 7.78792 26.0279 5.6025C26.6289 7.12621 26.9592 8.78676 26.9592 10.5246C26.9592 14.438 25.2844 17.9596 22.6138 20.4091C21.7008 18.5969 21.1866 16.5487 21.1866 14.3801Z" fill="#243664"/>
<path d="M18.9737 22.7908C18.9065 22.7611 18.8395 22.7309 18.7728 22.7001C19.0389 19.252 19.9027 15.9718 21.2605 12.9632C21.2116 13.4288 21.1866 13.9015 21.1866 14.3801C21.1866 16.5487 21.7008 18.5969 22.6138 20.4091C21.5454 21.3891 20.3175 22.1975 18.9737 22.7908Z" fill="#243664"/>
<path d="M22.6138 20.4091C22.9656 21.1073 23.3765 21.7704 23.84 22.3918C22.9463 22.8625 21.9929 23.2347 20.9941 23.4942C20.297 23.3131 19.6219 23.077 18.9737 22.7908C20.3175 22.1975 21.5454 21.3891 22.6138 20.4091Z" fill="#243664"/>
<path d="M23.84 22.3918C24.036 22.6546 24.2414 22.9099 24.4556 23.1573C24.3436 23.4099 24.235 23.6643 24.13 23.9206C23.0486 23.9022 21.9984 23.7552 20.9941 23.4942C21.9929 23.2347 22.9463 22.8625 23.84 22.3918Z" fill="#243664"/>
<path d="M18.7055 23.8796C18.7179 23.546 18.7358 23.2139 18.7593 22.8833C18.8311 22.853 18.9026 22.8222 18.9737 22.7908C19.6219 23.077 20.297 23.3131 20.9941 23.4942C20.2542 23.6865 19.4894 23.8169 18.7055 23.8796Z" fill="#243664"/>
<path d="M18.7188 26.3987C18.6964 25.9296 18.6851 25.4575 18.6851 24.9828C18.6851 24.6134 18.6919 24.2457 18.7055 23.8796C19.4894 23.8169 20.2542 23.6865 20.9941 23.4942C21.9984 23.7552 23.0486 23.9022 24.13 23.9206C23.6971 24.9767 23.3242 26.0639 23.0156 27.1778C21.6208 26.8156 20.1858 26.5532 18.7188 26.3987Z" fill="#243664"/>
<path d="M23.84 22.3918C24.3211 22.1385 24.785 21.8566 25.2293 21.5484C24.9557 22.0755 24.6976 22.612 24.4556 23.1573C24.2414 22.9099 24.036 22.6546 23.84 22.3918Z" fill="#243664"/>
</svg>
