<svg width="29" height="28" viewBox="0 0 29 28" fill="none" xmlns="http://www.w3.org/2000/svg">
<path d="M14.1283 0.171387C12.3049 0.171387 10.4992 0.539467 8.81453 1.25461C7.12984 1.96976 5.5991 3.01796 4.30969 4.33938C1.70563 7.0081 0.242676 10.6277 0.242676 14.4018C0.242676 20.6916 4.22786 26.028 9.74048 27.9207C10.4348 28.0345 10.6569 27.5934 10.6569 27.2092V24.8042C6.8106 25.6581 5.99134 22.8974 5.99134 22.8974C5.3526 21.2466 4.45003 20.8055 4.45003 20.8055C3.18644 19.9232 4.54723 19.9517 4.54723 19.9517C5.9358 20.0513 6.67174 21.4174 6.67174 21.4174C7.8798 23.5804 9.92099 22.94 10.7125 22.5985C10.8374 21.6735 11.1985 21.0474 11.5873 20.6916C8.50465 20.3359 5.26929 19.1121 5.26929 13.6903C5.26929 12.1107 5.79694 10.8442 6.69951 9.83384C6.56066 9.47808 6.07466 7.99811 6.83837 6.07701C6.83837 6.07701 8.00477 5.69279 10.6569 7.52851C11.7539 7.21544 12.9481 7.05891 14.1283 7.05891C15.3086 7.05891 16.5028 7.21544 17.5998 7.52851C20.2519 5.69279 21.4183 6.07701 21.4183 6.07701C22.182 7.99811 21.696 9.47808 21.5572 9.83384C22.4598 10.8442 22.9874 12.1107 22.9874 13.6903C22.9874 19.1263 19.7382 20.3217 16.6417 20.6774C17.1415 21.1186 17.5998 21.9866 17.5998 23.31V27.2092C17.5998 27.5934 17.8219 28.0488 18.5301 27.9207C24.0427 26.0138 28.014 20.6916 28.014 14.4018C28.014 12.533 27.6549 10.6826 26.957 8.95606C26.2592 7.22954 25.2364 5.66079 23.947 4.33938C22.6576 3.01796 21.1269 1.96976 19.4422 1.25461C17.7575 0.539467 15.9518 0.171387 14.1283 0.171387Z" fill="#253869"/>
</svg>
