<svg width="29" height="28" viewBox="0 0 29 28" fill="none" xmlns="http://www.w3.org/2000/svg">
<path d="M8.53904 0.171387H20.203C24.6464 0.171387 28.2567 3.78166 28.2567 8.22508V19.889C28.2567 22.025 27.4082 24.0735 25.8978 25.5839C24.3875 27.0942 22.339 27.9427 20.203 27.9427H8.53904C4.09563 27.9427 0.485352 24.3325 0.485352 19.889V8.22508C0.485352 6.08911 1.33386 4.04062 2.84422 2.53026C4.35458 1.0199 6.40307 0.171387 8.53904 0.171387ZM8.26133 2.94852C6.93555 2.94852 5.66408 3.47518 4.72661 4.41265C3.78915 5.35011 3.26249 6.62159 3.26249 7.94736V20.1668C3.26249 22.93 5.49808 25.1656 8.26133 25.1656H20.4807C21.8065 25.1656 23.078 24.6389 24.0154 23.7015C24.9529 22.764 25.4796 21.4925 25.4796 20.1668V7.94736C25.4796 5.18411 23.244 2.94852 20.4807 2.94852H8.26133ZM21.661 5.03137C22.1213 5.03137 22.5628 5.21424 22.8883 5.53975C23.2138 5.86526 23.3967 6.30674 23.3967 6.76708C23.3967 7.22742 23.2138 7.6689 22.8883 7.99441C22.5628 8.31992 22.1213 8.50279 21.661 8.50279C21.2007 8.50279 20.7592 8.31992 20.4337 7.99441C20.1082 7.6689 19.9253 7.22742 19.9253 6.76708C19.9253 6.30674 20.1082 5.86526 20.4337 5.53975C20.7592 5.21424 21.2007 5.03137 21.661 5.03137ZM14.371 7.11422C16.2124 7.11422 17.9783 7.8457 19.2804 9.14773C20.5824 10.4498 21.3139 12.2157 21.3139 14.0571C21.3139 15.8984 20.5824 17.6644 19.2804 18.9664C17.9783 20.2684 16.2124 20.9999 14.371 20.9999C12.5297 20.9999 10.7637 20.2684 9.4617 18.9664C8.15966 17.6644 7.42819 15.8984 7.42819 14.0571C7.42819 12.2157 8.15966 10.4498 9.4617 9.14773C10.7637 7.8457 12.5297 7.11422 14.371 7.11422ZM14.371 9.89136C13.2662 9.89136 12.2066 10.3302 11.4254 11.1115C10.6442 11.8927 10.2053 12.9522 10.2053 14.0571C10.2053 15.1619 10.6442 16.2214 11.4254 17.0027C12.2066 17.7839 13.2662 18.2228 14.371 18.2228C15.4758 18.2228 16.5354 17.7839 17.3166 17.0027C18.0978 16.2214 18.5367 15.1619 18.5367 14.0571C18.5367 12.9522 18.0978 11.8927 17.3166 11.1115C16.5354 10.3302 15.4758 9.89136 14.371 9.89136Z" fill="#253869"/>
</svg>
