<svg width="139" height="24" viewBox="0 0 139 24" fill="none" xmlns="http://www.w3.org/2000/svg">
<path d="M13.3395 16.9167C13.5111 17.0871 13.6881 17.252 13.8701 17.4112C14.0521 17.252 14.2291 17.0871 14.4008 16.9167C14.6142 12.9972 15.7187 9.31734 17.5132 6.07974C16.9579 3.67683 15.657 1.56298 13.8701 0C12.0832 1.56298 10.7824 3.67683 10.2271 6.07974C12.0216 9.31734 13.126 12.9972 13.3395 16.9167Z" fill="#D5682B"/>
<path d="M13.8701 20.0914C14.054 20.0633 14.2365 20.0307 14.4174 19.9939C14.3812 19.4394 14.3628 18.8801 14.3628 18.3164C14.3628 18.1513 14.3643 17.9865 14.3675 17.8222C14.1978 17.6898 14.032 17.5528 13.8701 17.4112C13.7083 17.5528 13.5424 17.6898 13.3728 17.8222C13.3759 17.9865 13.3775 18.1513 13.3775 18.3164C13.3775 18.8801 13.3591 19.4394 13.3228 19.9939C13.5038 20.0307 13.6862 20.0633 13.8701 20.0914Z" fill="#D5682B"/>
<path d="M14.4008 16.9167C14.2291 17.0871 14.0521 17.252 13.8701 17.4112C14.032 17.5528 14.1978 17.6898 14.3675 17.8222C14.3733 17.519 14.3844 17.2171 14.4008 16.9167Z" fill="#D5682B"/>
<path d="M13.8701 17.4112C13.6881 17.252 13.5111 17.0871 13.3395 16.9167C13.3558 17.2171 13.367 17.519 13.3728 17.8222C13.5424 17.6898 13.7083 17.5528 13.8701 17.4112Z" fill="#D5682B"/>
<path d="M13.8701 22.2104C14.1351 22.2104 14.3992 22.2146 14.6622 22.2228C14.5572 21.5447 14.4791 20.8576 14.429 20.1627C14.2413 20.1435 14.055 20.1197 13.8701 20.0914C13.6853 20.1197 13.4989 20.1435 13.3112 20.1627C13.2612 20.8576 13.1831 21.5447 13.0781 22.2228C13.3411 22.2146 13.6051 22.2104 13.8701 22.2104Z" fill="#D5682B"/>
<path d="M14.4174 19.9939C14.2365 20.0307 14.054 20.0633 13.8701 20.0914C14.055 20.1197 14.2413 20.1435 14.429 20.1627C14.425 20.1065 14.4211 20.0502 14.4174 19.9939Z" fill="#D5682B"/>
<path d="M13.8701 20.0914C13.6862 20.0633 13.5038 20.0307 13.3228 19.9939C13.3192 20.0502 13.3153 20.1065 13.3112 20.1627C13.4989 20.1435 13.6853 20.1197 13.8701 20.0914Z" fill="#D5682B"/>
<path d="M5.34079 18.1224C5.72198 18.3868 6.11992 18.6286 6.5327 18.846C6.93034 18.3128 7.28287 17.7439 7.58463 17.145C5.29351 15.0435 3.85676 12.0224 3.85676 8.66507C3.85676 7.17419 4.14007 5.74961 4.65572 4.44242C3.94744 3.643 3.18888 2.8893 2.38502 2.18628C1.12629 4.03095 0.390137 6.26188 0.390137 8.66507C0.390137 9.50625 0.480331 10.3263 0.651559 11.1161C0.872863 11.5234 1.07029 11.9456 1.24197 12.3809C2.86293 14.084 4.24688 16.0155 5.34079 18.1224Z" fill="#243664"/>
<path d="M8.80907 11.9727C8.80907 11.5621 8.78759 11.1566 8.74568 10.7571C7.70155 8.44358 6.31688 6.31729 4.65572 4.44242C4.14007 5.74961 3.85676 7.17419 3.85676 8.66507C3.85676 12.0224 5.29351 15.0435 7.58463 17.145C8.36789 15.5903 8.80907 13.8331 8.80907 11.9727Z" fill="#243664"/>
<path d="M10.7075 19.1882C10.7652 19.1628 10.8226 19.1368 10.8798 19.1104C10.6515 16.1523 9.91053 13.3382 8.74568 10.7571C8.78759 11.1566 8.80907 11.5621 8.80907 11.9727C8.80907 13.8331 8.36789 15.5903 7.58463 17.145C8.50125 17.9857 9.55463 18.6793 10.7075 19.1882Z" fill="#243664"/>
<path d="M7.58463 17.145C7.28287 17.7439 6.93034 18.3128 6.5327 18.846C7.29942 19.2497 8.11734 19.5691 8.97414 19.7917C9.57226 19.6363 10.1514 19.4337 10.7075 19.1882C9.55463 18.6793 8.50125 17.9857 7.58463 17.145Z" fill="#243664"/>
<path d="M6.5327 18.846C6.36457 19.0714 6.18837 19.2904 6.00453 19.5027C6.10065 19.7193 6.19379 19.9376 6.2839 20.1575C7.21163 20.1417 8.11255 20.0156 8.97414 19.7917C8.11734 19.5691 7.29942 19.2497 6.5327 18.846Z" fill="#243664"/>
<path d="M10.9376 20.1223C10.927 19.8361 10.9116 19.5512 10.8914 19.2675C10.8298 19.2416 10.7685 19.2152 10.7075 19.1882C10.1514 19.4337 9.57226 19.6363 8.97414 19.7917C9.60894 19.9567 10.2651 20.0685 10.9376 20.1223Z" fill="#243664"/>
<path d="M10.9262 22.2835C10.9454 21.881 10.9551 21.476 10.9551 21.0688C10.9551 20.7519 10.9492 20.4364 10.9376 20.1223C10.2651 20.0685 9.60894 19.9567 8.97414 19.7917C8.11255 20.0156 7.21163 20.1417 6.2839 20.1575C6.65526 21.0635 6.97516 21.9962 7.23994 22.9518C8.43655 22.6411 9.6676 22.416 10.9262 22.2835Z" fill="#243664"/>
<path d="M6.5327 18.846C6.11992 18.6286 5.72198 18.3868 5.34079 18.1224C5.57557 18.5746 5.79699 19.0349 6.00453 19.5027C6.18837 19.2904 6.36457 19.0714 6.5327 18.846Z" fill="#243664"/>
<path d="M22.0342 18.1706C21.653 18.435 21.2551 18.6768 20.8423 18.8942C20.4447 18.361 20.0921 17.7921 19.7904 17.1932C22.0815 15.0917 23.5182 12.0706 23.5182 8.71329C23.5182 7.22241 23.2349 5.79783 22.7193 4.49063C23.4276 3.69122 24.1861 2.93752 24.99 2.2345C26.2487 4.07917 26.9849 6.3101 26.9849 8.71329C26.9849 9.55447 26.8947 10.3745 26.7234 11.1643C26.5021 11.5717 26.3047 11.9939 26.133 12.4291C24.5121 14.1322 23.1281 16.0638 22.0342 18.1706Z" fill="#243664"/>
<path d="M18.5659 12.0209C18.5659 11.6104 18.5874 11.2048 18.6293 10.8054C19.6735 8.4918 21.0581 6.3655 22.7193 4.49063C23.2349 5.79783 23.5182 7.22241 23.5182 8.71329C23.5182 12.0706 22.0815 15.0917 19.7904 17.1932C19.0071 15.6385 18.5659 13.8813 18.5659 12.0209Z" fill="#243664"/>
<path d="M16.6675 19.2365C16.6098 19.211 16.5524 19.185 16.4952 19.1586C16.7235 16.2005 17.4645 13.3864 18.6293 10.8054C18.5874 11.2048 18.5659 11.6104 18.5659 12.0209C18.5659 13.8813 19.0071 15.6385 19.7904 17.1932C18.8737 18.0339 17.8204 18.7275 16.6675 19.2365Z" fill="#243664"/>
<path d="M19.7904 17.1932C20.0921 17.7921 20.4447 18.361 20.8423 18.8942C20.0756 19.2979 19.2577 19.6173 18.4009 19.8399C17.8027 19.6845 17.2236 19.4819 16.6675 19.2365C17.8204 18.7275 18.8737 18.0339 19.7904 17.1932Z" fill="#243664"/>
<path d="M20.8423 18.8942C21.0104 19.1196 21.1866 19.3387 21.3705 19.5509C21.2744 19.7676 21.1812 19.9858 21.0911 20.2057C20.1634 20.1899 19.2624 20.0638 18.4009 19.8399C19.2577 19.6173 20.0756 19.2979 20.8423 18.8942Z" fill="#243664"/>
<path d="M16.4374 20.1705C16.448 19.8844 16.4634 19.5994 16.4836 19.3158C16.5452 19.2898 16.6065 19.2634 16.6675 19.2365C17.2236 19.4819 17.8027 19.6845 18.4009 19.8399C17.7661 20.0049 17.1099 20.1168 16.4374 20.1705Z" fill="#243664"/>
<path d="M16.4488 22.3317C16.4296 21.9292 16.4199 21.5242 16.4199 21.117C16.4199 20.8001 16.4258 20.4846 16.4374 20.1705C17.1099 20.1168 17.7661 20.0049 18.4009 19.8399C19.2624 20.0638 20.1634 20.1899 21.0911 20.2057C20.7197 21.1117 20.3998 22.0444 20.1351 23.0001C18.9385 22.6893 17.7074 22.4642 16.4488 22.3317Z" fill="#243664"/>
<path d="M20.8423 18.8942C21.2551 18.6768 21.653 18.435 22.0342 18.1706C21.7994 18.6228 21.578 19.0831 21.3705 19.5509C21.1866 19.3387 21.0104 19.1196 20.8423 18.8942Z" fill="#243664"/>
<path fill-rule="evenodd" clip-rule="evenodd" d="M51.9342 23.845C52.2342 23.845 52.4774 23.6005 52.4774 23.2989V0.546069C52.4774 0.244483 52.2342 0 51.9342 0H46.5022C46.2022 0 45.959 0.244483 45.959 0.546068V23.2989C45.959 23.6005 46.2022 23.845 46.5022 23.845H51.9342ZM50.4856 3.27641V20.5686C50.4856 21.2723 49.9182 21.8427 49.2182 21.8427C48.5182 21.8427 47.9507 21.2723 47.9507 20.5686V3.27641C47.9507 2.57271 48.5182 2.00225 49.2182 2.00225C49.9182 2.00225 50.4856 2.57271 50.4856 3.27641Z" fill="#4E6424"/>
<path fill-rule="evenodd" clip-rule="evenodd" d="M56.477 0H62.006C62.3113 0 62.5588 0.244483 62.5588 0.546069V1.45618C62.5588 1.75777 62.3113 2.00225 62.006 2.00225H61.4531C60.7406 2.00225 60.163 2.57271 60.163 3.27641V23.2989C60.163 23.6005 59.9154 23.845 59.6101 23.845H58.6886C58.3832 23.845 58.1357 23.6005 58.1357 23.2989V3.27641C58.1357 2.57271 57.5581 2.00225 56.8456 2.00225H56.477C56.1717 2.00225 55.9241 1.75777 55.9241 1.45618V0.546069C55.9241 0.244483 56.1717 0 56.477 0Z" fill="#DB9F47"/>
<path fill-rule="evenodd" clip-rule="evenodd" d="M66.5487 0H71.9806C72.2806 0 72.5238 0.244483 72.5238 0.546069V1.45618C72.5238 1.75777 72.2806 2.00225 71.9806 2.00225H71.4374C70.7374 2.00225 70.17 2.57271 70.17 3.27641V20.5686C70.17 21.2723 70.7374 21.8427 71.4374 21.8427H71.9806C72.2806 21.8427 72.5238 22.0872 72.5238 22.3888V23.2989C72.5238 23.6005 72.2806 23.845 71.9806 23.845H66.5487C66.2487 23.845 66.0055 23.6005 66.0055 23.2989V22.3888C66.0055 22.0872 66.2487 21.8427 66.5487 21.8427H66.9108C67.6108 21.8427 68.1782 21.2723 68.1782 20.5686V3.27641C68.1782 2.57271 67.6108 2.00225 66.9108 2.00225H66.5487C66.2487 2.00225 66.0055 1.75777 66.0055 1.45618V0.546069C66.0055 0.244483 66.2487 0 66.5487 0Z" fill="#DB9F47"/>
<path fill-rule="evenodd" clip-rule="evenodd" d="M82.6053 0.546103C82.6053 0.244516 82.3578 3.41763e-05 82.0524 3.41763e-05H76.5235C76.2181 3.41763e-05 75.9706 0.244516 75.9706 0.546103V23.299C75.9706 23.6005 76.2181 23.845 76.5235 23.845H82.0524C82.3578 23.845 82.6053 23.6005 82.6053 23.299V8.73713C82.6053 8.43555 82.3578 8.19106 82.0524 8.19106H79.6565C79.3512 8.19106 79.1036 8.43555 79.1036 8.73713V9.82927C79.1036 10.0303 79.2687 10.1933 79.4722 10.1933C80.0829 10.1933 80.578 10.6823 80.578 11.2855V20.5686C80.578 21.2723 80.0004 21.8428 79.2879 21.8428C78.5754 21.8428 77.9978 21.2723 77.9978 20.5686V3.27645C77.9978 2.57275 78.5754 2.00229 79.2879 2.00229C80.0004 2.00229 80.578 2.57275 80.578 3.27645V6.55286C80.578 6.85444 80.8256 7.09893 81.1309 7.09893H82.0524C82.3578 7.09893 82.6053 6.85444 82.6053 6.55286V0.546103Z" fill="#DB9F47"/>
<path fill-rule="evenodd" clip-rule="evenodd" d="M87.3452 23.2989V0.546068C87.3452 0.244483 87.5884 0 87.8884 0H88.7938C89.0938 0 89.337 0.244483 89.337 0.546069V20.5686C89.337 21.2723 89.9044 21.8427 90.6044 21.8427C91.3044 21.8427 91.8719 21.2723 91.8719 20.5686V0.546069C91.8719 0.244484 92.1151 0 92.4151 0H93.3204C93.6204 0 93.8636 0.244483 93.8636 0.546069V23.2989C93.8636 23.6005 93.6204 23.845 93.3204 23.845H87.8884C87.5884 23.845 87.3452 23.6005 87.3452 23.2989Z" fill="#DB9F47"/>
<path fill-rule="evenodd" clip-rule="evenodd" d="M100.046 23.845H99.1404C98.8404 23.845 98.5972 23.6005 98.5972 23.2989V0.546068C98.5972 0.244483 98.8404 0 99.1404 0H104.572C104.872 0 105.116 0.244483 105.116 0.546069V23.2989C105.116 23.6005 104.872 23.845 104.572 23.845H103.667C103.367 23.845 103.124 23.6005 103.124 23.2989V16.7461C103.124 16.1429 102.637 15.654 102.037 15.654C101.837 15.654 101.675 15.491 101.675 15.2899V14.0158C101.675 13.8147 101.837 13.6517 102.037 13.6517C102.637 13.6517 103.124 13.1627 103.124 12.5596V3.27641C103.124 2.57271 102.556 2.00225 101.856 2.00225C101.156 2.00225 100.589 2.57271 100.589 3.27641V23.2989C100.589 23.6005 100.346 23.845 100.046 23.845Z" fill="#DB9F47"/>
<path fill-rule="evenodd" clip-rule="evenodd" d="M111.33 23.845H110.408C110.103 23.845 109.856 23.6005 109.856 23.2989V0.546068C109.856 0.244483 110.103 0 110.408 0H115.937C116.243 0 116.49 0.244483 116.49 0.546069V15.5915C116.49 15.626 116.462 15.654 116.427 15.654C115.714 15.654 115.357 16.5055 115.861 17.0035L116.382 17.5184C116.451 17.5866 116.49 17.6792 116.49 17.7758V23.2989C116.49 23.6005 116.243 23.845 115.937 23.845H115.016C114.711 23.845 114.463 23.6005 114.463 23.2989V19.4584C114.463 19.1464 114.347 18.8452 114.137 18.6119L113.128 17.491C113.038 17.391 112.989 17.2619 112.989 17.1282V14.0158C112.989 13.8147 113.154 13.6517 113.357 13.6517C113.968 13.6517 114.463 13.1627 114.463 12.5596V3.27641C114.463 2.57271 113.885 2.00225 113.173 2.00225C112.46 2.00225 111.883 2.57271 111.883 3.27641V23.2989C111.883 23.6005 111.635 23.845 111.33 23.845Z" fill="#DB9F47"/>
<path fill-rule="evenodd" clip-rule="evenodd" d="M122.679 23.845H121.773C121.473 23.845 121.23 23.6005 121.23 23.2989V0.546068C121.23 0.244483 121.473 0 121.773 0H127.205C127.505 0 127.749 0.244483 127.749 0.546069V23.2989C127.749 23.6005 127.505 23.845 127.205 23.845H126.3C126 23.845 125.757 23.6005 125.757 23.2989V16.7461C125.757 16.1429 125.271 15.654 124.671 15.654C124.471 15.654 124.308 15.491 124.308 15.2899V14.0158C124.308 13.8147 124.471 13.6517 124.671 13.6517C125.271 13.6517 125.757 13.1627 125.757 12.5596V3.27641C125.757 2.57271 125.189 2.00225 124.489 2.00225C123.789 2.00225 123.222 2.57271 123.222 3.27641V23.2989C123.222 23.6005 122.979 23.845 122.679 23.845Z" fill="#DB9F47"/>
<path fill-rule="evenodd" clip-rule="evenodd" d="M132.482 23.299C132.482 23.6005 132.725 23.845 133.025 23.845H138.457C138.757 23.845 139 23.6005 139 23.299V8.73713C139 8.43555 138.757 8.19106 138.457 8.19106H135.741C135.041 8.19106 134.474 7.6206 134.474 6.9169V3.27645C134.474 2.57275 135.041 2.00229 135.741 2.00229C136.441 2.00229 137.009 2.57275 137.009 3.27645V6.55286C137.009 6.85444 137.252 7.09893 137.552 7.09893H138.457C138.757 7.09893 139 6.85444 139 6.55286V0.546103C139 0.244516 138.757 3.41763e-05 138.457 3.41763e-05H133.025C132.725 3.41763e-05 132.482 0.244516 132.482 0.546103V9.64725C132.482 9.94883 132.725 10.1933 133.025 10.1933H135.741C136.441 10.1933 137.009 10.7638 137.009 11.4675V20.5686C137.009 21.2723 136.441 21.8428 135.741 21.8428C135.041 21.8428 134.474 21.2723 134.474 20.5686V11.8315C134.474 11.5299 134.231 11.2855 133.931 11.2855H133.025C132.725 11.2855 132.482 11.5299 132.482 11.8315V23.299Z" fill="#DB9F47"/>
<path fill-rule="evenodd" clip-rule="evenodd" d="M37.449 23.845H36.5437C36.2437 23.845 36.0005 23.6005 36.0005 23.2989V0.546068C36.0005 0.244483 36.2437 0 36.5437 0H41.9756C42.2756 0 42.5188 0.244483 42.5188 0.546069V15.1079C42.5188 15.4095 42.2756 15.654 41.9756 15.654H39.6218C39.3218 15.654 39.0786 15.4095 39.0786 15.1079V14.0158C39.0786 13.8147 39.2407 13.6517 39.4407 13.6517C40.0407 13.6517 40.5271 13.1627 40.5271 12.5596V3.27641C40.5271 2.57271 39.9597 2.00225 39.2597 2.00225C38.5597 2.00225 37.9922 2.57271 37.9922 3.27641V23.2989C37.9922 23.6005 37.749 23.845 37.449 23.845Z" fill="#DB9F47"/>
</svg>
