<svg width="26" height="28" viewBox="0 0 26 28" fill="none" xmlns="http://www.w3.org/2000/svg">
<path d="M14.7627 6.03051C14.8391 6.06439 14.9167 6.09591 14.9951 6.12498C15.0348 6.05225 15.0722 5.97829 15.1072 5.90323C14.6996 4.62435 14.6104 3.31522 14.7989 2.06477C14.3263 1.36302 13.647 0.843104 12.8768 0.557629C12.487 1.27171 12.322 2.10363 12.4341 2.93858C13.4104 3.75861 14.2166 4.80283 14.7627 6.03051Z" fill="#D5682B"/>
<path d="M15.3212 6.98201C15.3775 6.95096 15.4327 6.91867 15.4869 6.88518C15.4077 6.71225 15.3337 6.5356 15.2651 6.35535C15.245 6.30255 15.2255 6.24969 15.2065 6.19675C15.1354 6.17478 15.0649 6.15084 14.9951 6.12498C14.9598 6.18967 14.9226 6.25338 14.8837 6.31605C14.9047 6.36822 14.9252 6.42072 14.9453 6.47351C15.0139 6.65376 15.076 6.83482 15.1317 7.01645C15.1949 7.00655 15.2581 6.99507 15.3212 6.98201Z" fill="#D5682B"/>
<path d="M15.1072 5.90323C15.0722 5.97829 15.0348 6.05225 14.9951 6.12498C15.0649 6.15084 15.1354 6.17478 15.2065 6.19675C15.1715 6.09911 15.1384 6.00126 15.1072 5.90323Z" fill="#D5682B"/>
<path d="M14.9951 6.12498C14.9167 6.09591 14.8391 6.06439 14.7627 6.03051C14.8046 6.12461 14.8449 6.2198 14.8837 6.31605C14.9226 6.25338 14.9598 6.18967 14.9951 6.12498Z" fill="#D5682B"/>
<path d="M15.579 7.65958C15.665 7.6278 15.7512 7.59746 15.8376 7.56854C15.721 7.36431 15.612 7.15398 15.5113 6.93777C15.448 6.95414 15.3846 6.96888 15.3212 6.98201C15.2646 7.01322 15.207 7.04318 15.1485 7.07183C15.2168 7.30004 15.275 7.5291 15.3234 7.75852C15.4078 7.72435 15.493 7.69136 15.579 7.65958Z" fill="#D5682B"/>
<path d="M15.4869 6.88518C15.4327 6.91867 15.3775 6.95096 15.3212 6.98201C15.3846 6.96888 15.448 6.95414 15.5113 6.93777C15.5031 6.92028 15.495 6.90275 15.4869 6.88518Z" fill="#D5682B"/>
<path d="M15.3212 6.98201C15.2581 6.99507 15.1949 7.00655 15.1317 7.01645C15.1373 7.03491 15.1429 7.05336 15.1485 7.07183C15.207 7.04318 15.2646 7.01322 15.3212 6.98201Z" fill="#D5682B"/>
<path d="M12.3118 7.40774C12.4664 7.44764 12.6237 7.4783 12.7827 7.49933C12.845 7.28068 12.8884 7.05587 12.9119 6.82741C11.9195 6.42271 11.0886 5.62088 10.6774 4.54067C10.4948 4.06098 10.4112 3.56906 10.4165 3.08738C10.0914 2.91409 9.75572 2.76145 9.41175 2.63049C9.23389 3.37314 9.27098 4.17815 9.56532 4.95137C9.66835 5.22202 9.79772 5.4752 9.94939 5.70903C10.0703 5.81386 10.1853 5.92631 10.2937 6.04601C11.0223 6.40194 11.7028 6.85946 12.3118 7.40774Z" fill="#243664"/>
<path d="M12.6712 5.01818C12.6209 4.88608 12.5643 4.75814 12.5019 4.63459C11.8836 4.0139 11.179 3.49382 10.4165 3.08738C10.4112 3.56906 10.4948 4.06098 10.6774 4.54067C11.0886 5.62088 11.9195 6.42271 12.9119 6.82741C12.9727 6.23441 12.899 5.61677 12.6712 5.01818Z" fill="#243664"/>
<path d="M14.1639 7.11486C14.1793 7.09982 14.1945 7.08467 14.2096 7.0694C13.7741 6.14468 13.1917 5.32703 12.5019 4.63459C12.5643 4.75814 12.6209 4.88608 12.6712 5.01818C12.899 5.61677 12.9727 6.23441 12.9119 6.82741C13.3089 6.98933 13.7317 7.08767 14.1639 7.11486Z" fill="#243664"/>
<path d="M12.9119 6.82741C12.8884 7.05587 12.845 7.28068 12.7827 7.49933C13.0781 7.5384 13.3796 7.54425 13.6818 7.51437C13.8546 7.3935 14.0156 7.25972 14.1639 7.11486C13.7317 7.08767 13.3089 6.98933 12.9119 6.82741Z" fill="#243664"/>
<path d="M12.7827 7.49933C12.7564 7.59178 12.7267 7.68314 12.6937 7.7732C12.7511 7.83152 12.8077 7.89072 12.8636 7.95078C13.1592 7.8358 13.4328 7.68849 13.6818 7.51437C13.3796 7.54425 13.0781 7.5384 12.7827 7.49933Z" fill="#243664"/>
<path d="M14.3521 7.38813C14.3137 7.29731 14.2738 7.20746 14.2326 7.11858C14.2097 7.11754 14.1868 7.1163 14.1639 7.11486C14.0156 7.25972 13.8546 7.3935 13.6818 7.51437C13.9056 7.49224 14.1298 7.4505 14.3521 7.38813Z" fill="#243664"/>
<path d="M14.6132 8.08483C14.57 7.95306 14.5235 7.82161 14.4736 7.69058C14.4348 7.58862 14.3943 7.4878 14.3521 7.38813C14.1298 7.4505 13.9056 7.49224 13.6818 7.51437C13.4328 7.68849 13.1592 7.8358 12.8636 7.95078C13.0937 8.19831 13.3105 8.46049 13.5125 8.7366C13.8583 8.49484 14.2256 8.27657 14.6132 8.08483Z" fill="#243664"/>
<path d="M12.7827 7.49933C12.6237 7.4783 12.4664 7.44764 12.3118 7.40774C12.4425 7.52541 12.5699 7.64727 12.6937 7.7732C12.7267 7.68314 12.7564 7.59178 12.7827 7.49933Z" fill="#243664"/>
<path d="M17.7535 5.52698C17.6633 5.65651 17.5651 5.78084 17.459 5.89913C17.2667 5.77607 17.0845 5.63626 16.9149 5.48084C17.3946 4.53866 17.4884 3.40416 17.0805 2.33258C16.8993 1.85673 16.6354 1.4356 16.3111 1.07946C16.4412 0.740393 16.593 0.409957 16.7654 0.090332C17.3934 0.529984 17.9006 1.15483 18.1926 1.92187C18.2948 2.19036 18.3655 2.4628 18.4065 2.73517C18.385 2.89139 18.373 3.04954 18.3708 3.20879C18.0577 3.94443 17.8484 4.72491 17.7535 5.52698Z" fill="#243664"/>
<path d="M15.8937 3.97503C15.8438 3.84399 15.8014 3.712 15.7663 3.57954C15.8202 2.7174 16.006 1.87468 16.3111 1.07946C16.6354 1.4356 16.8993 1.85673 17.0805 2.33258C17.4884 3.40416 17.3946 4.53866 16.9149 5.48084C16.4748 5.07742 16.1197 4.56884 15.8937 3.97503Z" fill="#243664"/>
<path d="M16.1614 6.50298C16.1398 6.50168 16.1182 6.50021 16.0966 6.49856C15.8105 5.52736 15.7063 4.54136 15.7663 3.57954C15.8014 3.712 15.8438 3.84399 15.8937 3.97503C16.1197 4.56884 16.4748 5.07742 16.9149 5.48084C16.723 5.85778 16.4694 6.20394 16.1614 6.50298Z" fill="#243664"/>
<path d="M16.9149 5.48084C17.0845 5.63626 17.2667 5.77607 17.459 5.89913C17.2621 6.11883 17.0386 6.31766 16.7907 6.49024C16.58 6.51149 16.3696 6.51546 16.1614 6.50298C16.4694 6.20394 16.723 5.85778 16.9149 5.48084Z" fill="#243664"/>
<path d="M17.459 5.89913C17.5404 5.95116 17.6235 6.0002 17.7083 6.04616C17.7038 6.1267 17.7004 6.20741 17.6982 6.28826C17.3987 6.39313 17.0943 6.45962 16.7907 6.49024C17.0386 6.31766 17.2621 6.11883 17.459 5.89913Z" fill="#243664"/>
<path d="M16.2011 6.82838C16.1697 6.73578 16.14 6.643 16.112 6.55009C16.1286 6.53452 16.1451 6.51881 16.1614 6.50298C16.3696 6.51546 16.58 6.51149 16.7907 6.49024C16.6072 6.61809 16.4103 6.73154 16.2011 6.82838Z" fill="#243664"/>
<path d="M16.4673 7.51682C16.4122 7.39063 16.3599 7.26252 16.3104 7.13254C16.2719 7.03139 16.2355 6.92999 16.2011 6.82838C16.4103 6.73154 16.6072 6.61809 16.7907 6.49024C17.0943 6.45962 17.3987 6.39313 17.6982 6.28826C17.6892 6.62144 17.6999 6.95703 17.731 7.29342C17.3094 7.336 16.8871 7.41 16.4673 7.51682Z" fill="#243664"/>
<path d="M17.459 5.89913C17.5651 5.78084 17.6633 5.65651 17.7535 5.52698C17.7331 5.69912 17.718 5.87226 17.7083 6.04616C17.6235 6.0002 17.5404 5.95116 17.459 5.89913Z" fill="#243664"/>
<path d="M13.1367 12.3184C13.1367 12.8681 13.2421 13.3934 13.4338 13.8757C14.2941 13.5764 15.2195 13.4135 16.1833 13.4135C16.1998 13.4135 16.2163 13.4136 16.2329 13.4137L21.537 10.9823C20.97 9.28472 19.3522 8.05957 17.445 8.05957C15.0656 8.05957 13.1367 9.96632 13.1367 12.3184Z" fill="#FDC3AB"/>
<path d="M20.896 14.8683C21.4344 14.1574 21.7532 13.2747 21.7532 12.3184C21.7532 11.8517 21.6773 11.4026 21.537 10.9823L16.2329 13.4137C17.9651 13.4237 19.5712 13.9597 20.896 14.8683Z" fill="#FDC3AB"/>
<path d="M16.2329 13.4137L13.7702 14.5426C14.5278 15.7631 15.8902 16.5773 17.445 16.5773C18.857 16.5773 20.1103 15.9058 20.896 14.8683C19.5712 13.9597 17.9651 13.4237 16.2329 13.4137Z" fill="#FDC3AB"/>
<path d="M16.1833 13.4135C15.2195 13.4135 14.2941 13.5764 13.4338 13.8757C13.5265 14.1087 13.6393 14.3317 13.7702 14.5426L16.2329 13.4137C16.2163 13.4136 16.1998 13.4135 16.1833 13.4135Z" fill="#FDC3AB"/>
<path d="M14.3297 17.7547C14.6316 17.8267 14.9232 17.9247 15.202 18.0462C15.9062 18.2387 16.648 18.3416 17.4142 18.3416C17.6687 18.3416 17.9205 18.3303 18.1691 18.3081C19.3873 17.3673 20.8788 16.7563 22.5062 16.6108C22.5562 16.5722 22.6057 16.5331 22.6547 16.4934C22.1519 15.8711 21.5592 15.323 20.896 14.8683C20.1103 15.9058 18.857 16.5773 17.445 16.5773C15.8902 16.5773 14.5278 15.7631 13.7702 14.5426L11.2998 15.675C12.1321 16.5759 13.1655 17.2923 14.3297 17.7547Z" fill="#DB9F47"/>
<path d="M7.93062 22.2418C8.19001 19.6423 10.4081 17.6116 13.1059 17.6116C13.5275 17.6116 13.9373 17.6611 14.3297 17.7547C13.1655 17.2923 12.1321 16.5759 11.2998 15.675C11.1763 15.5412 11.0572 15.4034 10.9428 15.2618C9.08859 16.7625 7.90527 19.0429 7.90527 21.5966C7.90527 21.8137 7.91383 22.0289 7.93062 22.2418Z" fill="#DB9F47"/>
<path d="M13.7702 14.5426C13.6393 14.3317 13.5265 14.1087 13.4338 13.8757C12.5193 14.194 11.6782 14.6665 10.9428 15.2618C11.0572 15.4034 11.1763 15.5412 11.2998 15.675L13.7702 14.5426Z" fill="#DB9F47"/>
<path d="M18.1691 18.3081C19.3873 17.3673 20.8788 16.7563 22.5062 16.6108C21.288 17.5516 19.7965 18.1626 18.1691 18.3081Z" fill="#DB9F47"/>
<path d="M17.4142 18.3416C16.648 18.3416 15.9062 18.2387 15.202 18.0462C15.9062 18.3531 16.5285 18.8099 17.0276 19.3758C17.373 18.9854 17.7553 18.6277 18.1691 18.3081C17.9205 18.3303 17.6687 18.3416 17.4142 18.3416Z" fill="#DB9F47"/>
<path d="M15.0104 25.4296C14.9923 25.2089 14.9831 24.9857 14.9831 24.7603C14.9831 22.6985 15.7545 20.8148 17.0276 19.3758C16.5285 18.8099 15.9062 18.3531 15.202 18.0462C14.9041 17.9647 14.613 17.8672 14.3297 17.7547C13.9373 17.6611 13.5275 17.6116 13.1059 17.6116C10.4081 17.6116 8.19001 19.6423 7.93062 22.2418C8.02095 23.3867 8.34964 24.4654 8.86766 25.4296H15.0104Z" fill="#D5682B"/>
<path d="M17.7244 25.1186C18.0964 24.4104 18.3066 23.6057 18.3066 22.7526C18.3066 21.4601 17.8242 20.2791 17.0276 19.3758C15.7545 20.8148 14.9831 22.6985 14.9831 24.7603C14.9831 24.9857 14.9923 25.2089 15.0104 25.4296H16.9348C17.1667 25.2725 17.4349 25.1639 17.7244 25.1186Z" fill="#D5682B"/>
<path d="M9.57843 26.5303C10.5054 27.3766 11.7446 27.8936 13.1059 27.8936C13.9335 27.8936 14.7159 27.7026 15.4105 27.3626C15.2019 26.7476 15.0653 26.1 15.0104 25.4296H8.86766C9.07524 25.8159 9.31321 26.1839 9.57843 26.5303Z" fill="#D5682B"/>
<path d="M11.0288 28.0001H15.6572C15.5663 27.7919 15.4839 27.5793 15.4105 27.3626C14.7159 27.7026 13.9335 27.8936 13.1059 27.8936C11.7446 27.8936 10.5054 27.3766 9.57843 26.5303C9.99788 27.0781 10.4855 27.5722 11.0288 28.0001Z" fill="#4E6424"/>
<path d="M16.3685 28.0001C16.1923 27.7114 16.091 27.3731 16.091 27.0114C16.091 26.9951 16.0912 26.9788 16.0916 26.9626C15.876 27.1123 15.6484 27.2462 15.4105 27.3626C15.4839 27.5793 15.5663 27.7919 15.6572 28.0001H16.3685Z" fill="#4E6424"/>
<path d="M16.9348 25.4296H15.0104C15.0653 26.1 15.2019 26.7476 15.4105 27.3626C15.6484 27.2462 15.876 27.1123 16.0916 26.9626C16.1077 26.3259 16.4379 25.7663 16.9348 25.4296Z" fill="#D5682B"/>
<path d="M17.5468 25.4296H16.9348C16.4379 25.7663 16.1077 26.3259 16.0916 26.9626C16.6766 26.5564 17.1731 26.0341 17.5468 25.4296Z" fill="#D5682B"/>
<path d="M19.6908 28.0001C19.867 27.7114 19.9684 27.3731 19.9684 27.0114C19.9684 26.3546 19.6341 25.7749 19.1245 25.4296H17.5468C17.1731 26.0341 16.6766 26.5564 16.0916 26.9626C16.0912 26.9788 16.091 26.9951 16.091 27.0114C16.091 27.3731 16.1923 27.7114 16.3685 28.0001H19.6908Z" fill="#4E6424"/>
<path d="M17.7244 25.1186C17.4349 25.1639 17.1667 25.2725 16.9348 25.4296H17.5468C17.6095 25.3282 17.6687 25.2245 17.7244 25.1186Z" fill="#D5682B"/>
<path d="M25.6922 10.1586C25.6922 9.79774 25.6686 9.44236 25.6228 9.09386L21.537 10.9823C21.6773 11.4026 21.7532 11.8517 21.7532 12.3184C21.7532 13.2747 21.4344 14.1574 20.896 14.8683C21.5592 15.323 22.1519 15.8711 22.6547 16.4934C24.5089 14.9927 25.6922 12.7122 25.6922 10.1586Z" fill="#DB9F47"/>
<path d="M14.3297 17.7547C14.6316 17.8267 14.9232 17.9247 15.202 18.0462C14.9041 17.9647 14.613 17.8672 14.3297 17.7547Z" fill="#D5682B"/>
<path d="M25.9999 9.12428C25.9999 9.34269 25.8208 9.51975 25.5999 9.51975C25.3789 9.51975 25.1998 9.34269 25.1998 9.12428C25.1998 8.90587 25.3789 8.72882 25.5999 8.72882C25.8208 8.72882 25.9999 8.90587 25.9999 9.12428Z" fill="#4E6424"/>
</svg>
