<svg width="41" height="29" viewBox="0 0 41 29" fill="none" xmlns="http://www.w3.org/2000/svg">
<path d="M39.6061 4.44161C39.3738 3.58312 38.9206 2.80046 38.2918 2.17157C37.6629 1.54268 36.8803 1.0895 36.0218 0.857156C32.8789 0 20.2297 0 20.2297 0C20.2297 0 7.57996 0.0259456 4.43706 0.883102C3.57856 1.11546 2.7959 1.56866 2.16704 2.19758C1.53817 2.8265 1.08504 3.6092 0.852757 4.46772C-0.0978987 10.052 -0.466675 18.5613 0.878861 23.9222C1.11117 24.7807 1.56431 25.5634 2.19317 26.1923C2.82204 26.8212 3.60468 27.2743 4.46316 27.5067C7.60607 28.3638 20.2555 28.3638 20.2555 28.3638C20.2555 28.3638 32.9048 28.3638 36.0476 27.5067C36.9061 27.2744 37.6888 26.8212 38.3177 26.1923C38.9466 25.5634 39.3997 24.7807 39.632 23.9222C40.6347 18.33 40.9437 9.82597 39.6061 4.44161Z" fill="#253869"/>
<path d="M16.2041 20.2599L26.6975 14.1819L16.2041 8.104V20.2599Z" fill="white"/>
</svg>
